<?xml version="1.0" encoding="UTF-8" standalone="no"?><svg xmlns="http://www.w3.org/2000/svg" xmlns:xlink="http://www.w3.org/1999/xlink" contentStyleType="text/css" height="588px" preserveAspectRatio="none" style="width:2431px;height:588px;background:#FFFFFF;" version="1.1" viewBox="0 0 2431 588" width="2431px" zoomAndPan="magnify"><defs/><g><!--class aProtocol--><g id="elem_aProtocol"><rect codeLine="7" fill="#F1F1F1" height="88.8594" id="aProtocol" rx="2.5" ry="2.5" style="stroke:#181818;stroke-width:0.5;" width="340" x="586.5" y="51.5"/><ellipse cx="717.75" cy="71.6328" fill="#DAA520" rx="11" ry="11" style="stroke:#181818;stroke-width:1.0;"/><path d="M717.2969,73.2266 L718.9688,73.2266 C720.5469,73.2266 721.3906,72.9453 722.1406,72.1172 C722.6875,71.5234 723,70.7109 723,69.9297 C723,68.0547 721.4688,66.7266 719.2969,66.7266 L715.3438,66.7266 C714.9063,66.7266 714.7813,66.7422 714.625,66.8359 C714.375,66.9922 714.2188,67.2891 714.2188,67.5703 C714.2188,67.8203 714.3594,68.1016 714.5781,68.2734 C714.7344,68.3828 714.9219,68.4141 715.3438,68.4141 L715.5938,68.4141 L715.5938,74.9297 L715.3438,74.9297 C714.9375,74.9297 714.7813,74.9453 714.625,75.0547 C714.375,75.2109 714.2188,75.4922 714.2188,75.7891 C714.2188,76.0391 714.3594,76.3047 714.5781,76.4609 C714.7188,76.5859 714.9531,76.6328 715.3438,76.6328 L718.9844,76.6328 C719.3281,76.6328 719.5781,76.5859 719.6875,76.5078 C719.9531,76.3672 720.1094,76.0703 720.1094,75.7891 C720.1094,75.5078 719.9688,75.2578 719.75,75.0859 C719.5781,74.9609 719.4375,74.9297 718.9844,74.9297 L717.2969,74.9297 L717.2969,73.2266 Z M717.2969,68.4141 L719.2969,68.4141 C720.4844,68.4141 721.1875,69.0234 721.1875,69.9922 C721.1875,70.9453 720.4844,71.5391 719.2969,71.5391 L717.2969,71.5391 L717.2969,68.4141 Z " fill="#000000"/><text fill="#000000" font-family="sans-serif" font-size="12" font-style="italic" lengthAdjust="spacing" textLength="63" x="741.25" y="67.6387">«protocol»</text><text fill="#000000" font-family="sans-serif" font-size="14" lengthAdjust="spacing" textLength="69" x="738.25" y="83.4639">aProtocol</text><line style="stroke:#181818;stroke-width:0.5;" x1="587.5" x2="925.5" y1="91.7656" y2="91.7656"/><polygon fill="none" points="597.5,101.4141,593.5,107.4141,601.5,107.4141" style="stroke:#1963A0;stroke-width:1.0;"/><text fill="#000000" font-family="sans-serif" font-size="14" lengthAdjust="spacing" textLength="211" x="606.5" y="108.7607">aProtocolInstanceVar : String</text><line style="stroke:#181818;stroke-width:0.5;" x1="587.5" x2="925.5" y1="116.0625" y2="116.0625"/><polygon fill="#4177AF" points="597.5,125.7109,593.5,131.7109,601.5,131.7109" style="stroke:#1963A0;stroke-width:1.0;"/><text fill="#000000" font-family="sans-serif" font-size="14" lengthAdjust="spacing" textLength="314" x="606.5" y="133.0576">aProtocolInstanceMethod(param1:param2:)</text></g><!--class aClass--><g id="elem_aClass"><rect codeLine="11" fill="#F1F1F1" height="178.375" id="aClass" rx="2.5" ry="2.5" style="stroke:#181818;stroke-width:0.5;" width="365" x="962" y="7"/><ellipse cx="1118.25" cy="23" fill="#8FBC8F" rx="11" ry="11" style="stroke:#181818;stroke-width:1.0;"/><path d="M1120.5938,18.6719 C1119.6563,18.2344 1119.0625,18.0938 1118.1875,18.0938 C1115.5625,18.0938 1113.5625,20.1719 1113.5625,22.8906 L1113.5625,24.0156 C1113.5625,26.5938 1115.6719,28.4844 1118.5625,28.4844 C1119.7813,28.4844 1120.9375,28.1875 1121.6875,27.6406 C1122.2656,27.2344 1122.5938,26.7813 1122.5938,26.3906 C1122.5938,25.9375 1122.2031,25.5469 1121.7344,25.5469 C1121.5156,25.5469 1121.3125,25.625 1121.125,25.8125 C1120.6719,26.2969 1120.6719,26.2969 1120.4844,26.3906 C1120.0625,26.6563 1119.375,26.7813 1118.6094,26.7813 C1116.5625,26.7813 1115.2656,25.6875 1115.2656,23.9844 L1115.2656,22.8906 C1115.2656,21.1094 1116.5156,19.7969 1118.25,19.7969 C1118.8281,19.7969 1119.4375,19.9531 1119.9063,20.2031 C1120.3906,20.4844 1120.5625,20.7031 1120.6563,21.1094 C1120.7188,21.5156 1120.75,21.6406 1120.8906,21.7656 C1121.0313,21.9063 1121.2656,22.0156 1121.4844,22.0156 C1121.75,22.0156 1122.0156,21.875 1122.1875,21.6563 C1122.2969,21.5 1122.3281,21.3125 1122.3281,20.8906 L1122.3281,19.4688 C1122.3281,19.0313 1122.3125,18.9063 1122.2188,18.75 C1122.0625,18.4844 1121.7813,18.3438 1121.4844,18.3438 C1121.1875,18.3438 1120.9844,18.4375 1120.7656,18.75 L1120.5938,18.6719 Z " fill="#000000"/><text fill="#000000" font-family="sans-serif" font-size="14" lengthAdjust="spacing" textLength="44" x="1138.75" y="27.8467">aClass</text><line style="stroke:#181818;stroke-width:0.5;" x1="963" x2="1326" y1="39" y2="39"/><ellipse cx="973" cy="52.6484" fill="none" rx="3" ry="3" style="stroke:#038048;stroke-width:1.0;"/><text fill="#000000" font-family="sans-serif" font-size="14" lengthAdjust="spacing" textLength="193" x="982" y="55.9951">aPublicInstanceVar : String</text><ellipse cx="973" cy="68.9453" fill="none" rx="3" ry="3" style="stroke:#038048;stroke-width:1.0;"/><text fill="#000000" font-family="sans-serif" font-size="14" lengthAdjust="spacing" text-decoration="underline" textLength="236" x="982" y="72.292">aStaticPublicInstanceVar : String</text><polygon fill="none" points="973,81.2422,969,87.2422,977,87.2422" style="stroke:#1963A0;stroke-width:1.0;"/><text fill="#000000" font-family="sans-serif" font-size="14" lengthAdjust="spacing" textLength="222" x="982" y="88.5889">anInternalInstanceVar : Double</text><rect fill="none" height="6" style="stroke:#C82930;stroke-width:1.0;" width="6" x="970" y="98.5391"/><text fill="#000000" font-family="sans-serif" font-size="14" lengthAdjust="spacing" textLength="177" x="982" y="104.8857">aPrivateInstanceVar : Int</text><rect fill="none" height="6" style="stroke:#C82930;stroke-width:1.0;" width="6" x="970" y="114.8359"/><text fill="#000000" font-family="sans-serif" font-size="14" lengthAdjust="spacing" textLength="241" x="982" y="121.1826">aPublicInstanceVarTypeInference</text><line style="stroke:#181818;stroke-width:0.5;" x1="963" x2="1326" y1="128.4844" y2="128.4844"/><ellipse cx="973" cy="142.1328" fill="#84BE84" rx="3" ry="3" style="stroke:#038048;stroke-width:1.0;"/><text fill="#000000" font-family="sans-serif" font-size="14" lengthAdjust="spacing" textLength="34" x="982" y="145.4795">init()</text><ellipse cx="973" cy="158.4297" fill="#84BE84" rx="3" ry="3" style="stroke:#038048;stroke-width:1.0;"/><text fill="#000000" font-family="sans-serif" font-size="14" lengthAdjust="spacing" textLength="296" x="982" y="161.7764">aPublicInstanceMethod(param1:param2:)</text><ellipse cx="973" cy="174.7266" fill="#84BE84" rx="3" ry="3" style="stroke:#038048;stroke-width:1.0;"/><text fill="#000000" font-family="sans-serif" font-size="14" lengthAdjust="spacing" text-decoration="underline" textLength="339" x="982" y="178.0732">aStaticPublicInstanceMethod(param1:param2:)</text></g><!--class anInternalSubClass--><g id="elem_anInternalSubClass"><rect codeLine="21" fill="#F1F1F1" height="113.1875" id="anInternalSubClass" rx="2.5" ry="2.5" style="stroke:#181818;stroke-width:0.5;" width="306" x="991.5" y="282.5"/><ellipse cx="1072.25" cy="298.5" fill="#8FBC8F" rx="11" ry="11" style="stroke:#181818;stroke-width:1.0;"/><path d="M1074.5938,294.1719 C1073.6563,293.7344 1073.0625,293.5938 1072.1875,293.5938 C1069.5625,293.5938 1067.5625,295.6719 1067.5625,298.3906 L1067.5625,299.5156 C1067.5625,302.0938 1069.6719,303.9844 1072.5625,303.9844 C1073.7813,303.9844 1074.9375,303.6875 1075.6875,303.1406 C1076.2656,302.7344 1076.5938,302.2813 1076.5938,301.8906 C1076.5938,301.4375 1076.2031,301.0469 1075.7344,301.0469 C1075.5156,301.0469 1075.3125,301.125 1075.125,301.3125 C1074.6719,301.7969 1074.6719,301.7969 1074.4844,301.8906 C1074.0625,302.1563 1073.375,302.2813 1072.6094,302.2813 C1070.5625,302.2813 1069.2656,301.1875 1069.2656,299.4844 L1069.2656,298.3906 C1069.2656,296.6094 1070.5156,295.2969 1072.25,295.2969 C1072.8281,295.2969 1073.4375,295.4531 1073.9063,295.7031 C1074.3906,295.9844 1074.5625,296.2031 1074.6563,296.6094 C1074.7188,297.0156 1074.75,297.1406 1074.8906,297.2656 C1075.0313,297.4063 1075.2656,297.5156 1075.4844,297.5156 C1075.75,297.5156 1076.0156,297.375 1076.1875,297.1563 C1076.2969,297 1076.3281,296.8125 1076.3281,296.3906 L1076.3281,294.9688 C1076.3281,294.5313 1076.3125,294.4063 1076.2188,294.25 C1076.0625,293.9844 1075.7813,293.8438 1075.4844,293.8438 C1075.1875,293.8438 1074.9844,293.9375 1074.7656,294.25 L1074.5938,294.1719 Z " fill="#000000"/><text fill="#000000" font-family="sans-serif" font-size="14" lengthAdjust="spacing" textLength="136" x="1092.75" y="303.3467">anInternalSubClass</text><line style="stroke:#181818;stroke-width:0.5;" x1="992.5" x2="1296.5" y1="314.5" y2="314.5"/><ellipse cx="1002.5" cy="328.1484" fill="none" rx="3" ry="3" style="stroke:#038048;stroke-width:1.0;"/><text fill="#000000" font-family="sans-serif" font-size="14" lengthAdjust="spacing" textLength="177" x="1011.5" y="331.4951">aSubInstanceVar : String</text><ellipse cx="1002.5" cy="344.4453" fill="none" rx="3" ry="3" style="stroke:#038048;stroke-width:1.0;"/><text fill="#000000" font-family="sans-serif" font-size="14" lengthAdjust="spacing" textLength="205" x="1011.5" y="347.792">linkToStruct : aPublicStruct?</text><line style="stroke:#181818;stroke-width:0.5;" x1="992.5" x2="1296.5" y1="355.0938" y2="355.0938"/><ellipse cx="1002.5" cy="368.7422" fill="#84BE84" rx="3" ry="3" style="stroke:#038048;stroke-width:1.0;"/><text fill="#000000" font-family="sans-serif" font-size="14" lengthAdjust="spacing" textLength="34" x="1011.5" y="372.0889">init()</text><ellipse cx="1002.5" cy="385.0391" fill="#84BE84" rx="3" ry="3" style="stroke:#038048;stroke-width:1.0;"/><text fill="#000000" font-family="sans-serif" font-size="14" lengthAdjust="spacing" textLength="280" x="1011.5" y="388.3857">aSubInstanceMethod(param1:param2:)</text></g><!--class anInternalClass--><g id="elem_anInternalClass"><rect codeLine="27" fill="#F1F1F1" height="56.2969" id="anInternalClass" rx="2.5" ry="2.5" style="stroke:#181818;stroke-width:0.5;" width="248" x="20.5" y="68"/><ellipse cx="85.75" cy="84" fill="#8FBC8F" rx="11" ry="11" style="stroke:#181818;stroke-width:1.0;"/><path d="M88.0938,79.6719 C87.1563,79.2344 86.5625,79.0938 85.6875,79.0938 C83.0625,79.0938 81.0625,81.1719 81.0625,83.8906 L81.0625,85.0156 C81.0625,87.5938 83.1719,89.4844 86.0625,89.4844 C87.2813,89.4844 88.4375,89.1875 89.1875,88.6406 C89.7656,88.2344 90.0938,87.7813 90.0938,87.3906 C90.0938,86.9375 89.7031,86.5469 89.2344,86.5469 C89.0156,86.5469 88.8125,86.625 88.625,86.8125 C88.1719,87.2969 88.1719,87.2969 87.9844,87.3906 C87.5625,87.6563 86.875,87.7813 86.1094,87.7813 C84.0625,87.7813 82.7656,86.6875 82.7656,84.9844 L82.7656,83.8906 C82.7656,82.1094 84.0156,80.7969 85.75,80.7969 C86.3281,80.7969 86.9375,80.9531 87.4063,81.2031 C87.8906,81.4844 88.0625,81.7031 88.1563,82.1094 C88.2188,82.5156 88.25,82.6406 88.3906,82.7656 C88.5313,82.9063 88.7656,83.0156 88.9844,83.0156 C89.25,83.0156 89.5156,82.875 89.6875,82.6563 C89.7969,82.5 89.8281,82.3125 89.8281,81.8906 L89.8281,80.4688 C89.8281,80.0313 89.8125,79.9063 89.7188,79.75 C89.5625,79.4844 89.2813,79.3438 88.9844,79.3438 C88.6875,79.3438 88.4844,79.4375 88.2656,79.75 L88.0938,79.6719 Z " fill="#000000"/><text fill="#000000" font-family="sans-serif" font-size="14" lengthAdjust="spacing" textLength="109" x="106.25" y="88.8467">anInternalClass</text><line style="stroke:#181818;stroke-width:0.5;" x1="21.5" x2="267.5" y1="100" y2="100"/><polygon fill="none" points="31.5,109.6484,27.5,115.6484,35.5,115.6484" style="stroke:#1963A0;stroke-width:1.0;"/><text fill="#000000" font-family="sans-serif" font-size="14" lengthAdjust="spacing" textLength="222" x="40.5" y="116.9951">anInternalInstanceVar : Double</text></g><!--class aPrivateClass--><g id="elem_aPrivateClass"><rect codeLine="30" fill="#F1F1F1" height="56.2969" id="aPrivateClass" rx="2.5" ry="2.5" style="stroke:#181818;stroke-width:0.5;" width="248" x="303.5" y="68"/><ellipse cx="375.75" cy="84" fill="#8FBC8F" rx="11" ry="11" style="stroke:#181818;stroke-width:1.0;"/><path d="M378.0938,79.6719 C377.1563,79.2344 376.5625,79.0938 375.6875,79.0938 C373.0625,79.0938 371.0625,81.1719 371.0625,83.8906 L371.0625,85.0156 C371.0625,87.5938 373.1719,89.4844 376.0625,89.4844 C377.2813,89.4844 378.4375,89.1875 379.1875,88.6406 C379.7656,88.2344 380.0938,87.7813 380.0938,87.3906 C380.0938,86.9375 379.7031,86.5469 379.2344,86.5469 C379.0156,86.5469 378.8125,86.625 378.625,86.8125 C378.1719,87.2969 378.1719,87.2969 377.9844,87.3906 C377.5625,87.6563 376.875,87.7813 376.1094,87.7813 C374.0625,87.7813 372.7656,86.6875 372.7656,84.9844 L372.7656,83.8906 C372.7656,82.1094 374.0156,80.7969 375.75,80.7969 C376.3281,80.7969 376.9375,80.9531 377.4063,81.2031 C377.8906,81.4844 378.0625,81.7031 378.1563,82.1094 C378.2188,82.5156 378.25,82.6406 378.3906,82.7656 C378.5313,82.9063 378.7656,83.0156 378.9844,83.0156 C379.25,83.0156 379.5156,82.875 379.6875,82.6563 C379.7969,82.5 379.8281,82.3125 379.8281,81.8906 L379.8281,80.4688 C379.8281,80.0313 379.8125,79.9063 379.7188,79.75 C379.5625,79.4844 379.2813,79.3438 378.9844,79.3438 C378.6875,79.3438 378.4844,79.4375 378.2656,79.75 L378.0938,79.6719 Z " fill="#000000"/><text fill="#000000" font-family="sans-serif" font-size="14" lengthAdjust="spacing" textLength="95" x="396.25" y="88.8467">aPrivateClass</text><line style="stroke:#181818;stroke-width:0.5;" x1="304.5" x2="550.5" y1="100" y2="100"/><polygon fill="none" points="314.5,109.6484,310.5,115.6484,318.5,115.6484" style="stroke:#1963A0;stroke-width:1.0;"/><text fill="#000000" font-family="sans-serif" font-size="14" lengthAdjust="spacing" textLength="222" x="323.5" y="116.9951">anInternalInstanceVar : Double</text></g><!--class aPrivateGenericClass--><g id="elem_aPrivateGenericClass"><rect codeLine="33" fill="#F1F1F1" height="56.2969" id="aPrivateGenericClass" rx="2.5" ry="2.5" style="stroke:#181818;stroke-width:0.5;" width="237" x="1362" y="68"/><ellipse cx="1377" cy="84" fill="#8FBC8F" rx="11" ry="11" style="stroke:#181818;stroke-width:1.0;"/><path d="M1379.3438,79.6719 C1378.4063,79.2344 1377.8125,79.0938 1376.9375,79.0938 C1374.3125,79.0938 1372.3125,81.1719 1372.3125,83.8906 L1372.3125,85.0156 C1372.3125,87.5938 1374.4219,89.4844 1377.3125,89.4844 C1378.5313,89.4844 1379.6875,89.1875 1380.4375,88.6406 C1381.0156,88.2344 1381.3438,87.7813 1381.3438,87.3906 C1381.3438,86.9375 1380.9531,86.5469 1380.4844,86.5469 C1380.2656,86.5469 1380.0625,86.625 1379.875,86.8125 C1379.4219,87.2969 1379.4219,87.2969 1379.2344,87.3906 C1378.8125,87.6563 1378.125,87.7813 1377.3594,87.7813 C1375.3125,87.7813 1374.0156,86.6875 1374.0156,84.9844 L1374.0156,83.8906 C1374.0156,82.1094 1375.2656,80.7969 1377,80.7969 C1377.5781,80.7969 1378.1875,80.9531 1378.6563,81.2031 C1379.1406,81.4844 1379.3125,81.7031 1379.4063,82.1094 C1379.4688,82.5156 1379.5,82.6406 1379.6406,82.7656 C1379.7813,82.9063 1380.0156,83.0156 1380.2344,83.0156 C1380.5,83.0156 1380.7656,82.875 1380.9375,82.6563 C1381.0469,82.5 1381.0781,82.3125 1381.0781,81.8906 L1381.0781,80.4688 C1381.0781,80.0313 1381.0625,79.9063 1380.9688,79.75 C1380.8125,79.4844 1380.5313,79.3438 1380.2344,79.3438 C1379.9375,79.3438 1379.7344,79.4375 1379.5156,79.75 L1379.3438,79.6719 Z " fill="#000000"/><text fill="#000000" font-family="sans-serif" font-size="14" lengthAdjust="spacing" textLength="151" x="1391" y="88.8467">aPrivateGenericClass</text><rect fill="#FFFFFF" height="15.9688" style="stroke:#181818;stroke-width:1.0;stroke-dasharray:2.0,2.0;" width="52" x="1550" y="65"/><text fill="#000000" font-family="sans-serif" font-size="12" font-style="italic" lengthAdjust="spacing" textLength="50" x="1551" y="77.1387">Element</text><line style="stroke:#181818;stroke-width:0.5;" x1="1363" x2="1598" y1="100" y2="100"/><polygon fill="none" points="1373,109.6484,1369,115.6484,1377,115.6484" style="stroke:#1963A0;stroke-width:1.0;"/><text fill="#000000" font-family="sans-serif" font-size="14" lengthAdjust="spacing" textLength="152" x="1382" y="116.9951">elements : [Element]</text></g><!--class aPrivateGenericSubClass--><g id="elem_aPrivateGenericSubClass"><rect codeLine="36" fill="#F1F1F1" height="56.2969" id="aPrivateGenericSubClass" rx="2.5" ry="2.5" style="stroke:#181818;stroke-width:0.5;" width="264" x="1348.5" y="311"/><ellipse cx="1363.5" cy="327" fill="#8FBC8F" rx="11" ry="11" style="stroke:#181818;stroke-width:1.0;"/><path d="M1365.8438,322.6719 C1364.9063,322.2344 1364.3125,322.0938 1363.4375,322.0938 C1360.8125,322.0938 1358.8125,324.1719 1358.8125,326.8906 L1358.8125,328.0156 C1358.8125,330.5938 1360.9219,332.4844 1363.8125,332.4844 C1365.0313,332.4844 1366.1875,332.1875 1366.9375,331.6406 C1367.5156,331.2344 1367.8438,330.7813 1367.8438,330.3906 C1367.8438,329.9375 1367.4531,329.5469 1366.9844,329.5469 C1366.7656,329.5469 1366.5625,329.625 1366.375,329.8125 C1365.9219,330.2969 1365.9219,330.2969 1365.7344,330.3906 C1365.3125,330.6563 1364.625,330.7813 1363.8594,330.7813 C1361.8125,330.7813 1360.5156,329.6875 1360.5156,327.9844 L1360.5156,326.8906 C1360.5156,325.1094 1361.7656,323.7969 1363.5,323.7969 C1364.0781,323.7969 1364.6875,323.9531 1365.1563,324.2031 C1365.6406,324.4844 1365.8125,324.7031 1365.9063,325.1094 C1365.9688,325.5156 1366,325.6406 1366.1406,325.7656 C1366.2813,325.9063 1366.5156,326.0156 1366.7344,326.0156 C1367,326.0156 1367.2656,325.875 1367.4375,325.6563 C1367.5469,325.5 1367.5781,325.3125 1367.5781,324.8906 L1367.5781,323.4688 C1367.5781,323.0313 1367.5625,322.9063 1367.4688,322.75 C1367.3125,322.4844 1367.0313,322.3438 1366.7344,322.3438 C1366.4375,322.3438 1366.2344,322.4375 1366.0156,322.75 L1365.8438,322.6719 Z " fill="#000000"/><text fill="#000000" font-family="sans-serif" font-size="14" lengthAdjust="spacing" textLength="178" x="1377.5" y="331.8467">aPrivateGenericSubClass</text><rect fill="#FFFFFF" height="15.9688" style="stroke:#181818;stroke-width:1.0;stroke-dasharray:2.0,2.0;" width="52" x="1563.5" y="308"/><text fill="#000000" font-family="sans-serif" font-size="12" font-style="italic" lengthAdjust="spacing" textLength="50" x="1564.5" y="320.1387">Element</text><line style="stroke:#181818;stroke-width:0.5;" x1="1349.5" x2="1611.5" y1="343" y2="343"/><rect fill="none" height="6" style="stroke:#C82930;stroke-width:1.0;" width="6" x="1356.5" y="353.6484"/><text fill="#000000" font-family="sans-serif" font-size="14" lengthAdjust="spacing" textLength="131" x="1368.5" y="359.9951">otherProp : String</text></g><!--class aPublicStruct--><g id="elem_aPublicStruct"><rect codeLine="39" fill="#F1F1F1" height="154.0469" id="aPublicStruct" rx="2.5" ry="2.5" style="stroke:#181818;stroke-width:0.5;" width="365" x="574" y="262"/><ellipse cx="704.25" cy="282.1328" fill="#87CEEB" rx="11" ry="11" style="stroke:#181818;stroke-width:1.0;"/><path d="M708.0313,278.1016 C708.0313,277.6641 708.0156,277.5234 707.9219,277.3672 C707.7813,277.1328 707.5,276.9766 707.2031,276.9766 C706.8594,276.9766 706.7188,277.1172 706.5469,277.5391 C705.9531,277.1641 705.2031,276.9766 704.3281,276.9766 C702.2188,276.9766 700.6406,278.2734 700.6406,279.9922 C700.6406,280.9609 701.1719,281.8672 702.0313,282.3516 C702.5781,282.6641 703.125,282.8359 704.2344,283.0234 C705.3906,283.2266 705.6563,283.2891 706.0156,283.4766 C706.3906,283.6797 706.625,284.0234 706.625,284.3828 C706.625,285.1172 705.6406,285.6641 704.3906,285.6641 C703.2656,285.6641 702.1875,285.1797 702.0156,284.5703 C701.8906,284.1016 701.8906,284.1016 701.7656,283.9922 C701.6094,283.8359 701.3906,283.7422 701.1563,283.7422 C700.875,283.7422 700.625,283.8672 700.4531,284.0859 C700.3438,284.2578 700.2969,284.4453 700.2969,284.8672 L700.2969,285.9922 C700.2969,286.7578 700.5781,287.1172 701.1719,287.1172 C701.4375,287.1172 701.5625,287.0547 701.8438,286.7109 C702.6875,287.1484 703.5781,287.3672 704.5,287.3672 C706.8281,287.3672 708.3906,286.1797 708.3906,284.4141 C708.3906,283.5234 708.0781,282.8359 707.3906,282.2891 C706.8594,281.8672 706.2188,281.6172 704.7344,281.3516 C703.4688,281.1172 703.375,281.0859 703.0469,280.9141 C702.6719,280.7266 702.4063,280.3359 702.4063,279.9766 C702.4063,279.2422 703.2656,278.6797 704.3281,278.6797 C705.3906,278.6797 706.2031,279.1484 706.3594,279.8203 C706.4688,280.3672 706.4688,280.3672 706.5938,280.5078 C706.7344,280.6328 706.9688,280.7422 707.2031,280.7422 C707.4688,280.7422 707.7188,280.6016 707.8906,280.3828 C708,280.2109 708.0313,280.0703 708.0313,279.6016 L708.0313,278.1016 Z " fill="#000000"/><text fill="#000000" font-family="sans-serif" font-size="12" font-style="italic" lengthAdjust="spacing" textLength="50" x="747.75" y="278.1387">«struct»</text><text fill="#000000" font-family="sans-serif" font-size="14" lengthAdjust="spacing" textLength="96" x="724.75" y="293.9639">aPublicStruct</text><line style="stroke:#181818;stroke-width:0.5;" x1="575" x2="938" y1="302.2656" y2="302.2656"/><ellipse cx="585" cy="315.9141" fill="none" rx="3" ry="3" style="stroke:#038048;stroke-width:1.0;"/><text fill="#000000" font-family="sans-serif" font-size="14" lengthAdjust="spacing" textLength="193" x="594" y="319.2607">aPublicInstanceVar : String</text><polygon fill="none" points="585,328.2109,581,334.2109,589,334.2109" style="stroke:#1963A0;stroke-width:1.0;"/><text fill="#000000" font-family="sans-serif" font-size="14" lengthAdjust="spacing" textLength="222" x="594" y="335.5576">anInternalInstanceVar : Double</text><rect fill="none" height="6" style="stroke:#C82930;stroke-width:1.0;" width="6" x="582" y="345.5078"/><text fill="#000000" font-family="sans-serif" font-size="14" lengthAdjust="spacing" textLength="177" x="594" y="351.8545">aPrivateInstanceVar : Int</text><rect fill="none" height="6" style="stroke:#C82930;stroke-width:1.0;" width="6" x="582" y="361.8047"/><text fill="#000000" font-family="sans-serif" font-size="14" lengthAdjust="spacing" textLength="241" x="594" y="368.1514">aPublicInstanceVarTypeInference</text><line style="stroke:#181818;stroke-width:0.5;" x1="575" x2="938" y1="375.4531" y2="375.4531"/><ellipse cx="585" cy="389.1016" fill="#84BE84" rx="3" ry="3" style="stroke:#038048;stroke-width:1.0;"/><text fill="#000000" font-family="sans-serif" font-size="14" lengthAdjust="spacing" textLength="296" x="594" y="392.4482">aPublicInstanceMethod(param1:param2:)</text><ellipse cx="585" cy="405.3984" fill="#84BE84" rx="3" ry="3" style="stroke:#038048;stroke-width:1.0;"/><text fill="#000000" font-family="sans-serif" font-size="14" lengthAdjust="spacing" text-decoration="underline" textLength="339" x="594" y="408.7451">aStaticPublicInstanceMethod(param1:param2:)</text></g><!--class anInternalStruct--><g id="elem_anInternalStruct"><rect codeLine="47" fill="#F1F1F1" height="97.1563" id="anInternalStruct" rx="2.5" ry="2.5" style="stroke:#181818;stroke-width:0.5;" width="267" x="1883" y="47.5"/><ellipse cx="1953.25" cy="67.6328" fill="#87CEEB" rx="11" ry="11" style="stroke:#181818;stroke-width:1.0;"/><path d="M1957.0313,63.6016 C1957.0313,63.1641 1957.0156,63.0234 1956.9219,62.8672 C1956.7813,62.6328 1956.5,62.4766 1956.2031,62.4766 C1955.8594,62.4766 1955.7188,62.6172 1955.5469,63.0391 C1954.9531,62.6641 1954.2031,62.4766 1953.3281,62.4766 C1951.2188,62.4766 1949.6406,63.7734 1949.6406,65.4922 C1949.6406,66.4609 1950.1719,67.3672 1951.0313,67.8516 C1951.5781,68.1641 1952.125,68.3359 1953.2344,68.5234 C1954.3906,68.7266 1954.6563,68.7891 1955.0156,68.9766 C1955.3906,69.1797 1955.625,69.5234 1955.625,69.8828 C1955.625,70.6172 1954.6406,71.1641 1953.3906,71.1641 C1952.2656,71.1641 1951.1875,70.6797 1951.0156,70.0703 C1950.8906,69.6016 1950.8906,69.6016 1950.7656,69.4922 C1950.6094,69.3359 1950.3906,69.2422 1950.1563,69.2422 C1949.875,69.2422 1949.625,69.3672 1949.4531,69.5859 C1949.3438,69.7578 1949.2969,69.9453 1949.2969,70.3672 L1949.2969,71.4922 C1949.2969,72.2578 1949.5781,72.6172 1950.1719,72.6172 C1950.4375,72.6172 1950.5625,72.5547 1950.8438,72.2109 C1951.6875,72.6484 1952.5781,72.8672 1953.5,72.8672 C1955.8281,72.8672 1957.3906,71.6797 1957.3906,69.9141 C1957.3906,69.0234 1957.0781,68.3359 1956.3906,67.7891 C1955.8594,67.3672 1955.2188,67.1172 1953.7344,66.8516 C1952.4688,66.6172 1952.375,66.5859 1952.0469,66.4141 C1951.6719,66.2266 1951.4063,65.8359 1951.4063,65.4766 C1951.4063,64.7422 1952.2656,64.1797 1953.3281,64.1797 C1954.3906,64.1797 1955.2031,64.6484 1955.3594,65.3203 C1955.4688,65.8672 1955.4688,65.8672 1955.5938,66.0078 C1955.7344,66.1328 1955.9688,66.2422 1956.2031,66.2422 C1956.4688,66.2422 1956.7188,66.1016 1956.8906,65.8828 C1957,65.7109 1957.0313,65.5703 1957.0313,65.1016 L1957.0313,63.6016 Z " fill="#000000"/><text fill="#000000" font-family="sans-serif" font-size="12" font-style="italic" lengthAdjust="spacing" textLength="50" x="2007.75" y="63.6387">«struct»</text><text fill="#000000" font-family="sans-serif" font-size="14" lengthAdjust="spacing" textLength="118" x="1973.75" y="79.4639">anInternalStruct</text><line style="stroke:#181818;stroke-width:0.5;" x1="1884" x2="2149" y1="87.7656" y2="87.7656"/><polygon fill="none" points="1894,97.4141,1890,103.4141,1898,103.4141" style="stroke:#1963A0;stroke-width:1.0;"/><text fill="#000000" font-family="sans-serif" font-size="14" lengthAdjust="spacing" textLength="222" x="1903" y="104.7607">anInternalInstanceVar : Double</text><rect fill="none" height="6" style="stroke:#C82930;stroke-width:1.0;" width="6" x="1891" y="114.7109"/><text fill="#000000" font-family="sans-serif" font-size="14" lengthAdjust="spacing" textLength="177" x="1903" y="121.0576">aPrivateInstanceVar : Int</text><rect fill="none" height="6" style="stroke:#C82930;stroke-width:1.0;" width="6" x="1891" y="131.0078"/><text fill="#000000" font-family="sans-serif" font-size="14" lengthAdjust="spacing" textLength="241" x="1903" y="137.3545">aPublicInstanceVarTypeInference</text></g><!--class AnEnum--><g id="elem_AnEnum"><rect codeLine="52" fill="#F1F1F1" height="154.0469" id="AnEnum" rx="2.5" ry="2.5" style="stroke:#181818;stroke-width:0.5;" width="271" x="9" y="262"/><ellipse cx="110.75" cy="282.1328" fill="#B0C4DE" rx="11" ry="11" style="stroke:#181818;stroke-width:1.0;"/><path d="M109.5469,283.0078 L111,283.0078 L111,283.1172 C111,283.5234 111.0313,283.6797 111.1094,283.8359 C111.2656,284.0859 111.5469,284.2422 111.8438,284.2422 C112.0938,284.2422 112.3594,284.1016 112.5156,283.8828 C112.6406,283.7266 112.6719,283.5703 112.6719,283.1172 L112.6719,281.1953 C112.6719,281.0391 112.6719,280.9922 112.6563,280.8359 C112.5938,280.3672 112.2813,280.0547 111.8281,280.0547 C111.5781,280.0547 111.3125,280.1953 111.1406,280.4141 C111.0313,280.5859 111,280.7422 111,281.1953 L111,281.3203 L109.5469,281.3203 L109.5469,278.9141 L113.5313,278.9141 L113.5313,279.7734 C113.5313,280.1797 113.5625,280.3516 113.6406,280.5078 C113.8125,280.7578 114.0938,280.9141 114.375,280.9141 C114.6406,280.9141 114.9063,280.7734 115.0781,280.5547 C115.1875,280.3828 115.2188,280.2422 115.2188,279.7734 L115.2188,277.2266 L107.5938,277.2266 C107.1563,277.2266 107.0313,277.2422 106.875,277.3359 C106.625,277.4922 106.4688,277.7891 106.4688,278.0703 C106.4688,278.3516 106.6094,278.6016 106.8281,278.7734 C106.9844,278.8828 107.1719,278.9141 107.5938,278.9141 L107.8438,278.9141 L107.8438,285.4297 L107.5938,285.4297 C107.1875,285.4297 107.0313,285.4453 106.875,285.5547 C106.625,285.7266 106.4688,285.9922 106.4688,286.2891 C106.4688,286.5547 106.6094,286.8047 106.8281,286.9609 C106.9688,287.0859 107.2031,287.1328 107.5938,287.1328 L115.5938,287.1328 L115.5938,284.5547 C115.5938,284.1172 115.5625,283.9766 115.4844,283.8203 C115.3125,283.5703 115.0313,283.4141 114.75,283.4141 C114.4844,283.4141 114.2188,283.5234 114.0469,283.7734 C113.9375,283.9297 113.9063,284.0703 113.9063,284.5547 L113.9063,285.4297 L109.5469,285.4297 L109.5469,283.0078 Z " fill="#000000"/><text fill="#000000" font-family="sans-serif" font-size="12" font-style="italic" lengthAdjust="spacing" textLength="49" x="136.25" y="278.1387">«enum»</text><text fill="#000000" font-family="sans-serif" font-size="14" lengthAdjust="spacing" textLength="59" x="131.25" y="293.9639">AnEnum</text><line style="stroke:#181818;stroke-width:0.5;" x1="10" x2="279" y1="302.2656" y2="302.2656"/><ellipse cx="20" cy="315.9141" fill="none" rx="3" ry="3" style="stroke:#038048;stroke-width:1.0;"/><text fill="#000000" font-family="sans-serif" font-size="14" lengthAdjust="spacing" textLength="82" x="29" y="319.2607">simpleCase</text><polygon fill="none" points="20,328.2109,16,334.2109,24,334.2109" style="stroke:#1963A0;stroke-width:1.0;"/><text fill="#000000" font-family="sans-serif" font-size="14" lengthAdjust="spacing" textLength="245" x="29" y="335.5576">anInternalComputedVar : AnEnum</text><line style="stroke:#181818;stroke-width:0.5;" x1="10" x2="279" y1="342.8594" y2="342.8594"/><ellipse cx="20" cy="356.5078" fill="#84BE84" rx="3" ry="3" style="stroke:#038048;stroke-width:1.0;"/><text fill="#000000" font-family="sans-serif" font-size="14" lengthAdjust="spacing" textLength="117" x="29" y="359.8545">caseWithRaw(_:)</text><ellipse cx="20" cy="372.8047" fill="#84BE84" rx="3" ry="3" style="stroke:#038048;stroke-width:1.0;"/><text fill="#000000" font-family="sans-serif" font-size="14" lengthAdjust="spacing" textLength="129" x="29" y="376.1514">caseWithRaw(_:_:)</text><polygon fill="#4177AF" points="20,385.1016,16,391.1016,24,391.1016" style="stroke:#1963A0;stroke-width:1.0;"/><text fill="#000000" font-family="sans-serif" font-size="14" lengthAdjust="spacing" textLength="199" x="29" y="392.4482">anInternalInstanceMethod()</text><polygon fill="#4177AF" points="20,401.3984,16,407.3984,24,407.3984" style="stroke:#1963A0;stroke-width:1.0;"/><text fill="#000000" font-family="sans-serif" font-size="14" lengthAdjust="spacing" text-decoration="underline" textLength="172" x="29" y="408.7451">aStaticInternalMethod()</text></g><!--class aPublicStruct0--><g id="elem_aPublicStruct0"><rect codeLine="60" fill="#F1F1F1" height="88.8594" id="aPublicStruct0" rx="2.5" ry="2.5" style="stroke:#181818;stroke-width:0.5;" width="359" x="384" y="493"/><ellipse cx="511.25" cy="513.1328" fill="#DA70D6" rx="11" ry="11" style="stroke:#181818;stroke-width:1.0;"/><path d="M512.4375,513.0859 L515.1094,509.9141 C515.7031,509.8984 516.0781,509.6016 516.0781,509.0703 C516.0781,508.8047 515.9531,508.5391 515.7188,508.3672 C515.5469,508.2578 515.4063,508.2266 514.9531,508.2266 L513.4219,508.2266 C513.0469,508.2266 512.7813,508.2734 512.6406,508.3984 C512.4219,508.5391 512.2813,508.8203 512.2813,509.0703 C512.2813,509.4453 512.4531,509.6641 512.9375,509.8984 L511.3438,511.7578 L509.7344,509.8984 C510.2344,509.6641 510.375,509.4453 510.375,509.0703 C510.375,508.8047 510.25,508.5391 510.0313,508.3672 C509.8594,508.2578 509.7188,508.2266 509.2344,508.2266 L507.6875,508.2266 C507.5781,508.2266 507.5625,508.2266 507.3594,508.2578 C506.8594,508.3047 506.5781,508.6172 506.5781,509.0703 C506.5781,509.5859 506.9375,509.8828 507.5625,509.9141 L510.25,513.0703 L507.4219,516.4297 C506.7969,516.4297 506.4219,516.7578 506.4219,517.2891 C506.4219,517.5547 506.5625,517.8047 506.7813,517.9766 C506.9375,518.0859 507.1406,518.1328 507.5469,518.1328 L509.4219,518.1328 C509.7813,518.1328 510,518.1016 510.1406,518.0078 C510.3906,517.8672 510.5469,517.5703 510.5469,517.2891 C510.5469,516.7734 510.2188,516.4609 509.6406,516.4297 L511.3594,514.3984 L513.0781,516.4297 C512.4844,516.4609 512.1563,516.7734 512.1563,517.2891 C512.1563,517.8516 512.5156,518.1328 513.2656,518.1328 L515.1563,518.1328 C515.5156,518.1328 515.7344,518.1016 515.875,518.0078 C516.125,517.8672 516.2813,517.5703 516.2813,517.2891 C516.2813,516.7578 515.9219,516.4453 515.2813,516.4297 L512.4375,513.0859 Z " fill="#000000"/><text fill="#000000" font-family="sans-serif" font-size="12" font-style="italic" lengthAdjust="spacing" textLength="72" x="543.75" y="509.1387">«extension»</text><text fill="#000000" font-family="sans-serif" font-size="14" lengthAdjust="spacing" textLength="96" x="531.75" y="524.9639">aPublicStruct</text><line style="stroke:#181818;stroke-width:0.5;" x1="385" x2="742" y1="533.2656" y2="533.2656"/><ellipse cx="395" cy="546.9141" fill="none" rx="3" ry="3" style="stroke:#038048;stroke-width:1.0;"/><text fill="#000000" font-family="sans-serif" font-size="14" lengthAdjust="spacing" textLength="306" x="404" y="550.2607">anExtensionComputedInstanceVar : String</text><line style="stroke:#181818;stroke-width:0.5;" x1="385" x2="742" y1="557.5625" y2="557.5625"/><ellipse cx="395" cy="571.2109" fill="#84BE84" rx="3" ry="3" style="stroke:#038048;stroke-width:1.0;"/><text fill="#000000" font-family="sans-serif" font-size="14" lengthAdjust="spacing" textLength="333" x="404" y="574.5576">anExtensionInstanceMethod(param1:param2:)</text></g><!--class aPublicStruct1--><g id="elem_aPublicStruct1"><rect codeLine="64" fill="#F1F1F1" height="88.8594" id="aPublicStruct1" rx="2.5" ry="2.5" style="stroke:#181818;stroke-width:0.5;" width="340" x="778.5" y="493"/><ellipse cx="896.25" cy="513.1328" fill="#DA70D6" rx="11" ry="11" style="stroke:#181818;stroke-width:1.0;"/><path d="M897.4375,513.0859 L900.1094,509.9141 C900.7031,509.8984 901.0781,509.6016 901.0781,509.0703 C901.0781,508.8047 900.9531,508.5391 900.7188,508.3672 C900.5469,508.2578 900.4063,508.2266 899.9531,508.2266 L898.4219,508.2266 C898.0469,508.2266 897.7813,508.2734 897.6406,508.3984 C897.4219,508.5391 897.2813,508.8203 897.2813,509.0703 C897.2813,509.4453 897.4531,509.6641 897.9375,509.8984 L896.3438,511.7578 L894.7344,509.8984 C895.2344,509.6641 895.375,509.4453 895.375,509.0703 C895.375,508.8047 895.25,508.5391 895.0313,508.3672 C894.8594,508.2578 894.7188,508.2266 894.2344,508.2266 L892.6875,508.2266 C892.5781,508.2266 892.5625,508.2266 892.3594,508.2578 C891.8594,508.3047 891.5781,508.6172 891.5781,509.0703 C891.5781,509.5859 891.9375,509.8828 892.5625,509.9141 L895.25,513.0703 L892.4219,516.4297 C891.7969,516.4297 891.4219,516.7578 891.4219,517.2891 C891.4219,517.5547 891.5625,517.8047 891.7813,517.9766 C891.9375,518.0859 892.1406,518.1328 892.5469,518.1328 L894.4219,518.1328 C894.7813,518.1328 895,518.1016 895.1406,518.0078 C895.3906,517.8672 895.5469,517.5703 895.5469,517.2891 C895.5469,516.7734 895.2188,516.4609 894.6406,516.4297 L896.3594,514.3984 L898.0781,516.4297 C897.4844,516.4609 897.1563,516.7734 897.1563,517.2891 C897.1563,517.8516 897.5156,518.1328 898.2656,518.1328 L900.1563,518.1328 C900.5156,518.1328 900.7344,518.1016 900.875,518.0078 C901.125,517.8672 901.2813,517.5703 901.2813,517.2891 C901.2813,516.7578 900.9219,516.4453 900.2813,516.4297 L897.4375,513.0859 Z " fill="#000000"/><text fill="#000000" font-family="sans-serif" font-size="12" font-style="italic" lengthAdjust="spacing" textLength="72" x="928.75" y="509.1387">«extension»</text><text fill="#000000" font-family="sans-serif" font-size="14" lengthAdjust="spacing" textLength="96" x="916.75" y="524.9639">aPublicStruct</text><line style="stroke:#181818;stroke-width:0.5;" x1="779.5" x2="1117.5" y1="533.2656" y2="533.2656"/><polygon fill="none" points="789.5,542.9141,785.5,548.9141,793.5,548.9141" style="stroke:#1963A0;stroke-width:1.0;"/><text fill="#000000" font-family="sans-serif" font-size="14" lengthAdjust="spacing" textLength="211" x="798.5" y="550.2607">aProtocolInstanceVar : String</text><line style="stroke:#181818;stroke-width:0.5;" x1="779.5" x2="1117.5" y1="557.5625" y2="557.5625"/><polygon fill="#4177AF" points="789.5,567.2109,785.5,573.2109,793.5,573.2109" style="stroke:#1963A0;stroke-width:1.0;"/><text fill="#000000" font-family="sans-serif" font-size="14" lengthAdjust="spacing" textLength="314" x="798.5" y="574.5576">aProtocolInstanceMethod(param1:param2:)</text></g><!--class anInternalStruct2--><g id="elem_anInternalStruct2"><rect codeLine="68" fill="#F1F1F1" height="64.5625" id="anInternalStruct2" rx="2.5" ry="2.5" style="stroke:#181818;stroke-width:0.5;" width="332" x="1647.5" y="306.5"/><ellipse cx="1750.25" cy="326.6328" fill="#DA70D6" rx="11" ry="11" style="stroke:#181818;stroke-width:1.0;"/><path d="M1751.4375,326.5859 L1754.1094,323.4141 C1754.7031,323.3984 1755.0781,323.1016 1755.0781,322.5703 C1755.0781,322.3047 1754.9531,322.0391 1754.7188,321.8672 C1754.5469,321.7578 1754.4063,321.7266 1753.9531,321.7266 L1752.4219,321.7266 C1752.0469,321.7266 1751.7813,321.7734 1751.6406,321.8984 C1751.4219,322.0391 1751.2813,322.3203 1751.2813,322.5703 C1751.2813,322.9453 1751.4531,323.1641 1751.9375,323.3984 L1750.3438,325.2578 L1748.7344,323.3984 C1749.2344,323.1641 1749.375,322.9453 1749.375,322.5703 C1749.375,322.3047 1749.25,322.0391 1749.0313,321.8672 C1748.8594,321.7578 1748.7188,321.7266 1748.2344,321.7266 L1746.6875,321.7266 C1746.5781,321.7266 1746.5625,321.7266 1746.3594,321.7578 C1745.8594,321.8047 1745.5781,322.1172 1745.5781,322.5703 C1745.5781,323.0859 1745.9375,323.3828 1746.5625,323.4141 L1749.25,326.5703 L1746.4219,329.9297 C1745.7969,329.9297 1745.4219,330.2578 1745.4219,330.7891 C1745.4219,331.0547 1745.5625,331.3047 1745.7813,331.4766 C1745.9375,331.5859 1746.1406,331.6328 1746.5469,331.6328 L1748.4219,331.6328 C1748.7813,331.6328 1749,331.6016 1749.1406,331.5078 C1749.3906,331.3672 1749.5469,331.0703 1749.5469,330.7891 C1749.5469,330.2734 1749.2188,329.9609 1748.6406,329.9297 L1750.3594,327.8984 L1752.0781,329.9297 C1751.4844,329.9609 1751.1563,330.2734 1751.1563,330.7891 C1751.1563,331.3516 1751.5156,331.6328 1752.2656,331.6328 L1754.1563,331.6328 C1754.5156,331.6328 1754.7344,331.6016 1754.875,331.5078 C1755.125,331.3672 1755.2813,331.0703 1755.2813,330.7891 C1755.2813,330.2578 1754.9219,329.9453 1754.2813,329.9297 L1751.4375,326.5859 Z " fill="#000000"/><text fill="#000000" font-family="sans-serif" font-size="12" font-style="italic" lengthAdjust="spacing" textLength="72" x="1793.75" y="322.6387">«extension»</text><text fill="#000000" font-family="sans-serif" font-size="14" lengthAdjust="spacing" textLength="118" x="1770.75" y="338.4639">anInternalStruct</text><line style="stroke:#181818;stroke-width:0.5;" x1="1648.5" x2="1978.5" y1="346.7656" y2="346.7656"/><polygon fill="none" points="1658.5,356.4141,1654.5,362.4141,1662.5,362.4141" style="stroke:#1963A0;stroke-width:1.0;"/><text fill="#000000" font-family="sans-serif" font-size="14" lengthAdjust="spacing" textLength="306" x="1667.5" y="363.7607">anExtensionComputedInstanceVar : String</text></g><!--class anInternalStruct3--><g id="elem_anInternalStruct3"><rect codeLine="71" fill="#F1F1F1" height="64.5625" id="anInternalStruct3" rx="2.5" ry="2.5" style="stroke:#181818;stroke-width:0.5;" width="409" x="2015" y="306.5"/><ellipse cx="2156.25" cy="326.6328" fill="#DA70D6" rx="11" ry="11" style="stroke:#181818;stroke-width:1.0;"/><path d="M2157.4375,326.5859 L2160.1094,323.4141 C2160.7031,323.3984 2161.0781,323.1016 2161.0781,322.5703 C2161.0781,322.3047 2160.9531,322.0391 2160.7188,321.8672 C2160.5469,321.7578 2160.4063,321.7266 2159.9531,321.7266 L2158.4219,321.7266 C2158.0469,321.7266 2157.7813,321.7734 2157.6406,321.8984 C2157.4219,322.0391 2157.2813,322.3203 2157.2813,322.5703 C2157.2813,322.9453 2157.4531,323.1641 2157.9375,323.3984 L2156.3438,325.2578 L2154.7344,323.3984 C2155.2344,323.1641 2155.375,322.9453 2155.375,322.5703 C2155.375,322.3047 2155.25,322.0391 2155.0313,321.8672 C2154.8594,321.7578 2154.7188,321.7266 2154.2344,321.7266 L2152.6875,321.7266 C2152.5781,321.7266 2152.5625,321.7266 2152.3594,321.7578 C2151.8594,321.8047 2151.5781,322.1172 2151.5781,322.5703 C2151.5781,323.0859 2151.9375,323.3828 2152.5625,323.4141 L2155.25,326.5703 L2152.4219,329.9297 C2151.7969,329.9297 2151.4219,330.2578 2151.4219,330.7891 C2151.4219,331.0547 2151.5625,331.3047 2151.7813,331.4766 C2151.9375,331.5859 2152.1406,331.6328 2152.5469,331.6328 L2154.4219,331.6328 C2154.7813,331.6328 2155,331.6016 2155.1406,331.5078 C2155.3906,331.3672 2155.5469,331.0703 2155.5469,330.7891 C2155.5469,330.2734 2155.2188,329.9609 2154.6406,329.9297 L2156.3594,327.8984 L2158.0781,329.9297 C2157.4844,329.9609 2157.1563,330.2734 2157.1563,330.7891 C2157.1563,331.3516 2157.5156,331.6328 2158.2656,331.6328 L2160.1563,331.6328 C2160.5156,331.6328 2160.7344,331.6016 2160.875,331.5078 C2161.125,331.3672 2161.2813,331.0703 2161.2813,330.7891 C2161.2813,330.2578 2160.9219,329.9453 2160.2813,329.9297 L2157.4375,326.5859 Z " fill="#000000"/><text fill="#000000" font-family="sans-serif" font-size="12" font-style="italic" lengthAdjust="spacing" textLength="72" x="2199.75" y="322.6387">«extension»</text><text fill="#000000" font-family="sans-serif" font-size="14" lengthAdjust="spacing" textLength="118" x="2176.75" y="338.4639">anInternalStruct</text><line style="stroke:#181818;stroke-width:0.5;" x1="2016" x2="2423" y1="346.7656" y2="346.7656"/><rect fill="none" height="6" style="stroke:#C82930;stroke-width:1.0;" width="6" x="2023" y="357.4141"/><text fill="#000000" font-family="sans-serif" font-size="14" lengthAdjust="spacing" textLength="383" x="2035" y="363.7607">anFileprivateExtensionComputedInstanceVar : String</text></g><!--reverse link aClass to anInternalSubClass--><g id="link_aClass_anInternalSubClass"><path codeLine="74" d="M1144.5,205.193 C1144.5,231.883 1144.5,259.388 1144.5,282.394 " fill="none" id="aClass-backto-anInternalSubClass" style="stroke:#181818;stroke-width:1.0;"/><polygon fill="none" points="1137.5,205.03,1144.5,185.03,1151.5,205.029,1137.5,205.03" style="stroke:#181818;stroke-width:1.0;"/><text fill="#000000" font-family="sans-serif" font-size="13" lengthAdjust="spacing" textLength="47" x="1145.5" y="228.0669">inherits</text></g><!--reverse link aPrivateGenericClass to aPrivateGenericSubClass--><g id="link_aPrivateGenericClass_aPrivateGenericSubClass"><path codeLine="75" d="M1480.5,144.293 C1480.5,194.027 1480.5,270.555 1480.5,310.922 " fill="none" id="aPrivateGenericClass-backto-aPrivateGenericSubClass" style="stroke:#181818;stroke-width:1.0;"/><polygon fill="none" points="1473.5,144.177,1480.5,124.177,1487.5,144.177,1473.5,144.177" style="stroke:#181818;stroke-width:1.0;"/><text fill="#000000" font-family="sans-serif" font-size="13" lengthAdjust="spacing" textLength="47" x="1481.5" y="228.0669">inherits</text></g><!--reverse link aProtocol to aPublicStruct--><g id="link_aProtocol_aPublicStruct"><path codeLine="76" d="M756.5,160.873 C756.5,191.779 756.5,229.117 756.5,261.529 " fill="none" id="aProtocol-backto-aPublicStruct" style="stroke:#181818;stroke-width:1.0;stroke-dasharray:7.0,7.0;"/><polygon fill="none" points="749.5,160.643,756.5,140.643,763.5,160.643,749.5,160.643" style="stroke:#181818;stroke-width:1.0;"/><text fill="#000000" font-family="sans-serif" font-size="13" lengthAdjust="spacing" textLength="78" x="757.5" y="228.0669">conforms to</text></g><!--reverse link aPublicStruct to aPublicStruct0--><g id="link_aPublicStruct_aPublicStruct0"><path codeLine="77" d="M678.001,419.923 C653.488,444.881 627.368,471.474 606.274,492.9498 " fill="none" id="aPublicStruct-backto-aPublicStruct0" style="stroke:#181818;stroke-width:1.0;stroke-dasharray:7.0,7.0;"/><polygon fill="#181818" points="681.605,416.253,672.4444,419.8701,678.101,419.8198,678.1513,425.4765,681.605,416.253" style="stroke:#181818;stroke-width:1.0;"/><text fill="#000000" font-family="sans-serif" font-size="13" lengthAdjust="spacing" textLength="21" x="649.5" y="459.0669">ext</text></g><!--reverse link aPublicStruct to aPublicStruct1--><g id="link_aPublicStruct_aPublicStruct1"><path codeLine="78" d="M834.593,419.923 C858.979,444.881 884.963,471.474 905.947,492.9498 " fill="none" id="aPublicStruct-backto-aPublicStruct1" style="stroke:#181818;stroke-width:1.0;stroke-dasharray:7.0,7.0;"/><polygon fill="#181818" points="831.007,416.253,834.4364,425.4855,834.5016,419.829,840.1581,419.8942,831.007,416.253" style="stroke:#181818;stroke-width:1.0;"/><text fill="#000000" font-family="sans-serif" font-size="13" lengthAdjust="spacing" textLength="21" x="876.5" y="459.0669">ext</text></g><!--reverse link anInternalStruct to anInternalStruct2--><g id="link_anInternalStruct_anInternalStruct2"><path codeLine="79" d="M1973.04,148.595 C1932.75,196.428 1874.08,266.079 1840.26,306.236 " fill="none" id="anInternalStruct-backto-anInternalStruct2" style="stroke:#181818;stroke-width:1.0;stroke-dasharray:7.0,7.0;"/><polygon fill="#181818" points="1976.39,144.614,1967.5358,148.9272,1973.1717,148.4406,1973.6583,154.0764,1976.39,144.614" style="stroke:#181818;stroke-width:1.0;"/><text fill="#000000" font-family="sans-serif" font-size="13" lengthAdjust="spacing" textLength="21" x="1916.5" y="228.0669">ext</text></g><!--reverse link anInternalStruct to anInternalStruct3--><g id="link_anInternalStruct_anInternalStruct3"><path codeLine="80" d="M2059.96,148.595 C2100.25,196.428 2158.92,266.079 2192.74,306.236 " fill="none" id="anInternalStruct-backto-anInternalStruct3" style="stroke:#181818;stroke-width:1.0;stroke-dasharray:7.0,7.0;"/><polygon fill="#181818" points="2056.61,144.614,2059.3417,154.0764,2059.8283,148.4406,2065.4642,148.9272,2056.61,144.614" style="stroke:#181818;stroke-width:1.0;"/><text fill="#000000" font-family="sans-serif" font-size="13" lengthAdjust="spacing" textLength="21" x="2131.5" y="228.0669">ext</text></g><!--SRC=[vLPTRvim57tdLrprfOcQL4tx5aMPkeH5bRgj2j4-D4sJ0pV52jZ8DkkYVlpsEXYOGqYXqlgqbs3kFJVdt6DpuHYynVThL_zUpXTEI0C4Z1ErWHZZ9Ghfo3Lb2H4a1XcIWDzHTWih4abqZlDIzzFKSHm_8bB24RaHN76VHqT099HtC1f1vwO7Cnu5oEOyw49IfCPZk0S7uAb4Np6f2FFn2n4m14y9JLeB-8Wgv44dqpSOPfVpOHUSnrBEP7irMh9b9cJIWoaHQm_9J22oRYdXX3AgEjtjYjoaouZw1wIStEkmeluZ42zRl8X-8koAAHICL5gRSbs66j7NhT7VHE5kNbUPPFNV5vj4GrSeKD_NoAqtfbbuiw5b9rwwjCpT2xStMbSSSjdE7MufecozuBegzPKkpwqmz-zgjTS9Rw6wOHzjgdmxBI8xygzfPiXGK7-VpKwCt0XZP6hSm8u69ZNXZxpavs7EtMDGdsl9tESgHA6VyQGy13kyrhRcR5Oa-skl1zvwypvAiGlIXCiJH_x3HzJogX9iikkD_R3aNZANfN4cqYmpQMuFhkbjg3o561c5kCsLsobfd4Gu8JBprjVNhrI5StBN-MLSt0sPO4rNkPrPjcfyWRKnri3WSP8g34pVkVRMv_KiQ_DR3puBNxzsTNj_5399EREEB7EBO45sS5B-XRO_A2yh73GhV9DNTflZUzv6MpltNajzqKpT9-m3ZJ0npqTh5SKNoaE_N_T27G9bUZvI9PswyPxNrK_WId7nKVPmUbgPeaFmELjn4KjGtAbCs2hwJCDrzqsmGG7Rcq5RvDxElW9yOS3F]--></g></svg>