<?xml version="1.0" encoding="UTF-8" standalone="no"?><svg xmlns="http://www.w3.org/2000/svg" xmlns:xlink="http://www.w3.org/1999/xlink" contentStyleType="text/css" height="403px" preserveAspectRatio="none" style="width:429px;height:403px;background:#0B58A8;" version="1.1" viewBox="0 0 429 403" width="429px" zoomAndPan="magnify"><defs/><g><rect fill="#0B58A8" height="403" style="stroke:none;stroke-width:1.0;" width="429" x="0" y="0"/><!--class aProtocol--><g id="elem_aProtocol"><rect codeLine="8" fill="#0B58A8" height="64.5625" id="aProtocol" rx="2.5" ry="2.5" style="stroke:#FFFFFF;stroke-width:1.0;" width="135" x="104" y="12"/><ellipse cx="134.1" cy="32.1328" fill="#DAA520" rx="9" ry="9" style="stroke:#FFFFFF;stroke-width:1.0;"/><path d="M133.6469,33.7266 L135.3188,33.7266 C136.8969,33.7266 137.7406,33.4453 138.4906,32.6172 C139.0375,32.0234 139.35,31.2109 139.35,30.4297 C139.35,28.5547 137.8188,27.2266 135.6469,27.2266 L131.6938,27.2266 C131.2563,27.2266 131.1313,27.2422 130.975,27.3359 C130.725,27.4922 130.5688,27.7891 130.5688,28.0703 C130.5688,28.3203 130.7094,28.6016 130.9281,28.7734 C131.0844,28.8828 131.2719,28.9141 131.6938,28.9141 L131.9438,28.9141 L131.9438,35.4297 L131.6938,35.4297 C131.2875,35.4297 131.1313,35.4453 130.975,35.5547 C130.725,35.7109 130.5688,35.9922 130.5688,36.2891 C130.5688,36.5391 130.7094,36.8047 130.9281,36.9609 C131.0688,37.0859 131.3031,37.1328 131.6938,37.1328 L135.3344,37.1328 C135.6781,37.1328 135.9281,37.0859 136.0375,37.0078 C136.3031,36.8672 136.4594,36.5703 136.4594,36.2891 C136.4594,36.0078 136.3188,35.7578 136.1,35.5859 C135.9281,35.4609 135.7875,35.4297 135.3344,35.4297 L133.6469,35.4297 L133.6469,33.7266 Z M133.6469,28.9141 L135.6469,28.9141 C136.8344,28.9141 137.5375,29.5234 137.5375,30.4922 C137.5375,31.4453 136.8344,32.0391 135.6469,32.0391 L133.6469,32.0391 L133.6469,28.9141 Z " fill="#FFFFFF"/><text fill="#FFFFFF" font-family="Verdana" font-size="12" font-style="italic" lengthAdjust="spacing" textLength="63" x="152.9" y="28.1387">«protocol»</text><text fill="#FFFFFF" font-family="Verdana" font-size="14" lengthAdjust="spacing" textLength="69" x="149.9" y="43.9639">aProtocol</text><line style="stroke:#FFFFFF;stroke-width:1.0;" x1="105" x2="238" y1="52.2656" y2="52.2656"/><polygon fill="#0B58A8" points="115,61.9141,111,67.9141,119,67.9141" style="stroke:#FFFFFF;stroke-width:1.0;"/><text fill="#FFFFFF" font-family="Verdana" font-size="14" lengthAdjust="spacing" textLength="111" x="122" y="69.2607">aProtFunction()</text></g><!--class aSublcass--><g id="elem_aSublcass"><rect codeLine="11" fill="#0B58A8" height="28" id="aSublcass" rx="2.5" ry="2.5" style="stroke:#FFFFFF;stroke-width:1.0;" width="97" x="12" y="338.5"/><ellipse cx="25" cy="352.5" fill="#8FBC8F" rx="9" ry="9" style="stroke:#FFFFFF;stroke-width:1.0;"/><path d="M27.3438,348.1719 C26.4063,347.7344 25.8125,347.5938 24.9375,347.5938 C22.3125,347.5938 20.3125,349.6719 20.3125,352.3906 L20.3125,353.5156 C20.3125,356.0938 22.4219,357.9844 25.3125,357.9844 C26.5313,357.9844 27.6875,357.6875 28.4375,357.1406 C29.0156,356.7344 29.3438,356.2813 29.3438,355.8906 C29.3438,355.4375 28.9531,355.0469 28.4844,355.0469 C28.2656,355.0469 28.0625,355.125 27.875,355.3125 C27.4219,355.7969 27.4219,355.7969 27.2344,355.8906 C26.8125,356.1563 26.125,356.2813 25.3594,356.2813 C23.3125,356.2813 22.0156,355.1875 22.0156,353.4844 L22.0156,352.3906 C22.0156,350.6094 23.2656,349.2969 25,349.2969 C25.5781,349.2969 26.1875,349.4531 26.6563,349.7031 C27.1406,349.9844 27.3125,350.2031 27.4063,350.6094 C27.4688,351.0156 27.5,351.1406 27.6406,351.2656 C27.7813,351.4063 28.0156,351.5156 28.2344,351.5156 C28.5,351.5156 28.7656,351.375 28.9375,351.1563 C29.0469,351 29.0781,350.8125 29.0781,350.3906 L29.0781,348.9688 C29.0781,348.5313 29.0625,348.4063 28.9688,348.25 C28.8125,347.9844 28.5313,347.8438 28.2344,347.8438 C27.9375,347.8438 27.7344,347.9375 27.5156,348.25 L27.3438,348.1719 Z " fill="#FFFFFF"/><text fill="#FFFFFF" font-family="Verdana" font-size="14" lengthAdjust="spacing" textLength="69" x="37" y="357.3467">aSublcass</text></g><!--class aClass--><g id="elem_aClass"><rect codeLine="13" fill="#0B58A8" height="76.5938" id="aClass" rx="2.5" ry="2.5" style="stroke:#FFFFFF;stroke-width:1.0;" width="219" x="62" y="154"/><ellipse cx="145.75" cy="168" fill="#8FBC8F" rx="9" ry="9" style="stroke:#FFFFFF;stroke-width:1.0;"/><path d="M148.0938,163.6719 C147.1563,163.2344 146.5625,163.0938 145.6875,163.0938 C143.0625,163.0938 141.0625,165.1719 141.0625,167.8906 L141.0625,169.0156 C141.0625,171.5938 143.1719,173.4844 146.0625,173.4844 C147.2813,173.4844 148.4375,173.1875 149.1875,172.6406 C149.7656,172.2344 150.0938,171.7813 150.0938,171.3906 C150.0938,170.9375 149.7031,170.5469 149.2344,170.5469 C149.0156,170.5469 148.8125,170.625 148.625,170.8125 C148.1719,171.2969 148.1719,171.2969 147.9844,171.3906 C147.5625,171.6563 146.875,171.7813 146.1094,171.7813 C144.0625,171.7813 142.7656,170.6875 142.7656,168.9844 L142.7656,167.8906 C142.7656,166.1094 144.0156,164.7969 145.75,164.7969 C146.3281,164.7969 146.9375,164.9531 147.4063,165.2031 C147.8906,165.4844 148.0625,165.7031 148.1563,166.1094 C148.2188,166.5156 148.25,166.6406 148.3906,166.7656 C148.5313,166.9063 148.7656,167.0156 148.9844,167.0156 C149.25,167.0156 149.5156,166.875 149.6875,166.6563 C149.7969,166.5 149.8281,166.3125 149.8281,165.8906 L149.8281,164.4688 C149.8281,164.0313 149.8125,163.9063 149.7188,163.75 C149.5625,163.4844 149.2813,163.3438 148.9844,163.3438 C148.6875,163.3438 148.4844,163.4375 148.2656,163.75 L148.0938,163.6719 Z " fill="#FFFFFF"/><text fill="#FFFFFF" font-family="Verdana" font-size="14" lengthAdjust="spacing" textLength="44" x="163.25" y="172.8467">aClass</text><line style="stroke:#FFFFFF;stroke-width:1.0;" x1="63" x2="280" y1="182" y2="182"/><polygon fill="none" points="73,191.6484,69,197.6484,77,197.6484" style="stroke:#FFFFFF;stroke-width:1.0;"/><text fill="#FFFFFF" font-family="Verdana" font-size="14" lengthAdjust="spacing" textLength="195" x="80" y="198.9951">computedProperty : String</text><line style="stroke:#FFFFFF;stroke-width:1.0;" x1="63" x2="280" y1="206.2969" y2="206.2969"/><polygon fill="#0B58A8" points="73,215.9453,69,221.9453,77,221.9453" style="stroke:#FFFFFF;stroke-width:1.0;"/><text fill="#FFFFFF" font-family="Verdana" font-size="14" lengthAdjust="spacing" textLength="80" x="80" y="223.292">aFunction()</text></g><!--class aClass0--><g id="elem_aClass0"><rect codeLine="17" fill="#0B58A8" height="88.8594" id="aClass0" rx="2.5" ry="2.5" style="stroke:#FFFFFF;stroke-width:1.0;" width="278" x="144.5" y="308"/><ellipse cx="245.75" cy="328.1328" fill="#DA70D6" rx="9" ry="9" style="stroke:#FFFFFF;stroke-width:1.0;"/><path d="M246.9375,328.0859 L249.6094,324.9141 C250.2031,324.8984 250.5781,324.6016 250.5781,324.0703 C250.5781,323.8047 250.4531,323.5391 250.2188,323.3672 C250.0469,323.2578 249.9063,323.2266 249.4531,323.2266 L247.9219,323.2266 C247.5469,323.2266 247.2813,323.2734 247.1406,323.3984 C246.9219,323.5391 246.7813,323.8203 246.7813,324.0703 C246.7813,324.4453 246.9531,324.6641 247.4375,324.8984 L245.8438,326.7578 L244.2344,324.8984 C244.7344,324.6641 244.875,324.4453 244.875,324.0703 C244.875,323.8047 244.75,323.5391 244.5313,323.3672 C244.3594,323.2578 244.2188,323.2266 243.7344,323.2266 L242.1875,323.2266 C242.0781,323.2266 242.0625,323.2266 241.8594,323.2578 C241.3594,323.3047 241.0781,323.6172 241.0781,324.0703 C241.0781,324.5859 241.4375,324.8828 242.0625,324.9141 L244.75,328.0703 L241.9219,331.4297 C241.2969,331.4297 240.9219,331.7578 240.9219,332.2891 C240.9219,332.5547 241.0625,332.8047 241.2813,332.9766 C241.4375,333.0859 241.6406,333.1328 242.0469,333.1328 L243.9219,333.1328 C244.2813,333.1328 244.5,333.1016 244.6406,333.0078 C244.8906,332.8672 245.0469,332.5703 245.0469,332.2891 C245.0469,331.7734 244.7188,331.4609 244.1406,331.4297 L245.8594,329.3984 L247.5781,331.4297 C246.9844,331.4609 246.6563,331.7734 246.6563,332.2891 C246.6563,332.8516 247.0156,333.1328 247.7656,333.1328 L249.6563,333.1328 C250.0156,333.1328 250.2344,333.1016 250.375,333.0078 C250.625,332.8672 250.7813,332.5703 250.7813,332.2891 C250.7813,331.7578 250.4219,331.4453 249.7813,331.4297 L246.9375,328.0859 Z " fill="#FFFFFF"/><text fill="#FFFFFF" font-family="Verdana" font-size="12" font-style="italic" lengthAdjust="spacing" textLength="72" x="261.25" y="324.1387">«extension»</text><text fill="#FFFFFF" font-family="Verdana" font-size="14" lengthAdjust="spacing" textLength="44" x="275.25" y="339.9639">aClass</text><line style="stroke:#FFFFFF;stroke-width:1.0;" x1="145.5" x2="421.5" y1="348.2656" y2="348.2656"/><polygon fill="none" points="155.5,357.9141,151.5,363.9141,159.5,363.9141" style="stroke:#FFFFFF;stroke-width:1.0;"/><text fill="#FFFFFF" font-family="Verdana" font-size="14" lengthAdjust="spacing" textLength="254" x="162.5" y="365.2607">anotherComputedProperty : String</text><line style="stroke:#FFFFFF;stroke-width:1.0;" x1="145.5" x2="421.5" y1="372.5625" y2="372.5625"/><rect fill="#0B58A8" height="6" style="stroke:#FFFFFF;stroke-width:1.0;" width="6" x="152.5" y="383.2109"/><text fill="#FFFFFF" font-family="Verdana" font-size="14" lengthAdjust="spacing" textLength="129" x="162.5" y="389.5576">anotherFunction()</text></g><!--reverse link aClass to aSublcass--><g id="link_aClass_aSublcass"><path codeLine="21" d="M133.221,247.987 C110.5901,280.201 83.718,318.451 69.8376,338.2087 " fill="none" id="aClass-backto-aSublcass" style="stroke:#FFFFFF;stroke-width:1.0;"/><polygon fill="none" points="127.688,243.686,144.913,231.345,139.143,251.734,127.688,243.686" style="stroke:#FFFFFF;stroke-width:1.0;"/><text fill="#FFFFFF" font-family="Verdana" font-size="13" lengthAdjust="spacing" textLength="47" x="124.5" y="274.0669">inherits</text></g><!--reverse link aProtocol to aClass--><g id="link_aProtocol_aClass"><path codeLine="22" d="M171.5,97.453 C171.5,116.099 171.5,136.747 171.5,153.935 " fill="none" id="aProtocol-backto-aClass" style="stroke:#FFFFFF;stroke-width:1.0;stroke-dasharray:7.0,7.0;"/><polygon fill="none" points="164.5,97.18,171.5,77.18,178.5,97.18,164.5,97.18" style="stroke:#FFFFFF;stroke-width:1.0;"/><text fill="#FFFFFF" font-family="Verdana" font-size="13" lengthAdjust="spacing" textLength="73" x="172.5" y="120.0669">confirms to</text></g><!--reverse link aClass to aClass0--><g id="link_aClass_aClass0"><path codeLine="23" d="M201.239,235.453 C217.07,257.786 236.52,285.224 252.532,307.8126 " fill="none" id="aClass-backto-aClass0" style="stroke:#FFFFFF;stroke-width:1.0;stroke-dasharray:7.0,7.0;"/><polygon fill="#FFFFFF" points="198.327,231.345,200.2689,241.0005,201.2187,235.424,206.7953,236.3738,198.327,231.345" style="stroke:#FFFFFF;stroke-width:1.0;"/><text fill="#FFFFFF" font-family="Verdana" font-size="13" lengthAdjust="spacing" textLength="21" x="232.5" y="274.0669">ext</text></g><!--SRC=[VL3FQy8m5Bxdh_ZcHGkjU2uY37LUnYRMmtQCwTC6cwGaATkOsz- -hDfIn_0INdZVh_SDaMrV7vVXlTziMI5p0gdAVq2Hsf5rp1sbhhZb2gxWkNcJ-e0zBnsnuOMwV5emTkSBKWIkv84p9ahk70PyROqtmfG3S8VkX-aKetMCbIbpqXkJHwZQrMo6Jp3Wkq4_r5fuQVGe0llgLBDwLuemdbNRNwCwZx7WzfWHNraY7Ptr-kHvsJ6RyGRjDuOmggezvI5DHJRqaYBpDfJGPFm_tr-BIUFn4kFPYj1m17htf5tWzSxL9ZHevpViaWlcshIzufGalIvII1sWqZlMg_qq7hTNfn16xwLL3jvq8jr-4W0XvGy0]--></g></svg>