<?xml version="1.0" encoding="UTF-8" standalone="no"?><svg xmlns="http://www.w3.org/2000/svg" xmlns:xlink="http://www.w3.org/1999/xlink" contentStyleType="text/css" height="616px" preserveAspectRatio="none" style="width:395px;height:616px;" version="1.1" viewBox="0 0 395 616" width="395px" zoomAndPan="magnify"><defs><linearGradient id="g1rngxvgi1s90e0" x1="50%" x2="50%" y1="0%" y2="100%"><stop offset="0%" stop-color="#F4F4F4"/><stop offset="100%" stop-color="#F4F4F4"/></linearGradient></defs><g><!--class aProtocol--><g id="elem_aProtocol"><rect codeLine="8" fill="url(#g1rngxvgi1s90e0)" height="114.0859" id="aProtocol" style="stroke:#C6C6C6;stroke-width:1.0;" width="128" x="100.5" y="7"/><rect fill="url(#g1rngxvgi1s90e0)" height="73.2813" style="stroke:#C6C6C6;stroke-width:1.0;" width="128" x="100.5" y="7"/><ellipse cx="126.65" cy="43.6406" fill="#DAA520" rx="10" ry="10" style="stroke:#181818;stroke-width:1.0;"/><path d="M126.4781,44.7344 L127.65,44.7344 C128.775,44.7344 129.3688,44.5313 129.9,43.9531 C130.275,43.5313 130.4938,42.9688 130.4938,42.4063 C130.4938,41.0781 129.4156,40.1406 127.9,40.1406 L125.1031,40.1406 C124.7906,40.1406 124.6969,40.1563 124.5875,40.2344 C124.4156,40.3438 124.3063,40.5469 124.3063,40.75 C124.3063,40.9219 124.4,41.1094 124.5563,41.2344 C124.6656,41.3281 124.7906,41.3438 125.1031,41.3438 L125.275,41.3438 L125.275,45.9375 L125.1031,45.9375 C124.8063,45.9375 124.6969,45.9531 124.5875,46.0313 C124.4156,46.125 124.3063,46.3438 124.3063,46.5469 C124.3063,46.7188 124.4,46.9063 124.5563,47.0156 C124.65,47.1094 124.8219,47.1406 125.1031,47.1406 L127.6656,47.1406 C127.9,47.1406 128.0875,47.1094 128.1656,47.0625 C128.3531,46.9531 128.4625,46.75 128.4625,46.5469 C128.4625,46.3438 128.3688,46.1719 128.2125,46.0469 C128.0875,45.9688 127.9938,45.9375 127.6656,45.9375 L126.4781,45.9375 L126.4781,44.7344 Z M126.4781,41.3438 L127.9,41.3438 C128.7281,41.3438 129.2281,41.7656 129.2281,42.4531 C129.2281,43.125 128.7281,43.5469 127.9,43.5469 L126.4781,43.5469 L126.4781,41.3438 Z " fill="#000000"/><text fill="#262626" font-family="IBM Plex Sans, Noto Sans, Verdana" font-size="9" font-style="italic" lengthAdjust="spacing" textLength="52" x="151.85" y="30.354">«protocol»</text><text fill="#262626" font-family="IBM Plex Sans, Noto Sans, Verdana" font-size="11" lengthAdjust="spacing" textLength="51" x="152.35" y="62.687">aProtocol</text><line style="stroke:#C6C6C6;stroke-width:1.0;" x1="101.5" x2="227.5" y1="80.2813" y2="80.2813"/><polygon fill="#FFFFFF" points="111.5,98.1836,107.5,104.1836,115.5,104.1836" style="stroke:#C6C6C6;stroke-width:1.0;"/><text fill="#262626" font-family="IBM Plex Sans, Noto Sans, Verdana" font-size="11" lengthAdjust="spacing" textLength="83" x="129.5" y="104.4917">aProtFunction()</text></g><!--class aSublcass--><g id="elem_aSublcass"><rect codeLine="11" fill="url(#g1rngxvgi1s90e0)" height="62.8047" id="aSublcass" style="stroke:#C6C6C6;stroke-width:1.0;" width="107" x="7" y="501"/><rect fill="url(#g1rngxvgi1s90e0)" height="62.8047" style="stroke:#C6C6C6;stroke-width:1.0;" width="107" x="7" y="501"/><ellipse cx="21" cy="532.4023" fill="#8FBC8F" rx="10" ry="10" style="stroke:#181818;stroke-width:1.0;"/><path d="M22.8594,529.1523 C22.2031,528.8398 21.7813,528.7461 21.1563,528.7461 C19.3125,528.7461 17.8906,530.1992 17.8906,532.1211 L17.8906,532.918 C17.8906,534.7461 19.3906,536.0742 21.4219,536.0742 C22.2813,536.0742 23.1094,535.8555 23.625,535.4648 C24.0469,535.1836 24.2656,534.8711 24.2656,534.5898 C24.2656,534.2773 23.9844,533.9961 23.6719,533.9961 C23.5156,533.9961 23.375,534.0586 23.2344,534.1836 C22.9063,534.5273 22.9063,534.5273 22.7813,534.5898 C22.4844,534.7773 22,534.8711 21.4531,534.8711 C20.0156,534.8711 19.0938,534.0898 19.0938,532.8867 L19.0938,532.1211 C19.0938,530.8555 19.9844,529.9336 21.2031,529.9336 C21.6094,529.9336 22.0469,530.043 22.375,530.2305 C22.7188,530.418 22.8438,530.5742 22.9063,530.8555 C22.9531,531.1523 22.9688,531.2305 23.0625,531.3242 C23.1563,531.4336 23.3281,531.4961 23.4844,531.4961 C23.6875,531.4961 23.8594,531.4023 23.9844,531.2461 C24.0625,531.1367 24.0938,531.0117 24.0938,530.6992 L24.0938,529.6992 C24.0938,529.4023 24.0781,529.3086 24,529.1992 C23.8906,529.0117 23.7031,528.9023 23.4844,528.9023 C23.2813,528.9023 23.1406,528.9805 22.9844,529.1992 L22.8594,529.1523 Z " fill="#000000"/><text fill="#262626" font-family="IBM Plex Sans, Noto Sans, Verdana" font-size="11" lengthAdjust="spacing" textLength="57" x="44" y="546.2104">aSublcass</text></g><!--class aClass--><g id="elem_aClass"><rect codeLine="13" fill="url(#g1rngxvgi1s90e0)" height="144.4141" id="aClass" style="stroke:#C6C6C6;stroke-width:1.0;" width="193" x="68" y="216"/><rect fill="url(#g1rngxvgi1s90e0)" height="62.8047" style="stroke:#C6C6C6;stroke-width:1.0;" width="193" x="68" y="216"/><ellipse cx="132" cy="247.4023" fill="#8FBC8F" rx="10" ry="10" style="stroke:#181818;stroke-width:1.0;"/><path d="M133.8594,244.1523 C133.2031,243.8398 132.7813,243.7461 132.1563,243.7461 C130.3125,243.7461 128.8906,245.1992 128.8906,247.1211 L128.8906,247.918 C128.8906,249.7461 130.3906,251.0742 132.4219,251.0742 C133.2813,251.0742 134.1094,250.8555 134.625,250.4648 C135.0469,250.1836 135.2656,249.8711 135.2656,249.5898 C135.2656,249.2773 134.9844,248.9961 134.6719,248.9961 C134.5156,248.9961 134.375,249.0586 134.2344,249.1836 C133.9063,249.5273 133.9063,249.5273 133.7813,249.5898 C133.4844,249.7773 133,249.8711 132.4531,249.8711 C131.0156,249.8711 130.0938,249.0898 130.0938,247.8867 L130.0938,247.1211 C130.0938,245.8555 130.9844,244.9336 132.2031,244.9336 C132.6094,244.9336 133.0469,245.043 133.375,245.2305 C133.7188,245.418 133.8438,245.5742 133.9063,245.8555 C133.9531,246.1523 133.9688,246.2305 134.0625,246.3242 C134.1563,246.4336 134.3281,246.4961 134.4844,246.4961 C134.6875,246.4961 134.8594,246.4023 134.9844,246.2461 C135.0625,246.1367 135.0938,246.0117 135.0938,245.6992 L135.0938,244.6992 C135.0938,244.4023 135.0781,244.3086 135,244.1992 C134.8906,244.0117 134.7031,243.9023 134.4844,243.9023 C134.2813,243.9023 134.1406,243.9805 133.9844,244.1992 L133.8594,244.1523 Z " fill="#000000"/><text fill="#262626" font-family="IBM Plex Sans, Noto Sans, Verdana" font-size="11" lengthAdjust="spacing" textLength="37" x="161" y="261.2104">aClass</text><line style="stroke:#C6C6C6;stroke-width:1.0;" x1="69" x2="260" y1="278.8047" y2="278.8047"/><polygon fill="none" points="79,296.707,75,302.707,83,302.707" style="stroke:#C6C6C6;stroke-width:1.0;"/><text fill="#262626" font-family="IBM Plex Sans, Noto Sans, Verdana" font-size="11" lengthAdjust="spacing" textLength="148" x="97" y="303.0151">computedProperty : String</text><line style="stroke:#C6C6C6;stroke-width:1.0;" x1="69" x2="260" y1="319.6094" y2="319.6094"/><polygon fill="#FFFFFF" points="79,337.5117,75,343.5117,83,343.5117" style="stroke:#C6C6C6;stroke-width:1.0;"/><text fill="#262626" font-family="IBM Plex Sans, Noto Sans, Verdana" font-size="11" lengthAdjust="spacing" textLength="62" x="97" y="343.8198">aFunction()</text></g><!--class aClass0--><g id="elem_aClass0"><rect codeLine="17" fill="url(#g1rngxvgi1s90e0)" height="154.8906" id="aClass0" style="stroke:#C6C6C6;stroke-width:1.0;" width="239" x="149" y="455"/><rect fill="url(#g1rngxvgi1s90e0)" height="73.2813" style="stroke:#C6C6C6;stroke-width:1.0;" width="239" x="149" y="455"/><ellipse cx="227" cy="491.6406" fill="#DA70D6" rx="10" ry="10" style="stroke:#181818;stroke-width:1.0;"/><path d="M227.875,491.5781 L229.75,489.3438 C230.1719,489.3281 230.4375,489.1094 230.4375,488.75 C230.4375,488.5469 230.3594,488.375 230.1875,488.25 C230.0625,488.1719 229.9688,488.1406 229.6406,488.1406 L228.5625,488.1406 C228.2969,488.1406 228.1094,488.1875 228.0156,488.2656 C227.8594,488.375 227.7656,488.5625 227.7656,488.75 C227.7656,489.0156 227.875,489.1719 228.2188,489.3281 L227.0938,490.6406 L225.9531,489.3281 C226.3125,489.1719 226.4219,489.0156 226.4219,488.75 C226.4219,488.5469 226.3125,488.375 226.1563,488.25 C226.0469,488.1719 225.9531,488.1406 225.6094,488.1406 L224.5156,488.1406 C224.4375,488.1406 224.4219,488.1406 224.2813,488.1719 C223.9375,488.2031 223.7344,488.4219 223.7344,488.75 C223.7344,489.1094 223.9844,489.3281 224.4219,489.3438 L226.3125,491.5625 L224.3281,493.9375 C223.8906,493.9375 223.625,494.1719 223.625,494.5469 C223.625,494.7344 223.7188,494.9063 223.875,495.0313 C223.9844,495.1094 224.125,495.1406 224.4063,495.1406 L225.75,495.1406 C226,495.1406 226.1563,495.1094 226.25,495.0625 C226.4219,494.9531 226.5313,494.75 226.5313,494.5469 C226.5313,494.1875 226.2969,493.9688 225.8906,493.9375 L227.1094,492.5 L228.3281,493.9375 C227.9063,493.9688 227.6563,494.1875 227.6563,494.5469 C227.6563,494.9375 227.9219,495.1406 228.4531,495.1406 L229.7813,495.1406 C230.0469,495.1406 230.2031,495.1094 230.2969,495.0625 C230.4688,494.9531 230.5781,494.75 230.5781,494.5469 C230.5781,494.1719 230.3281,493.9531 229.875,493.9375 L227.875,491.5781 Z " fill="#000000"/><text fill="#262626" font-family="IBM Plex Sans, Noto Sans, Verdana" font-size="9" font-style="italic" lengthAdjust="spacing" textLength="59" x="254" y="478.354">«extension»</text><text fill="#262626" font-family="IBM Plex Sans, Noto Sans, Verdana" font-size="11" lengthAdjust="spacing" textLength="37" x="265" y="510.687">aClass</text><line style="stroke:#C6C6C6;stroke-width:1.0;" x1="150" x2="387" y1="528.2813" y2="528.2813"/><polygon fill="none" points="160,546.1836,156,552.1836,164,552.1836" style="stroke:#C6C6C6;stroke-width:1.0;"/><text fill="#262626" font-family="IBM Plex Sans, Noto Sans, Verdana" font-size="11" lengthAdjust="spacing" textLength="194" x="178" y="552.4917">anotherComputedProperty : String</text><line style="stroke:#C6C6C6;stroke-width:1.0;" x1="150" x2="387" y1="569.0859" y2="569.0859"/><rect fill="#F24D5C" height="6" style="stroke:#C82930;stroke-width:1.0;" width="6" x="157" y="587.9883"/><text fill="#262626" font-family="IBM Plex Sans, Noto Sans, Verdana" font-size="11" lengthAdjust="spacing" textLength="99" x="178" y="593.2964">anotherFunction()</text></g><!--reverse link aClass to aSublcass--><g id="link_aClass_aSublcass"><path codeLine="21" d="M126.033,378.694 C107.657,421.543 86.8574,470.042 73.715,500.686 " fill="none" id="aClass-backto-aSublcass" style="stroke:#C6C6C6;stroke-width:1.0;"/><polygon fill="none" points="119.683,375.741,133.999,360.119,132.55,381.259,119.683,375.741" style="stroke:#C6C6C6;stroke-width:1.0;"/><text fill="#262626" font-family="IBM Plex Sans, Noto Sans, Verdana" font-size="12" lengthAdjust="spacing" textLength="44" x="130.5" y="412.1387">inherits</text></g><!--reverse link aProtocol to aClass--><g id="link_aProtocol_aClass"><path codeLine="22" d="M164.5,141.095 C164.5,165.309 164.5,191.99 164.5,215.842 " fill="none" id="aProtocol-backto-aClass" style="stroke:#C6C6C6;stroke-width:1.0;stroke-dasharray:7.0,7.0;"/><polygon fill="none" points="157.5,141.02,164.5,121.02,171.5,141.02,157.5,141.02" style="stroke:#C6C6C6;stroke-width:1.0;"/><text fill="#262626" font-family="IBM Plex Sans, Noto Sans, Verdana" font-size="12" lengthAdjust="spacing" textLength="68" x="175.5" y="173.1387">confirms to</text></g><!--reverse link aClass to aClass0--><g id="link_aClass_aClass0"><path codeLine="23" d="M197.113,365.046 C209.387,393.665 223.343,426.207 235.64,454.879 " fill="none" id="aClass-backto-aClass0" style="stroke:#C6C6C6;stroke-width:1.0;stroke-dasharray:7.0,7.0;"/><polygon fill="#C6C6C6" points="195.001,360.119,194.8704,369.967,196.9709,364.7146,202.2234,366.8151,195.001,360.119" style="stroke:#C6C6C6;stroke-width:1.0;"/><text fill="#262626" font-family="IBM Plex Sans, Noto Sans, Verdana" font-size="12" lengthAdjust="spacing" textLength="19" x="233.5" y="412.1387">ext</text></g><!--SRC=[VL3FQy8m5Bxdh_ZcHGkjU1OHHdLUnYRMmtPCqwSDDab98flCxMzVLctfnl0INdZVh_SDaMrV7vVXlTziMIaB0gdQdw18vMGTSmUfQswvWYjvOTwatcF7AqTiUAKkdnQCtVcI545mcnkTx2q_CIOgxXm6V6sDDy9K0t27xeVP3ADrZ9Mf2j8RKqIeszLyZWymuAj1FnoryDBeKGJssQbcnxmIORoejhz6DOsnuFQG4LzP8XrTzFhajEgOpNY3zXD365KVFHKXJKqsj3D5vcseeiduVxw_5fF6uoN6inMXvmZqxacxmEkTgqteqQOtx98hvhTfUyKvINfTJ25rW4hlMA_sytZSNZs5C7edhNBmfXFfzfC022c_0G00]--></g></svg>