<?xml version="1.0" encoding="UTF-8" standalone="no"?><svg xmlns="http://www.w3.org/2000/svg" xmlns:xlink="http://www.w3.org/1999/xlink" contentStyleType="text/css" height="514.5833px" preserveAspectRatio="none" style="width:390px;height:514px;" version="1.1" viewBox="0 0 390 514" width="390.625px" zoomAndPan="magnify"><defs><linearGradient id="gww17cdtnfce60" x1="50%" x2="50%" y1="0%" y2="100%"><stop offset="0%" stop-color="#1388F5"/><stop offset="100%" stop-color="#0972D3"/></linearGradient></defs><g><!--class aProtocol--><g id="elem_aProtocol"><rect codeLine="8" fill="url(#gww17cdtnfce60)" height="91.2272" id="aProtocol" rx="4.1667" ry="4.1667" style="stroke:#0972D3;stroke-width:1.0416666666666667;" width="122.9167" x="99.4792" y="7.2917"/><rect fill="url(#gww17cdtnfce60)" height="59.139" rx="4.1667" ry="4.1667" style="stroke:url(#gww17cdtnfce60);stroke-width:1.0416666666666667;" width="122.9167" x="99.4792" y="7.2917"/><rect fill="url(#gww17cdtnfce60)" height="4.1667" style="stroke:url(#gww17cdtnfce60);stroke-width:1.0416666666666667;" width="122.9167" x="99.4792" y="62.264"/><rect codeLine="8" fill="none" height="91.2272" id="aProtocol" rx="4.1667" ry="4.1667" style="stroke:#0972D3;stroke-width:1.0416666666666667;" width="122.9167" x="99.4792" y="7.2917"/><ellipse cx="122.9688" cy="36.8612" fill="#DAA520" rx="10.4167" ry="10.4167" style="stroke:#181818;stroke-width:1.0416666666666667;"/><path d="M122.7897,38.0005 L124.0104,38.0005 C125.1823,38.0005 125.8008,37.7889 126.3542,37.1867 C126.7448,36.7472 126.9727,36.1613 126.9727,35.5754 C126.9727,34.1919 125.8496,33.2153 124.2708,33.2153 L121.3574,33.2153 C121.0319,33.2153 120.9342,33.2316 120.8203,33.313 C120.6413,33.4269 120.5273,33.6385 120.5273,33.8501 C120.5273,34.0291 120.625,34.2244 120.7878,34.3547 C120.9017,34.4523 121.0319,34.4686 121.3574,34.4686 L121.5365,34.4686 L121.5365,39.2537 L121.3574,39.2537 C121.0482,39.2537 120.9342,39.27 120.8203,39.3514 C120.6413,39.4491 120.5273,39.6769 120.5273,39.8885 C120.5273,40.0675 120.625,40.2629 120.7878,40.3768 C120.8854,40.4744 121.0645,40.507 121.3574,40.507 L124.0267,40.507 C124.2708,40.507 124.4661,40.4744 124.5475,40.4256 C124.7428,40.3117 124.8568,40.1001 124.8568,39.8885 C124.8568,39.6769 124.7591,39.4979 124.5964,39.3677 C124.4661,39.2863 124.3685,39.2537 124.0267,39.2537 L122.7897,39.2537 L122.7897,38.0005 Z M122.7897,34.4686 L124.2708,34.4686 C125.1335,34.4686 125.6543,34.908 125.6543,35.6242 C125.6543,36.3241 125.1335,36.7635 124.2708,36.7635 L122.7897,36.7635 L122.7897,34.4686 Z " fill="#000000"/><text fill="#000716" font-family="Verdana" font-size="12.5" font-style="italic" lengthAdjust="spacing" textLength="65.625" x="141.6146" y="29.3111">«protocol»</text><text fill="#D1D5DB" font-family="&quot;Verdana&quot;" font-size="11.4583" lengthAdjust="spacing" textLength="53.125" x="147.8646" y="53.3117">aProtocol</text><line style="stroke:#0972D3;stroke-width:1.0416666666666667;" x1="100.5208" x2="221.3542" y1="66.4307" y2="66.4307"/><polygon fill="none" points="110.9375,79.8706,106.7708,86.1206,115.1042,86.1206" style="stroke:#000716;stroke-width:1.0416666666666667;"/><text fill="#D1D5DB" font-family="&quot;Verdana&quot;" font-size="11.4583" lengthAdjust="spacing" textLength="86.4583" x="124.4792" y="86.4415">aProtFunction()</text></g><!--class aSublcass--><g id="elem_aSublcass"><rect codeLine="11" fill="url(#gww17cdtnfce60)" height="44.5882" id="aSublcass" rx="4.1667" ry="4.1667" style="stroke:#0972D3;stroke-width:1.0416666666666667;" width="101.0417" x="7.2917" y="423.4375"/><rect fill="url(#gww17cdtnfce60)" height="44.5882" rx="4.1667" ry="4.1667" style="stroke:url(#gww17cdtnfce60);stroke-width:1.0416666666666667;" width="101.0417" x="7.2917" y="423.4375"/><rect fill="url(#gww17cdtnfce60)" height="4.1667" style="stroke:url(#gww17cdtnfce60);stroke-width:1.0416666666666667;" width="101.0417" x="7.2917" y="463.859"/><rect codeLine="11" fill="none" height="44.5882" id="aSublcass" rx="4.1667" ry="4.1667" style="stroke:#0972D3;stroke-width:1.0416666666666667;" width="101.0417" x="7.2917" y="423.4375"/><ellipse cx="21.875" cy="445.7316" fill="#8FBC8F" rx="10.4167" ry="10.4167" style="stroke:#181818;stroke-width:1.0416666666666667;"/><path d="M23.8118,442.3462 C23.1283,442.0207 22.6888,441.923 22.0378,441.923 C20.1172,441.923 18.6361,443.4367 18.6361,445.4386 L18.6361,446.2687 C18.6361,448.173 20.1986,449.5565 22.3145,449.5565 C23.2096,449.5565 24.0723,449.3286 24.6094,448.9217 C25.0488,448.6287 25.2767,448.3032 25.2767,448.0103 C25.2767,447.6847 24.9837,447.3918 24.6582,447.3918 C24.4954,447.3918 24.349,447.4569 24.2025,447.5871 C23.8607,447.9451 23.8607,447.9451 23.7305,448.0103 C23.4212,448.2056 22.9167,448.3032 22.347,448.3032 C20.8496,448.3032 19.8893,447.4894 19.8893,446.2362 L19.8893,445.4386 C19.8893,444.1203 20.8171,443.16 22.0866,443.16 C22.5098,443.16 22.9655,443.2739 23.3073,443.4692 C23.6654,443.6646 23.7956,443.8273 23.8607,444.1203 C23.9095,444.4295 23.9258,444.5109 24.0234,444.6086 C24.1211,444.7225 24.3001,444.7876 24.4629,444.7876 C24.6745,444.7876 24.8535,444.6899 24.9837,444.5272 C25.0651,444.4132 25.0977,444.283 25.0977,443.9575 L25.0977,442.9159 C25.0977,442.6066 25.0814,442.509 25,442.395 C24.8861,442.1997 24.6908,442.0858 24.4629,442.0858 C24.2513,442.0858 24.1048,442.1672 23.9421,442.395 L23.8118,442.3462 Z " fill="#000000"/><text fill="#D1D5DB" font-family="&quot;Verdana&quot;" font-size="11.4583" lengthAdjust="spacing" textLength="59.375" x="40.625" y="454.9067">aSublcass</text></g><!--class aClass--><g id="elem_aClass"><rect codeLine="13" fill="url(#gww17cdtnfce60)" height="108.7646" id="aClass" rx="4.1667" ry="4.1667" style="stroke:#0972D3;stroke-width:1.0416666666666667;" width="190.625" x="65.625" y="187.5"/><rect fill="url(#gww17cdtnfce60)" height="44.5882" rx="4.1667" ry="4.1667" style="stroke:url(#gww17cdtnfce60);stroke-width:1.0416666666666667;" width="190.625" x="65.625" y="187.5"/><rect fill="url(#gww17cdtnfce60)" height="4.1667" style="stroke:url(#gww17cdtnfce60);stroke-width:1.0416666666666667;" width="190.625" x="65.625" y="227.9215"/><rect codeLine="13" fill="none" height="108.7646" id="aClass" rx="4.1667" ry="4.1667" style="stroke:#0972D3;stroke-width:1.0416666666666667;" width="190.625" x="65.625" y="187.5"/><ellipse cx="132.2917" cy="209.7941" fill="#8FBC8F" rx="10.4167" ry="10.4167" style="stroke:#181818;stroke-width:1.0416666666666667;"/><path d="M134.2285,206.4087 C133.5449,206.0832 133.1055,205.9855 132.4544,205.9855 C130.5339,205.9855 129.0527,207.4992 129.0527,209.5011 L129.0527,210.3312 C129.0527,212.2355 130.6152,213.619 132.7311,213.619 C133.6263,213.619 134.4889,213.3911 135.026,212.9842 C135.4655,212.6912 135.6934,212.3657 135.6934,212.0728 C135.6934,211.7472 135.4004,211.4543 135.0749,211.4543 C134.9121,211.4543 134.7656,211.5194 134.6191,211.6496 C134.2773,212.0076 134.2773,212.0076 134.1471,212.0728 C133.8379,212.2681 133.3333,212.3657 132.7637,212.3657 C131.2663,212.3657 130.306,211.5519 130.306,210.2987 L130.306,209.5011 C130.306,208.1828 131.2337,207.2225 132.5033,207.2225 C132.9264,207.2225 133.3822,207.3364 133.724,207.5317 C134.082,207.7271 134.2122,207.8898 134.2773,208.1828 C134.3262,208.492 134.3424,208.5734 134.4401,208.6711 C134.5378,208.785 134.7168,208.8501 134.8796,208.8501 C135.0911,208.8501 135.2702,208.7524 135.4004,208.5897 C135.4818,208.4757 135.5143,208.3455 135.5143,208.02 L135.5143,206.9784 C135.5143,206.6691 135.498,206.5715 135.4167,206.4575 C135.3027,206.2622 135.1074,206.1483 134.8796,206.1483 C134.668,206.1483 134.5215,206.2297 134.3587,206.4575 L134.2285,206.4087 Z " fill="#000000"/><text fill="#D1D5DB" font-family="&quot;Verdana&quot;" font-size="11.4583" lengthAdjust="spacing" textLength="38.5417" x="157.2917" y="218.9692">aClass</text><line style="stroke:#0972D3;stroke-width:1.0416666666666667;" x1="66.6667" x2="255.2083" y1="232.0882" y2="232.0882"/><polygon fill="none" points="77.0833,245.5282,72.9167,251.7782,81.25,251.7782" style="stroke:#000716;stroke-width:1.0416666666666667;"/><text fill="#D1D5DB" font-family="&quot;Verdana&quot;" font-size="11.4583" lengthAdjust="spacing" textLength="154.1667" x="90.625" y="252.0991">computedProperty : String</text><line style="stroke:#0972D3;stroke-width:1.0416666666666667;" x1="66.6667" x2="255.2083" y1="264.1764" y2="264.1764"/><polygon fill="none" points="77.0833,277.6164,72.9167,283.8664,81.25,283.8664" style="stroke:#000716;stroke-width:1.0416666666666667;"/><text fill="#D1D5DB" font-family="&quot;Verdana&quot;" font-size="11.4583" lengthAdjust="spacing" textLength="64.5833" x="90.625" y="284.1873">aFunction()</text></g><!--class aClass0--><g id="elem_aClass0"><rect codeLine="17" fill="url(#gww17cdtnfce60)" height="123.3154" id="aClass0" rx="4.1667" ry="4.1667" style="stroke:#0972D3;stroke-width:1.0416666666666667;" width="238.5417" x="144.7917" y="384.375"/><rect fill="url(#gww17cdtnfce60)" height="59.139" rx="4.1667" ry="4.1667" style="stroke:url(#gww17cdtnfce60);stroke-width:1.0416666666666667;" width="238.5417" x="144.7917" y="384.375"/><rect fill="url(#gww17cdtnfce60)" height="4.1667" style="stroke:url(#gww17cdtnfce60);stroke-width:1.0416666666666667;" width="238.5417" x="144.7917" y="439.3473"/><rect codeLine="17" fill="none" height="123.3154" id="aClass0" rx="4.1667" ry="4.1667" style="stroke:#0972D3;stroke-width:1.0416666666666667;" width="238.5417" x="144.7917" y="384.375"/><ellipse cx="219.2708" cy="413.9445" fill="#DA70D6" rx="10.4167" ry="10.4167" style="stroke:#181818;stroke-width:1.0416666666666667;"/><path d="M220.1823,413.8794 L222.1354,411.5519 C222.5749,411.5356 222.8516,411.3078 222.8516,410.9334 C222.8516,410.7218 222.7702,410.5428 222.5911,410.4126 C222.4609,410.3312 222.3633,410.2987 222.0215,410.2987 L220.8984,410.2987 C220.6217,410.2987 220.4264,410.3475 220.3288,410.4289 C220.166,410.5428 220.0684,410.7381 220.0684,410.9334 C220.0684,411.2101 220.1823,411.3729 220.5404,411.5356 L219.3685,412.9028 L218.1803,411.5356 C218.5547,411.3729 218.6686,411.2101 218.6686,410.9334 C218.6686,410.7218 218.5547,410.5428 218.3919,410.4126 C218.278,410.3312 218.1803,410.2987 217.8223,410.2987 L216.6829,410.2987 C216.6016,410.2987 216.5853,410.2987 216.4388,410.3312 C216.0807,410.3638 215.8691,410.5916 215.8691,410.9334 C215.8691,411.3078 216.1296,411.5356 216.5853,411.5519 L218.5547,413.8631 L216.4876,416.3371 C216.0319,416.3371 215.7552,416.5812 215.7552,416.9718 C215.7552,417.1672 215.8529,417.3462 216.0156,417.4764 C216.1296,417.5578 216.276,417.5903 216.569,417.5903 L217.9688,417.5903 C218.2292,417.5903 218.3919,417.5578 218.4896,417.509 C218.6686,417.395 218.7826,417.1834 218.7826,416.9718 C218.7826,416.5975 218.5384,416.3696 218.1152,416.3371 L219.3848,414.8397 L220.6543,416.3371 C220.2148,416.3696 219.9544,416.5975 219.9544,416.9718 C219.9544,417.3787 220.2311,417.5903 220.7845,417.5903 L222.168,417.5903 C222.4447,417.5903 222.6074,417.5578 222.7051,417.509 C222.8841,417.395 222.998,417.1834 222.998,416.9718 C222.998,416.5812 222.7376,416.3534 222.2656,416.3371 L220.1823,413.8794 Z " fill="#000000"/><text fill="#000716" font-family="Verdana" font-size="12.5" font-style="italic" lengthAdjust="spacing" textLength="75" x="242.1875" y="406.3944">«extension»</text><text fill="#D1D5DB" font-family="&quot;Verdana&quot;" font-size="11.4583" lengthAdjust="spacing" textLength="38.5417" x="260.4167" y="430.395">aClass</text><line style="stroke:#0972D3;stroke-width:1.0416666666666667;" x1="145.8333" x2="382.2917" y1="443.514" y2="443.514"/><polygon fill="none" points="156.25,456.9539,152.0833,463.2039,160.4167,463.2039" style="stroke:#000716;stroke-width:1.0416666666666667;"/><text fill="#D1D5DB" font-family="&quot;Verdana&quot;" font-size="11.4583" lengthAdjust="spacing" textLength="202.0833" x="169.7917" y="463.5249">anotherComputedProperty : String</text><line style="stroke:#0972D3;stroke-width:1.0416666666666667;" x1="145.8333" x2="382.2917" y1="475.6022" y2="475.6022"/><rect fill="#F24D5C" height="6.25" style="stroke:#C82930;stroke-width:1.0416666666666667;" width="6.25" x="153.125" y="490.0838"/><text fill="#D1D5DB" font-family="&quot;Verdana&quot;" font-size="11.4583" lengthAdjust="spacing" textLength="103.125" x="169.7917" y="495.6131">anotherFunction()</text></g><!--reverse link aClass to aSublcass--><g id="link_aClass_aSublcass"><path codeLine="21" d="M124.1094,314.876 C104.5292,353.2458 81.8543,397.6792 68.7396,423.3789 " fill="none" id="aClass-backto-aSublcass" style="stroke:#A4AAB0;stroke-width:2.0833333333333335;"/><polygon fill="none" points="117.7427,311.3104,133.7073,296.0677,130.7333,317.9385,117.7427,311.3104" style="stroke:#A4AAB0;stroke-width:2.0833333333333335;"/><text fill="#000716" font-family="&quot;Verdana&quot;" font-size="12.5" lengthAdjust="spacing" textLength="45.8333" x="122.3958" y="344.9361">inherits</text></g><!--reverse link aProtocol to aClass--><g id="link_aProtocol_aClass"><path codeLine="22" d="M160.9375,120.325 C160.9375,142.2812 160.9375,166.4313 160.9375,187.2948 " fill="none" id="aProtocol-backto-aClass" style="stroke:#A4AAB0;stroke-width:2.0833333333333335;stroke-dasharray:7.0,7.0;"/><polygon fill="none" points="153.6458,120.1365,160.9375,99.3031,168.2292,120.1365,153.6458,120.1365" style="stroke:#A4AAB0;stroke-width:2.0833333333333335;"/><text fill="#000716" font-family="&quot;Verdana&quot;" font-size="12.5" lengthAdjust="spacing" textLength="70.8333" x="167.1875" y="148.0611">conforms to</text></g><!--reverse link aClass to aClass0--><g id="link_aClass_aClass0"><path codeLine="23" d="M190.6313,300.8958 C203.9813,327.0563 219.7313,357.9208 233.2156,384.3438 " fill="none" id="aClass-backto-aClass0" style="stroke:#A4AAB0;stroke-width:2.0833333333333335;stroke-dasharray:7.0,7.0;"/><polygon fill="#A4AAB0" points="188.1677,296.0677,188.7187,306.3121,190.5356,300.7067,196.141,302.5236,188.1677,296.0677" style="stroke:#A4AAB0;stroke-width:2.0833333333333335;"/><text fill="#000716" font-family="&quot;Verdana&quot;" font-size="12.5" lengthAdjust="spacing" textLength="19.7917" x="221.3542" y="344.9361">ext</text></g><!--SRC=[VL3BJW8n5DttAuviO1A6i2Q4n02oCKeO5hgixGKQ-fYqdQWH_NRhm4n6OzWqjxddTKyVnVRvVfdUsysM7PGaa2dZEmoP5_A1XQEo9VVS81ouTA_Axh7ZEX3hNwZBXmLZD_50XY2qgsGGlAHSKb1xovZGF0Jq-Dgxw8JJFV20zeVf58Fr42kd9TcDandAPZMRuGCC-AhHTvKLKJaxoC0-MzMYUj4YZMVLvbUhpeTOS7yiYAyyaStEUbtoNBVCUhn2-uaXd2chI3AbAScdZYOeea-5r1d_p_VNObnxF0tnw4LgEmEzHR8XyJhdMfVQzFChTla5yzkqkUAKvvqk9b0sGLKCh5FxQJHghfv0EBjJtWH4rugq-t42f9JV]--></g></svg>