<?xml version="1.0" encoding="UTF-8" standalone="no"?><svg xmlns="http://www.w3.org/2000/svg" xmlns:xlink="http://www.w3.org/1999/xlink" contentStyleType="text/css" height="530.2083px" preserveAspectRatio="none" style="width:406px;height:530px;" version="1.1" viewBox="0 0 406 530" width="406.25px" zoomAndPan="magnify"><defs/><g><!--class aProtocol--><g id="elem_aProtocol"><rect codeLine="8" fill="#86C8B5" height="91.2272" id="aProtocol" rx="4.1667" ry="4.1667" style="stroke:#78C2AD;stroke-width:1.0416666666666667;" width="122.9167" x="109.8958" y="17.7083"/><ellipse cx="133.3854" cy="47.2778" fill="#DAA520" rx="10.4167" ry="10.4167" style="stroke:#6CAF9C;stroke-width:1.0416666666666667;"/><path d="M133.2064,48.4172 L134.4271,48.4172 C135.599,48.4172 136.2174,48.2056 136.7708,47.6034 C137.1615,47.1639 137.3893,46.578 137.3893,45.992 C137.3893,44.6086 136.2663,43.632 134.6875,43.632 L131.7741,43.632 C131.4486,43.632 131.3509,43.6483 131.237,43.7297 C131.0579,43.8436 130.944,44.0552 130.944,44.2668 C130.944,44.4458 131.0417,44.6411 131.2044,44.7713 C131.3184,44.869 131.4486,44.8853 131.7741,44.8853 L131.9531,44.8853 L131.9531,49.6704 L131.7741,49.6704 C131.4648,49.6704 131.3509,49.6867 131.237,49.7681 C131.0579,49.8657 130.944,50.0936 130.944,50.3052 C130.944,50.4842 131.0417,50.6795 131.2044,50.7935 C131.3021,50.8911 131.4811,50.9237 131.7741,50.9237 L134.4434,50.9237 C134.6875,50.9237 134.8828,50.8911 134.9642,50.8423 C135.1595,50.7284 135.2734,50.5168 135.2734,50.3052 C135.2734,50.0936 135.1758,49.9146 135.013,49.7843 C134.8828,49.703 134.7852,49.6704 134.4434,49.6704 L133.2064,49.6704 L133.2064,48.4172 Z M133.2064,44.8853 L134.6875,44.8853 C135.5501,44.8853 136.071,45.3247 136.071,46.0409 C136.071,46.7407 135.5501,47.1802 134.6875,47.1802 L133.2064,47.1802 L133.2064,44.8853 Z " fill="#FFFFFF"/><text fill="#343A40" font-family="Verdana" font-size="12.5" font-style="italic" lengthAdjust="spacing" textLength="65.625" x="152.0313" y="39.7278">«protocol»</text><text fill="#343A40" font-family="&quot;Verdana&quot;" font-size="11.4583" lengthAdjust="spacing" textLength="53.125" x="158.2813" y="63.7283">aProtocol</text><line style="stroke:#78C2AD;stroke-width:1.0416666666666667;" x1="110.9375" x2="231.7708" y1="76.8473" y2="76.8473"/><polygon fill="#F3969A" points="121.3542,90.2873,117.1875,96.5373,125.5208,96.5373" style="stroke:#78C2AD;stroke-width:1.0416666666666667;"/><text fill="#343A40" font-family="&quot;Verdana&quot;" font-size="11.4583" lengthAdjust="spacing" textLength="86.4583" x="134.8958" y="96.8582">aProtFunction()</text></g><!--class aSublcass--><g id="elem_aSublcass"><rect codeLine="11" fill="#86C8B5" height="44.5882" id="aSublcass" rx="4.1667" ry="4.1667" style="stroke:#78C2AD;stroke-width:1.0416666666666667;" width="101.0417" x="17.7083" y="433.8542"/><ellipse cx="32.2917" cy="456.1483" fill="#8FBC8F" rx="10.4167" ry="10.4167" style="stroke:#6CAF9C;stroke-width:1.0416666666666667;"/><path d="M34.2285,452.7629 C33.5449,452.4373 33.1055,452.3397 32.4544,452.3397 C30.5339,452.3397 29.0527,453.8534 29.0527,455.8553 L29.0527,456.6854 C29.0527,458.5897 30.6152,459.9731 32.7311,459.9731 C33.6263,459.9731 34.4889,459.7453 35.026,459.3384 C35.4655,459.0454 35.6934,458.7199 35.6934,458.4269 C35.6934,458.1014 35.4004,457.8084 35.0749,457.8084 C34.9121,457.8084 34.7656,457.8735 34.6191,458.0037 C34.2773,458.3618 34.2773,458.3618 34.1471,458.4269 C33.8379,458.6222 33.3333,458.7199 32.7637,458.7199 C31.2663,458.7199 30.306,457.9061 30.306,456.6528 L30.306,455.8553 C30.306,454.5369 31.2337,453.5767 32.5033,453.5767 C32.9264,453.5767 33.3822,453.6906 33.724,453.8859 C34.082,454.0812 34.2122,454.244 34.2773,454.5369 C34.3262,454.8462 34.3424,454.9276 34.4401,455.0252 C34.5378,455.1392 34.7168,455.2043 34.8796,455.2043 C35.0911,455.2043 35.2702,455.1066 35.4004,454.9438 C35.4818,454.8299 35.5143,454.6997 35.5143,454.3742 L35.5143,453.3325 C35.5143,453.0233 35.498,452.9256 35.4167,452.8117 C35.3027,452.6164 35.1074,452.5024 34.8796,452.5024 C34.668,452.5024 34.5215,452.5838 34.3587,452.8117 L34.2285,452.7629 Z " fill="#FFFFFF"/><text fill="#343A40" font-family="&quot;Verdana&quot;" font-size="11.4583" lengthAdjust="spacing" textLength="59.375" x="51.0417" y="465.3234">aSublcass</text></g><!--class aClass--><g id="elem_aClass"><rect codeLine="13" fill="#86C8B5" height="108.7646" id="aClass" rx="4.1667" ry="4.1667" style="stroke:#78C2AD;stroke-width:1.0416666666666667;" width="190.625" x="76.0417" y="197.9167"/><ellipse cx="142.7083" cy="220.2108" fill="#8FBC8F" rx="10.4167" ry="10.4167" style="stroke:#6CAF9C;stroke-width:1.0416666666666667;"/><path d="M144.6452,216.8254 C143.9616,216.4998 143.5221,216.4022 142.8711,216.4022 C140.9505,216.4022 139.4694,217.9159 139.4694,219.9178 L139.4694,220.7479 C139.4694,222.6522 141.0319,224.0356 143.1478,224.0356 C144.043,224.0356 144.9056,223.8078 145.4427,223.4009 C145.8822,223.1079 146.11,222.7824 146.11,222.4894 C146.11,222.1639 145.8171,221.8709 145.4915,221.8709 C145.3288,221.8709 145.1823,221.936 145.0358,222.0662 C144.694,222.4243 144.694,222.4243 144.5638,222.4894 C144.2546,222.6847 143.75,222.7824 143.1803,222.7824 C141.6829,222.7824 140.7227,221.9686 140.7227,220.7153 L140.7227,219.9178 C140.7227,218.5994 141.6504,217.6392 142.9199,217.6392 C143.3431,217.6392 143.7988,217.7531 144.1406,217.9484 C144.4987,218.1437 144.6289,218.3065 144.694,218.5994 C144.7428,218.9087 144.7591,218.9901 144.8568,219.0877 C144.9544,219.2017 145.1335,219.2668 145.2962,219.2668 C145.5078,219.2668 145.6868,219.1691 145.8171,219.0063 C145.8984,218.8924 145.931,218.7622 145.931,218.4367 L145.931,217.395 C145.931,217.0858 145.9147,216.9881 145.8333,216.8742 C145.7194,216.6789 145.5241,216.5649 145.2962,216.5649 C145.0846,216.5649 144.9382,216.6463 144.7754,216.8742 L144.6452,216.8254 Z " fill="#FFFFFF"/><text fill="#343A40" font-family="&quot;Verdana&quot;" font-size="11.4583" lengthAdjust="spacing" textLength="38.5417" x="167.7083" y="229.3859">aClass</text><line style="stroke:#78C2AD;stroke-width:1.0416666666666667;" x1="77.0833" x2="265.625" y1="242.5049" y2="242.5049"/><polygon fill="none" points="87.5,255.9448,83.3333,262.1948,91.6667,262.1948" style="stroke:#78C2AD;stroke-width:1.0416666666666667;"/><text fill="#343A40" font-family="&quot;Verdana&quot;" font-size="11.4583" lengthAdjust="spacing" textLength="154.1667" x="101.0417" y="262.5158">computedProperty : String</text><line style="stroke:#78C2AD;stroke-width:1.0416666666666667;" x1="77.0833" x2="265.625" y1="274.5931" y2="274.5931"/><polygon fill="#F3969A" points="87.5,288.033,83.3333,294.283,91.6667,294.283" style="stroke:#78C2AD;stroke-width:1.0416666666666667;"/><text fill="#343A40" font-family="&quot;Verdana&quot;" font-size="11.4583" lengthAdjust="spacing" textLength="64.5833" x="101.0417" y="294.604">aFunction()</text></g><!--class aClass0--><g id="elem_aClass0"><rect codeLine="17" fill="#86C8B5" height="123.3154" id="aClass0" rx="4.1667" ry="4.1667" style="stroke:#78C2AD;stroke-width:1.0416666666666667;" width="238.5417" x="155.2083" y="394.7917"/><ellipse cx="229.6875" cy="424.3612" fill="#DA70D6" rx="10.4167" ry="10.4167" style="stroke:#6CAF9C;stroke-width:1.0416666666666667;"/><path d="M230.599,424.2961 L232.5521,421.9686 C232.9915,421.9523 233.2682,421.7244 233.2682,421.3501 C233.2682,421.1385 233.1868,420.9595 233.0078,420.8293 C232.8776,420.7479 232.7799,420.7153 232.4382,420.7153 L231.3151,420.7153 C231.0384,420.7153 230.8431,420.7642 230.7454,420.8455 C230.5827,420.9595 230.485,421.1548 230.485,421.3501 C230.485,421.6268 230.599,421.7896 230.957,421.9523 L229.7852,423.3195 L228.597,421.9523 C228.9714,421.7896 229.0853,421.6268 229.0853,421.3501 C229.0853,421.1385 228.9714,420.9595 228.8086,420.8293 C228.6947,420.7479 228.597,420.7153 228.2389,420.7153 L227.0996,420.7153 C227.0182,420.7153 227.002,420.7153 226.8555,420.7479 C226.4974,420.7804 226.2858,421.0083 226.2858,421.3501 C226.2858,421.7244 226.5462,421.9523 227.002,421.9686 L228.9714,424.2798 L226.9043,426.7537 C226.4486,426.7537 226.1719,426.9979 226.1719,427.3885 C226.1719,427.5838 226.2695,427.7629 226.4323,427.8931 C226.5462,427.9744 226.6927,428.007 226.9857,428.007 L228.3854,428.007 C228.6458,428.007 228.8086,427.9744 228.9063,427.9256 C229.0853,427.8117 229.1992,427.6001 229.1992,427.3885 C229.1992,427.0142 228.9551,426.7863 228.5319,426.7537 L229.8014,425.2563 L231.071,426.7537 C230.6315,426.7863 230.3711,427.0142 230.3711,427.3885 C230.3711,427.7954 230.6478,428.007 231.2012,428.007 L232.5846,428.007 C232.8613,428.007 233.0241,427.9744 233.1217,427.9256 C233.3008,427.8117 233.4147,427.6001 233.4147,427.3885 C233.4147,426.9979 233.1543,426.77 232.6823,426.7537 L230.599,424.2961 Z " fill="#FFFFFF"/><text fill="#343A40" font-family="Verdana" font-size="12.5" font-style="italic" lengthAdjust="spacing" textLength="75" x="252.6042" y="416.8111">«extension»</text><text fill="#343A40" font-family="&quot;Verdana&quot;" font-size="11.4583" lengthAdjust="spacing" textLength="38.5417" x="270.8333" y="440.8117">aClass</text><line style="stroke:#78C2AD;stroke-width:1.0416666666666667;" x1="156.25" x2="392.7083" y1="453.9307" y2="453.9307"/><polygon fill="none" points="166.6667,467.3706,162.5,473.6206,170.8333,473.6206" style="stroke:#78C2AD;stroke-width:1.0416666666666667;"/><text fill="#343A40" font-family="&quot;Verdana&quot;" font-size="11.4583" lengthAdjust="spacing" textLength="202.0833" x="180.2083" y="473.9415">anotherComputedProperty : String</text><line style="stroke:#78C2AD;stroke-width:1.0416666666666667;" x1="156.25" x2="392.7083" y1="486.0189" y2="486.0189"/><rect fill="none" height="6.25" style="stroke:#6CAF9C;stroke-width:1.0416666666666667;" width="6.25" x="163.5417" y="500.5005"/><text fill="#343A40" font-family="&quot;Verdana&quot;" font-size="11.4583" lengthAdjust="spacing" textLength="103.125" x="180.2083" y="506.0298">anotherFunction()</text></g><!--reverse link aClass to aSublcass--><g id="link_aClass_aSublcass"><path codeLine="21" d="M134.526,325.2927 C114.9458,363.6625 92.2709,408.0958 79.1563,433.7955 " fill="none" id="aClass-backto-aSublcass" style="stroke:#78C2AD;stroke-width:3.125;"/><polygon fill="none" points="128.1594,321.7271,144.124,306.4844,141.15,328.3552,128.1594,321.7271" style="stroke:#78C2AD;stroke-width:3.125;"/><text fill="#FFFFFF" font-family="&quot;Verdana&quot;" font-size="12.5" lengthAdjust="spacing" textLength="45.8333" x="132.8125" y="355.3528">inherits</text></g><!--reverse link aProtocol to aClass--><g id="link_aProtocol_aClass"><path codeLine="22" d="M171.3542,130.7417 C171.3542,152.6979 171.3542,176.8479 171.3542,197.7115 " fill="none" id="aProtocol-backto-aClass" style="stroke:#78C2AD;stroke-width:3.125;stroke-dasharray:7.0,7.0;"/><polygon fill="none" points="164.0625,130.5531,171.3542,109.7198,178.6458,130.5531,164.0625,130.5531" style="stroke:#78C2AD;stroke-width:3.125;"/><text fill="#FFFFFF" font-family="&quot;Verdana&quot;" font-size="12.5" lengthAdjust="spacing" textLength="70.8333" x="177.6042" y="158.4778">conforms to</text></g><!--reverse link aClass to aClass0--><g id="link_aClass_aClass0"><path codeLine="23" d="M201.0479,311.3125 C214.3979,337.4729 230.1479,368.3375 243.6323,394.7604 " fill="none" id="aClass-backto-aClass0" style="stroke:#78C2AD;stroke-width:3.125;stroke-dasharray:7.0,7.0;"/><polygon fill="#78C2AD" points="198.5844,306.4844,199.1353,316.7288,200.9522,311.1233,206.5577,312.9402,198.5844,306.4844" style="stroke:#78C2AD;stroke-width:3.125;"/><text fill="#FFFFFF" font-family="&quot;Verdana&quot;" font-size="12.5" lengthAdjust="spacing" textLength="19.7917" x="231.7708" y="355.3528">ext</text></g><!--SRC=[VL3FQy8m5Bxdh_ZcHGkjU2uY37LUnYRMmtQCwNCDDab9KZQPsz- -hDfIn_0INdZVh_SDaMrV7vVXlTziMI5p0gdA7w58xSWwvWvILzno1LVmtBnB_OOzBnsnuOMwV5emTkSBKWGbjJyo9ahk70PyROqtmfG3S8VkX-aKetMCbIbpqXkJHwZQrMo6Jp3Wkq4_r5fuQVGe0llgLBDwLuemdbNRNwCwZx7Wzf0HNraY7Ptr-kHvsJ6RyGRjDuOmggezvI5DHJRqaYBpDfJGPFm_tr-BIUFn4kFPYj1m1Fhmf5tWzSxL9ZHevpViaWlcshIzufGalIvII1sWqZlMg_qq7hTNfn16xwLL3jvq8jr-4W0XvGy0]--></g></svg>