<?xml version="1.0" encoding="UTF-8" standalone="no"?><svg xmlns="http://www.w3.org/2000/svg" xmlns:xlink="http://www.w3.org/1999/xlink" contentStyleType="text/css" height="363px" preserveAspectRatio="none" style="width:349px;height:363px;background:#777777;" version="1.1" viewBox="0 0 349 363" width="349px" zoomAndPan="magnify"><defs/><g><rect fill="#777777" height="363" style="stroke:none;stroke-width:1.0;" width="349" x="0" y="0"/><!--class aProtocol--><g id="elem_aProtocol"><rect codeLine="8" fill="#2E2E2E" height="56.4141" id="aProtocol" rx="2.5" ry="2.5" style="stroke:#1B1B1B;stroke-width:0.5;" width="106" x="87.5" y="7"/><ellipse cx="110.3" cy="24.8047" fill="#DAA520" rx="8" ry="8" style="stroke:#181818;stroke-width:1.0;"/><path d="M107.3156,20.7891 L110.7375,20.7891 Q112.2688,20.7891 113.0813,21.4766 Q113.9094,22.1484 113.9094,23.3984 Q113.9094,24.6641 113.0813,25.3516 Q112.2688,26.0234 110.7375,26.0234 L109.3781,26.0234 L109.3781,28.8047 L107.3156,28.8047 L107.3156,20.7891 Z M109.3781,22.2891 L109.3781,24.5234 L110.5188,24.5234 Q111.1281,24.5234 111.4563,24.2422 Q111.7844,23.9453 111.7844,23.3984 Q111.7844,22.8672 111.4563,22.5859 Q111.1281,22.2891 110.5188,22.2891 L109.3781,22.2891 Z " fill="#000000"/><text fill="#AAAAAA" font-family="sans-serif" font-size="11" font-style="italic" lengthAdjust="spacing" textLength="60" x="121.7" y="22.2104">«protocol»</text><text fill="#AAAAAA" font-family="Verdana" font-size="11" lengthAdjust="spacing" textLength="51" x="126.2" y="35.0151">aProtocol</text><line style="stroke:#1B1B1B;stroke-width:0.5;" x1="88.5" x2="192.5" y1="42.6094" y2="42.6094"/><polygon fill="#4177AF" points="98.5,50.0117,94.5,56.0117,102.5,56.0117" style="stroke:#1963A0;stroke-width:1.0;"/><text fill="#AAAAAA" font-family="Verdana" font-size="11" lengthAdjust="spacing" textLength="83" x="104.5" y="56.8198">aProtFunction()</text></g><!--class aSublcass--><g id="elem_aSublcass"><rect codeLine="11" fill="#2E2E2E" height="26" id="aSublcass" rx="2.5" ry="2.5" style="stroke:#1B1B1B;stroke-width:0.5;" width="83" x="7" y="304.5"/><ellipse cx="19" cy="317.5" fill="#8FBC8F" rx="8" ry="8" style="stroke:#181818;stroke-width:1.0;"/><path d="M21.125,321.0625 Q20.5469,321.3594 19.9219,321.5 Q19.3125,321.6563 18.6406,321.6563 Q16.6406,321.6563 15.4688,320.5469 Q14.2969,319.4219 14.2969,317.5 Q14.2969,315.5781 15.4688,314.4531 Q16.6406,313.3281 18.6406,313.3281 Q19.3125,313.3281 19.9219,313.4844 Q20.5469,313.6406 21.125,313.9375 L21.125,315.5938 Q20.5469,315.2031 19.9844,315.0156 Q19.4219,314.8281 18.8125,314.8281 Q17.7031,314.8281 17.0625,315.5469 Q16.4375,316.25 16.4375,317.5 Q16.4375,318.7344 17.0625,319.4531 Q17.7031,320.1563 18.8125,320.1563 Q19.4219,320.1563 19.9844,319.9844 Q20.5469,319.7969 21.125,319.4063 L21.125,321.0625 Z " fill="#000000"/><text fill="#AAAAAA" font-family="Verdana" font-size="11" lengthAdjust="spacing" textLength="57" x="30" y="321.3081">aSublcass</text></g><!--class aClass--><g id="elem_aClass"><rect codeLine="13" fill="#2E2E2E" height="67.6094" id="aClass" rx="2.5" ry="2.5" style="stroke:#1B1B1B;stroke-width:0.5;" width="171" x="55" y="137"/><ellipse cx="118.5" cy="150" fill="#8FBC8F" rx="8" ry="8" style="stroke:#181818;stroke-width:1.0;"/><path d="M120.625,153.5625 Q120.0469,153.8594 119.4219,154 Q118.8125,154.1563 118.1406,154.1563 Q116.1406,154.1563 114.9688,153.0469 Q113.7969,151.9219 113.7969,150 Q113.7969,148.0781 114.9688,146.9531 Q116.1406,145.8281 118.1406,145.8281 Q118.8125,145.8281 119.4219,145.9844 Q120.0469,146.1406 120.625,146.4375 L120.625,148.0938 Q120.0469,147.7031 119.4844,147.5156 Q118.9219,147.3281 118.3125,147.3281 Q117.2031,147.3281 116.5625,148.0469 Q115.9375,148.75 115.9375,150 Q115.9375,151.2344 116.5625,151.9531 Q117.2031,152.6563 118.3125,152.6563 Q118.9219,152.6563 119.4844,152.4844 Q120.0469,152.2969 120.625,151.9063 L120.625,153.5625 Z " fill="#000000"/><text fill="#AAAAAA" font-family="Verdana" font-size="11" lengthAdjust="spacing" textLength="37" x="134.5" y="153.8081">aClass</text><line style="stroke:#1B1B1B;stroke-width:0.5;" x1="56" x2="225" y1="163" y2="163"/><polygon fill="none" points="66,170.4023,62,176.4023,70,176.4023" style="stroke:#1963A0;stroke-width:1.0;"/><text fill="#AAAAAA" font-family="Verdana" font-size="11" lengthAdjust="spacing" textLength="148" x="72" y="177.2104">computedProperty : String</text><line style="stroke:#1B1B1B;stroke-width:0.5;" x1="56" x2="225" y1="183.8047" y2="183.8047"/><polygon fill="#4177AF" points="66,191.207,62,197.207,70,197.207" style="stroke:#1963A0;stroke-width:1.0;"/><text fill="#AAAAAA" font-family="Verdana" font-size="11" lengthAdjust="spacing" textLength="62" x="72" y="198.0151">aFunction()</text></g><!--class aClass0--><g id="elem_aClass0"><rect codeLine="17" fill="#2E2E2E" height="77.2188" id="aClass0" rx="2.5" ry="2.5" style="stroke:#1B1B1B;stroke-width:0.5;" width="217" x="125" y="279"/><ellipse cx="197.5" cy="296.8047" fill="#DA70D6" rx="8" ry="8" style="stroke:#181818;stroke-width:1.0;"/><path d="M198.4844,296.7109 L201.2656,300.8047 L199.1094,300.8047 L197.2344,298.0703 L195.375,300.8047 L193.2031,300.8047 L195.9844,296.7109 L193.3125,292.7891 L195.4688,292.7891 L197.2344,295.3672 L198.9844,292.7891 L201.1563,292.7891 L198.4844,296.7109 Z " fill="#000000"/><text fill="#AAAAAA" font-family="sans-serif" font-size="11" font-style="italic" lengthAdjust="spacing" textLength="69" x="211.5" y="294.2104">«extension»</text><text fill="#AAAAAA" font-family="Verdana" font-size="11" lengthAdjust="spacing" textLength="37" x="227.5" y="307.0151">aClass</text><line style="stroke:#1B1B1B;stroke-width:0.5;" x1="126" x2="341" y1="314.6094" y2="314.6094"/><polygon fill="none" points="136,322.0117,132,328.0117,140,328.0117" style="stroke:#1963A0;stroke-width:1.0;"/><text fill="#AAAAAA" font-family="Verdana" font-size="11" lengthAdjust="spacing" textLength="194" x="142" y="328.8198">anotherComputedProperty : String</text><line style="stroke:#1B1B1B;stroke-width:0.5;" x1="126" x2="341" y1="335.4141" y2="335.4141"/><rect fill="#F24D5C" height="6" style="stroke:#C82930;stroke-width:1.0;" width="6" x="133" y="343.8164"/><text fill="#AAAAAA" font-family="Verdana" font-size="11" lengthAdjust="spacing" textLength="99" x="142" y="349.6245">anotherFunction()</text></g><!--reverse link aClass to aSublcass--><g id="link_aClass_aSublcass"><path codeLine="21" d="M108.579,222.136 C89.834,251.579 67.6364,286.4433 56.1869,304.4266 " fill="none" id="aClass-backto-aSublcass" style="stroke:#FFFFFF;stroke-width:1.0;"/><polygon fill="none" points="102.7472,218.263,119.393,205.151,114.557,225.782,102.7472,218.263" style="stroke:#FFFFFF;stroke-width:1.0;"/><text fill="#BBBBBB" font-family="Verdana" font-size="11" lengthAdjust="spacing" textLength="42" x="101.5" y="246.2104">inherits</text></g><!--reverse link aProtocol to aClass--><g id="link_aProtocol_aClass"><path codeLine="22" d="M140.5,83.293 C140.5,100.954 140.5,120.62 140.5,136.753 " fill="none" id="aProtocol-backto-aClass" style="stroke:#FFFFFF;stroke-width:1.0;stroke-dasharray:7.0,7.0;"/><polygon fill="none" points="133.5,83.117,140.5,63.117,147.5,83.117,133.5,83.117" style="stroke:#FFFFFF;stroke-width:1.0;"/><text fill="#BBBBBB" font-family="Verdana" font-size="11" lengthAdjust="spacing" textLength="63" x="141.5" y="104.2104">conforms to</text></g><!--reverse link aClass to aClass0--><g id="link_aClass_aClass0"><path codeLine="23" d="M164.713,209.621 C178.448,230.962 195.581,257.5828 209.312,278.9174 " fill="none" id="aClass-backto-aClass0" style="stroke:#FFFFFF;stroke-width:1.0;stroke-dasharray:7.0,7.0;"/><polygon fill="#FFFFFF" points="161.836,205.151,163.343,214.8839,164.5419,209.3555,170.0702,210.5545,161.836,205.151" style="stroke:#FFFFFF;stroke-width:1.0;"/><text fill="#BBBBBB" font-family="Verdana" font-size="11" lengthAdjust="spacing" textLength="19" x="190.5" y="246.2104">ext</text></g><!--SRC=[VL3BJW8n5DttAuviO1A6i2Q4n02oCKeO5heixKKQ-fYqdQWH_NRhm4n6OzWqjxddTKyVnVRvVfdUsysM7PGaa2dZEmoP7Vd0mb7Padjk40vSkbTbNx3dEX3hNwZBXmLZD_50Xk19IayXv9BxuqvNn9ZGF0Jq-Dgxw8JJFV20zeVf58Fr42kd9TcDandAPZMRuGCC-AhHTvKLKJaxoC0-MzMYsccHnhDgywjLvqCiKeg2-CeJsUoiroNFTSkinokqdnZ2cRAA95EQadpgQ88Y-bH8dV7_V7yjnhN7qn2FNgIsCz1R91iIhtEkTQbDFxzYbrymlqsRAqvvtkbY0cKJLCN0EhMVHgFcwWc4itlbJK1qhKYx7oT0IlaD]--></g></svg>