<?xml version="1.0" encoding="UTF-8" standalone="no"?><svg xmlns="http://www.w3.org/2000/svg" xmlns:xlink="http://www.w3.org/1999/xlink" contentStyleType="text/css" height="530.2083px" preserveAspectRatio="none" style="width:406px;height:530px;" version="1.1" viewBox="0 0 406 530" width="406.25px" zoomAndPan="magnify"><defs/><g><!--class aProtocol--><g id="elem_aProtocol"><polygon fill="#474747" points="114.0625,17.7083,114.0625,17.9273,124.4792,17.2767,134.8958,17.9097,145.3125,18.1247,155.7292,16.9652,166.1458,17.6274,176.5625,17.2641,186.9792,17.3089,197.3958,17.6373,207.8125,16.9882,218.2292,18.285,228.6458,17.7083,228.5621,17.5061,229.2088,17.889,229.8817,18.3351,230.4022,18.413,231.0119,18.7065,231.5921,18.9287,231.5819,18.9245,231.8935,19.5417,232.157,20.139,232.5122,20.7743,232.7837,21.3749,232.8125,21.875,233.5201,21.875,233.0777,32.2367,233.2954,42.5985,233.544,52.9602,232.0613,63.3219,233.5193,73.6837,232.5036,84.0454,233.3686,94.4071,232.8125,104.7689,232.6537,104.7031,232.5464,105.349,232.5622,106.0459,232.0646,106.5302,231.87,107.1399,231.5921,107.7152,231.6371,107.8238,231.0582,108.0928,230.4131,108.2021,229.8625,108.5395,229.159,108.5078,228.6458,108.9355,228.6458,109.2318,218.2292,109.5066,207.8125,109.3986,197.3958,109.5741,186.9792,108.4323,176.5625,108.2562,166.1458,108.2883,155.7292,108.8742,145.3125,108.7308,134.8958,109.6454,124.4792,108.7536,114.0625,108.9355,114.0169,108.8255,113.5036,108.7647,112.7954,108.2335,112.2258,108.0368,111.7917,108.1674,111.1162,107.7152,111.256,107.773,111.1078,107.2235,110.5248,106.4939,110.4864,105.9898,110.3293,105.4366,109.8958,104.7689,109.4037,104.7689,109.796,94.4071,110.0271,84.0454,110.5747,73.6837,109.8915,63.3219,110.3777,52.9602,109.319,42.5985,109.1904,32.2367,109.8958,21.875,110.0574,21.9419,109.9099,21.1905,110.5473,20.7641,110.6944,20.1347,110.7862,19.4824,111.1162,18.9287,111.0692,18.8152,111.7664,18.8318,112.255,18.3445,112.9626,18.3864,113.3998,17.7751,114.0625,17.7083" style="stroke:#333333;stroke-width:1.0416666666666667;"/><polygon fill="#DAA520" points="143.8596,49.8116,142.3327,51.8979,140.5267,54.9537,137.9438,57.0131,135.2295,58.1392,133.0653,58.2369,130.2838,56.8285,127.6592,55.9084,125.6672,54.0403,124.6222,51.9017,124.0025,50.1988,123.3954,47.9745,122.41,46.0605,123.1673,44.1917,123.8307,42.1445,126.3204,40.5254,128.0719,38.4247,130.24,37.7271,132.8173,37.1264,136.1225,37.4833,137.9328,38.337,140.0376,38.724,142.5968,41.346,143.4889,44.114,143.8765,46.0026,143.4375,49.1148" style="stroke:#2E2E2E;stroke-width:1.0416666666666667;"/><path d="M133.2064,48.4172 L134.4271,48.4172 C135.599,48.4172 136.2174,48.2056 136.7708,47.6034 C137.1615,47.1639 137.3893,46.578 137.3893,45.992 C137.3893,44.6086 136.2663,43.632 134.6875,43.632 L131.7741,43.632 C131.4486,43.632 131.3509,43.6483 131.237,43.7297 C131.0579,43.8436 130.944,44.0552 130.944,44.2668 C130.944,44.4458 131.0417,44.6411 131.2044,44.7713 C131.3184,44.869 131.4486,44.8853 131.7741,44.8853 L131.9531,44.8853 L131.9531,49.6704 L131.7741,49.6704 C131.4648,49.6704 131.3509,49.6867 131.237,49.7681 C131.0579,49.8657 130.944,50.0936 130.944,50.3052 C130.944,50.4842 131.0417,50.6795 131.2044,50.7935 C131.3021,50.8911 131.4811,50.9237 131.7741,50.9237 L134.4434,50.9237 C134.6875,50.9237 134.8828,50.8911 134.9642,50.8423 C135.1595,50.7284 135.2734,50.5168 135.2734,50.3052 C135.2734,50.0936 135.1758,49.9146 135.013,49.7843 C134.8828,49.703 134.7852,49.6704 134.4434,49.6704 L133.2064,49.6704 L133.2064,48.4172 Z M133.2064,44.8853 L134.6875,44.8853 C135.5501,44.8853 136.071,45.3247 136.071,46.0409 C136.071,46.7407 135.5501,47.1802 134.6875,47.1802 L133.2064,47.1802 L133.2064,44.8853 Z " fill="#FFFFFF"/><text fill="#555555" font-family="Segoe Print" font-size="12.5" font-style="italic" lengthAdjust="spacing" textLength="65.625" x="152.0313" y="39.7278">«protocol»</text><text fill="#FFFFFF" font-family="&quot;Segoe Print&quot;" font-size="11.4583" lengthAdjust="spacing" textLength="53.125" x="158.2813" y="63.7283">aProtocol</text><path d="M110.9375,76.8473 L110.9375,77.1393 L121.0069,76.2719 L131.0764,77.1158 L141.1458,77.4024 L151.2153,75.8565 L161.2847,76.7394 L171.3542,76.255 L181.4236,76.3147 L191.4931,76.7527 L201.5625,75.8871 L211.6319,77.6163 L221.7014,75.9719 L231.7708,76.8473 " fill="#474747" style="stroke:#333333;stroke-width:1.0416666666666667;"/><polygon fill="#555555" points="121.3542,90.2873,121.4149,90.3278,120.4011,91.4575,119.7433,92.8245,118.9696,94.1143,117.8147,95.1499,117.1875,96.5373,117.1875,96.5103,118.8542,96.3892,120.5208,96.4041,122.1875,96.5136,123.8542,96.2972,125.5208,96.5373,125.6808,96.6439,124.5054,95.1659,123.797,93.9992,123.1456,92.8705,122.1627,91.5208,121.3542,90.2873" style="stroke:#333333;stroke-width:1.0416666666666667;"/><text fill="#FFFFFF" font-family="&quot;Segoe Print&quot;" font-size="11.4583" lengthAdjust="spacing" textLength="86.4583" x="134.8958" y="96.8582">aProtFunction()</text></g><!--class aSublcass--><g id="elem_aSublcass"><polygon fill="#474747" points="21.875,433.8542,21.875,434.0731,32.1759,433.4226,42.4769,434.0555,52.7778,434.2705,63.0787,433.111,73.3796,433.7732,83.6806,433.4099,93.9815,433.4547,104.2824,433.7832,114.5833,433.8542,114.4915,433.6324,115.2462,434.2758,115.6781,434.1401,116.3248,434.523,116.9978,434.969,117.5296,435.0746,117.5021,435.0632,117.7956,435.6729,118.0075,436.2488,118.3191,436.866,118.5826,437.4634,118.75,438.0208,118.9534,438.0208,118.983,445.2718,118.9859,452.5228,118.8384,459.7738,118.911,467.0247,118.75,474.2757,118.9753,474.369,118.2746,474.7691,118.4795,475.5444,117.9227,476.0041,117.9449,476.7037,117.5296,477.222,117.4638,477.0632,116.9313,477.4441,116.4496,477.9481,115.7554,477.9386,115.1866,478.2321,114.5833,478.4424,114.5833,478.7951,104.2824,478.876,93.9815,478.4383,83.6806,478.7416,73.3796,477.8461,63.0787,478.7386,52.7778,479.0134,42.4769,478.9054,32.1759,479.081,21.875,478.4424,21.8108,478.2874,21.1991,477.9891,20.6139,477.7549,20.0994,477.6913,19.4919,477.403,18.9287,477.222,19.1473,477.3125,18.6286,476.6095,18.3305,475.9979,18.2697,475.4846,17.7385,474.7764,17.7083,474.2757,17.5281,474.2757,17.9337,467.0247,17.8596,459.7738,17.9634,452.5228,17.5966,445.2718,17.7083,438.0208,17.8107,438.0632,18.1418,437.51,18.0449,436.7796,18.4098,436.2403,18.7251,435.6806,18.9287,435.0746,19.0153,435.2836,19.5174,434.8291,20.1687,434.7348,20.6229,434.1647,21.1958,433.881,21.875,433.8542" style="stroke:#333333;stroke-width:1.0416666666666667;"/><polygon fill="#8FBC8F" points="42.7659,458.682,41.239,460.7683,39.433,463.8241,36.85,465.8835,34.1358,467.0096,31.9716,467.1074,29.19,465.699,26.5655,464.7789,24.5734,462.9108,23.5285,460.7721,22.9088,459.0692,22.3017,456.845,21.3163,454.9309,22.0735,453.0621,22.7369,451.015,25.2266,449.3959,26.9782,447.2951,29.1462,446.5976,31.7236,445.9968,35.0288,446.3537,36.8391,447.2075,38.9439,447.5945,41.503,450.2164,42.3951,452.9844,42.7827,454.873,42.3437,457.9853" style="stroke:#2E2E2E;stroke-width:1.0416666666666667;"/><path d="M34.2285,452.7629 C33.5449,452.4373 33.1055,452.3397 32.4544,452.3397 C30.5339,452.3397 29.0527,453.8534 29.0527,455.8553 L29.0527,456.6854 C29.0527,458.5897 30.6152,459.9731 32.7311,459.9731 C33.6263,459.9731 34.4889,459.7453 35.026,459.3384 C35.4655,459.0454 35.6934,458.7199 35.6934,458.4269 C35.6934,458.1014 35.4004,457.8084 35.0749,457.8084 C34.9121,457.8084 34.7656,457.8735 34.6191,458.0037 C34.2773,458.3618 34.2773,458.3618 34.1471,458.4269 C33.8379,458.6222 33.3333,458.7199 32.7637,458.7199 C31.2663,458.7199 30.306,457.9061 30.306,456.6528 L30.306,455.8553 C30.306,454.5369 31.2337,453.5767 32.5033,453.5767 C32.9264,453.5767 33.3822,453.6906 33.724,453.8859 C34.082,454.0812 34.2122,454.244 34.2773,454.5369 C34.3262,454.8462 34.3424,454.9276 34.4401,455.0252 C34.5378,455.1392 34.7168,455.2043 34.8796,455.2043 C35.0911,455.2043 35.2702,455.1066 35.4004,454.9438 C35.4818,454.8299 35.5143,454.6997 35.5143,454.3742 L35.5143,453.3325 C35.5143,453.0233 35.498,452.9256 35.4167,452.8117 C35.3027,452.6164 35.1074,452.5024 34.8796,452.5024 C34.668,452.5024 34.5215,452.5838 34.3587,452.8117 L34.2285,452.7629 Z " fill="#FFFFFF"/><text fill="#FFFFFF" font-family="&quot;Segoe Print&quot;" font-size="11.4583" lengthAdjust="spacing" textLength="59.375" x="51.0417" y="465.3234">aSublcass</text></g><!--class aClass--><g id="elem_aClass"><polygon fill="#474747" points="80.2083,197.9167,80.2083,198.1356,90.3356,197.4851,100.463,198.118,110.5903,198.333,120.7176,197.1735,130.8449,197.8357,140.9722,197.4724,151.0995,197.5172,161.2269,197.8457,171.3542,197.1965,181.4815,198.4934,191.6088,197.2601,201.7361,197.7107,211.8634,198.3666,221.9907,197.8273,232.1181,197.9877,242.2454,197.8834,252.3727,198.1026,262.5,197.9167,262.5318,197.9934,263.1671,198.3486,263.7677,198.6201,264.358,198.8668,264.8909,198.9747,265.4463,199.1371,265.595,199.1987,265.9156,199.8196,265.7031,200.2197,266.3962,200.995,266.3275,201.4547,266.6667,202.0833,267.2227,202.0833,266.151,212.1265,266.5953,222.1696,267.4392,232.2127,266.6159,242.2559,266.7764,252.299,267.0194,262.3421,267.1002,272.3853,266.6626,282.4284,266.9658,292.4715,266.6667,302.5146,266.483,302.4386,266.5138,303.1417,266.3544,303.766,266.077,304.3415,265.887,304.9531,265.4463,305.4609,265.3821,305.306,264.7704,305.4958,264.1852,305.7497,263.6707,306.1743,263.0631,306.3742,262.5,306.6813,262.5,307.3911,252.3727,306.4994,242.2454,306.324,232.1181,306.9191,221.9907,305.9867,211.8634,306.1406,201.7361,307.3573,191.6088,307.1351,181.4815,307.4464,171.3542,306.3461,161.2269,307.0138,151.0995,307.2963,140.9722,306.1892,130.8449,306.5815,120.7176,306.8125,110.5903,307.3602,100.463,306.6769,90.3356,307.1632,80.2083,306.6813,80.1347,306.5037,79.5291,306.22,79.0967,306.3547,78.3453,305.7191,77.9189,305.8683,77.2621,305.4609,77.3283,305.4884,76.932,304.8361,76.6604,304.2354,76.677,303.7541,76.1897,303.0641,76.0417,302.5146,76.6582,302.5146,75.4659,292.4715,76.6848,282.4284,76.5461,272.3853,76.2968,262.3421,76.0909,252.299,76.7986,242.2559,76.6808,232.2127,76.218,222.1696,76.321,212.1265,76.0417,202.0833,75.9999,202.066,76.5156,201.5893,76.5795,200.9254,76.8293,200.3385,76.8228,199.6455,77.2621,199.1371,77.2082,199.0071,77.9218,199.0632,78.4977,198.7868,79.0241,198.391,79.5763,198.0574,80.2083,197.9167" style="stroke:#333333;stroke-width:1.0416666666666667;"/><polygon fill="#8FBC8F" points="153.1825,222.7445,151.6556,224.8308,149.8496,227.8866,147.2667,229.946,144.5524,231.0721,142.3883,231.1699,139.6067,229.7615,136.9822,228.8414,134.9901,226.9733,133.9451,224.8346,133.3254,223.1317,132.7183,220.9075,131.7329,218.9934,132.4902,217.1246,133.1536,215.0775,135.6433,213.4584,137.3949,211.3576,139.5629,210.6601,142.1403,210.0593,145.4455,210.4162,147.2558,211.27,149.3605,211.657,151.9197,214.2789,152.8118,217.0469,153.1994,218.9355,152.7604,222.0478" style="stroke:#2E2E2E;stroke-width:1.0416666666666667;"/><path d="M144.6452,216.8254 C143.9616,216.4998 143.5221,216.4022 142.8711,216.4022 C140.9505,216.4022 139.4694,217.9159 139.4694,219.9178 L139.4694,220.7479 C139.4694,222.6522 141.0319,224.0356 143.1478,224.0356 C144.043,224.0356 144.9056,223.8078 145.4427,223.4009 C145.8822,223.1079 146.11,222.7824 146.11,222.4894 C146.11,222.1639 145.8171,221.8709 145.4915,221.8709 C145.3288,221.8709 145.1823,221.936 145.0358,222.0662 C144.694,222.4243 144.694,222.4243 144.5638,222.4894 C144.2546,222.6847 143.75,222.7824 143.1803,222.7824 C141.6829,222.7824 140.7227,221.9686 140.7227,220.7153 L140.7227,219.9178 C140.7227,218.5994 141.6504,217.6392 142.9199,217.6392 C143.3431,217.6392 143.7988,217.7531 144.1406,217.9484 C144.4987,218.1437 144.6289,218.3065 144.694,218.5994 C144.7428,218.9087 144.7591,218.9901 144.8568,219.0877 C144.9544,219.2017 145.1335,219.2668 145.2962,219.2668 C145.5078,219.2668 145.6868,219.1691 145.8171,219.0063 C145.8984,218.8924 145.931,218.7622 145.931,218.4367 L145.931,217.395 C145.931,217.0858 145.9147,216.9881 145.8333,216.8742 C145.7194,216.6789 145.5241,216.5649 145.2962,216.5649 C145.0846,216.5649 144.9382,216.6463 144.7754,216.8742 L144.6452,216.8254 Z " fill="#FFFFFF"/><text fill="#FFFFFF" font-family="&quot;Segoe Print&quot;" font-size="11.4583" lengthAdjust="spacing" textLength="38.5417" x="167.7083" y="229.3859">aClass</text><path d="M77.0833,242.5049 L77.0833,242.7968 L87.5579,241.9294 L98.0324,242.7733 L108.5069,243.06 L118.9815,241.5141 L129.456,242.3969 L139.9306,241.9125 L150.4051,241.9722 L160.8796,242.4102 L171.3542,241.5446 L181.8287,243.2738 L192.3032,241.6295 L202.7778,242.2302 L213.2523,243.1048 L223.7269,242.3857 L234.2014,242.5997 L244.6759,242.4605 L255.1505,242.7528 L265.625,242.5049 " fill="#474747" style="stroke:#333333;stroke-width:1.0416666666666667;"/><polygon fill="none" points="87.5,255.9448,87.5607,255.9853,86.547,257.115,85.8892,258.4821,85.1155,259.7718,83.9606,260.8074,83.3333,262.1948,83.3333,262.1678,85,262.0467,86.6667,262.0617,88.3333,262.1712,90,261.9548,91.6667,262.1948,91.8266,262.3015,90.6512,260.8234,89.9429,259.6567,89.2915,258.528,88.3086,257.1783,87.5,255.9448" style="stroke:#333333;stroke-width:1.0416666666666667;"/><text fill="#FFFFFF" font-family="&quot;Segoe Print&quot;" font-size="11.4583" lengthAdjust="spacing" textLength="154.1667" x="101.0417" y="262.5158">computedProperty : String</text><path d="M77.0833,274.5931 L77.0833,274.885 L87.5579,274.0177 L98.0324,274.8616 L108.5069,275.1482 L118.9815,273.6023 L129.456,274.4852 L139.9306,274.0007 L150.4051,274.0605 L160.8796,274.4984 L171.3542,273.6329 L181.8287,275.362 L192.3032,273.7177 L202.7778,274.3184 L213.2523,275.193 L223.7269,274.474 L234.2014,274.6879 L244.6759,274.5487 L255.1505,274.8411 L265.625,274.5931 " fill="#474747" style="stroke:#333333;stroke-width:1.0416666666666667;"/><polygon fill="#555555" points="87.5,288.033,87.5607,288.0735,86.547,289.2032,85.8892,290.5703,85.1155,291.86,83.9606,292.8956,83.3333,294.283,83.3333,294.2561,85,294.135,86.6667,294.1499,88.3333,294.2594,90,294.043,91.6667,294.283,91.8266,294.3897,90.6512,292.9116,89.9429,291.7449,89.2915,290.6162,88.3086,289.2665,87.5,288.033" style="stroke:#333333;stroke-width:1.0416666666666667;"/><text fill="#FFFFFF" font-family="&quot;Segoe Print&quot;" font-size="11.4583" lengthAdjust="spacing" textLength="64.5833" x="101.0417" y="294.604">aFunction()</text></g><!--class aClass0--><g id="elem_aClass0"><polygon fill="#474747" points="159.375,394.7917,159.375,395.0106,169.839,394.3601,180.303,394.993,190.767,395.208,201.2311,394.0485,211.6951,394.7107,222.1591,394.3474,232.6231,394.3922,243.0871,394.7207,253.5511,394.0715,264.0152,395.3684,274.4792,394.1351,284.9432,394.5857,295.4072,395.2416,305.8712,394.7023,316.3352,394.8627,326.7992,394.7584,337.2633,394.9776,347.7273,395.0408,358.1913,395.4018,368.6553,395.4907,379.1193,395.4992,389.5833,394.7917,389.6172,394.8733,390.2342,395.1845,390.8552,395.5051,391.2553,395.2925,392.0305,395.9856,392.5296,396.0121,392.4345,395.9727,392.9449,396.6722,392.859,397.1248,393.2399,397.7707,393.7438,398.4676,393.75,398.9583,393.6992,398.9583,393.8597,409.4113,394.1027,419.8642,394.1836,430.3171,393.7459,440.77,394.0492,451.2229,393.1537,461.6758,394.0462,472.1288,394.321,482.5817,394.2131,493.0346,394.3886,503.4875,393.75,513.9404,393.595,513.8762,393.2967,514.443,393.0625,515.0364,392.9989,515.7004,392.7106,516.2713,392.5296,516.8867,392.6202,517.1053,391.9171,517.0748,391.3055,517.2648,390.7922,517.6922,390.084,517.6491,389.5833,518.1071,389.5833,517.5663,379.1193,518.7831,368.6553,518.5609,358.1913,518.8722,347.7273,517.7719,337.2633,518.4396,326.7992,518.7221,316.3352,517.615,305.8712,518.0072,295.4072,518.2383,284.9432,518.786,274.4792,518.1027,264.0152,518.5889,253.5511,517.5302,243.0871,517.4016,232.6231,518.6317,222.1591,517.3603,211.6951,518.6373,201.2311,518.3223,190.767,517.828,180.303,517.7386,169.839,518.585,159.375,518.1071,159.3352,518.0111,158.8644,518.0529,158.123,517.4416,157.6893,517.5729,157.0823,517.2861,156.4287,516.8867,156.5073,516.9193,156.1998,516.3037,156.1737,515.8047,155.8933,515.2005,155.5067,514.5522,155.2083,513.9404,155.4877,513.9404,155.0726,503.4875,155.9546,493.0346,155.3697,482.5817,155.3881,472.1288,154.5746,461.6758,154.7862,451.2229,155.7612,440.77,155.656,430.3171,155.1636,419.8642,154.8727,409.4113,155.2083,398.9583,155.1381,398.9292,155.2323,398.2779,155.8295,397.8349,156.1778,397.2888,156.3535,396.6713,156.4287,396.0121,156.5211,396.235,156.9998,395.7241,157.6188,395.5519,158.145,395.1555,158.8235,395.1269,159.375,394.7917" style="stroke:#333333;stroke-width:1.0416666666666667;"/><polygon fill="#DA70D6" points="240.1617,426.8949,238.6348,428.9812,236.8288,432.037,234.2459,434.0964,231.5316,435.2225,229.3674,435.3203,226.5859,433.9119,223.9613,432.9918,221.9693,431.1236,220.9243,428.985,220.3046,427.2821,219.6975,425.0579,218.7121,423.1438,219.4693,421.275,220.1328,419.2279,222.6224,417.6088,224.374,415.508,226.542,414.8104,229.1194,414.2097,232.4246,414.5666,234.2349,415.4204,236.3397,415.8074,238.8988,418.4293,239.791,421.1973,240.1786,423.0859,239.7395,426.1982" style="stroke:#2E2E2E;stroke-width:1.0416666666666667;"/><path d="M230.599,424.2961 L232.5521,421.9686 C232.9915,421.9523 233.2682,421.7244 233.2682,421.3501 C233.2682,421.1385 233.1868,420.9595 233.0078,420.8293 C232.8776,420.7479 232.7799,420.7153 232.4382,420.7153 L231.3151,420.7153 C231.0384,420.7153 230.8431,420.7642 230.7454,420.8455 C230.5827,420.9595 230.485,421.1548 230.485,421.3501 C230.485,421.6268 230.599,421.7896 230.957,421.9523 L229.7852,423.3195 L228.597,421.9523 C228.9714,421.7896 229.0853,421.6268 229.0853,421.3501 C229.0853,421.1385 228.9714,420.9595 228.8086,420.8293 C228.6947,420.7479 228.597,420.7153 228.2389,420.7153 L227.0996,420.7153 C227.0182,420.7153 227.002,420.7153 226.8555,420.7479 C226.4974,420.7804 226.2858,421.0083 226.2858,421.3501 C226.2858,421.7244 226.5462,421.9523 227.002,421.9686 L228.9714,424.2798 L226.9043,426.7537 C226.4486,426.7537 226.1719,426.9979 226.1719,427.3885 C226.1719,427.5838 226.2695,427.7629 226.4323,427.8931 C226.5462,427.9744 226.6927,428.007 226.9857,428.007 L228.3854,428.007 C228.6458,428.007 228.8086,427.9744 228.9063,427.9256 C229.0853,427.8117 229.1992,427.6001 229.1992,427.3885 C229.1992,427.0142 228.9551,426.7863 228.5319,426.7537 L229.8014,425.2563 L231.071,426.7537 C230.6315,426.7863 230.3711,427.0142 230.3711,427.3885 C230.3711,427.7954 230.6478,428.007 231.2012,428.007 L232.5846,428.007 C232.8613,428.007 233.0241,427.9744 233.1217,427.9256 C233.3008,427.8117 233.4147,427.6001 233.4147,427.3885 C233.4147,426.9979 233.1543,426.77 232.6823,426.7537 L230.599,424.2961 Z " fill="#FFFFFF"/><text fill="#555555" font-family="Segoe Print" font-size="12.5" font-style="italic" lengthAdjust="spacing" textLength="75" x="252.6042" y="416.8111">«extension»</text><text fill="#FFFFFF" font-family="&quot;Segoe Print&quot;" font-size="11.4583" lengthAdjust="spacing" textLength="38.5417" x="270.8333" y="440.8117">aClass</text><path d="M156.25,453.9307 L156.25,454.2226 L166.5308,453.3552 L176.8116,454.1991 L187.0924,454.4858 L197.3732,452.9398 L207.654,453.8227 L217.9348,453.3383 L228.2156,453.398 L238.4964,453.836 L248.7772,452.9704 L259.058,454.6996 L269.3388,453.0553 L279.6196,453.656 L289.9004,454.5306 L300.1812,453.8115 L310.462,454.0254 L320.7428,453.8863 L331.0236,454.1786 L341.3043,454.2628 L351.5851,454.7441 L361.8659,454.8627 L372.1467,454.8741 L382.4275,454.2843 L392.7083,453.9307 " fill="#474747" style="stroke:#333333;stroke-width:1.0416666666666667;"/><polygon fill="none" points="166.6667,467.3706,166.7274,467.4111,165.7136,468.5408,165.0558,469.9078,164.2821,471.1976,163.1272,472.2332,162.5,473.6206,162.5,473.5936,164.1667,473.4725,165.8333,473.4874,167.5,473.5969,169.1667,473.3805,170.8333,473.6206,170.9933,473.7272,169.8179,472.2492,169.1095,471.0825,168.4581,469.9538,167.4752,468.6041,166.6667,467.3706" style="stroke:#333333;stroke-width:1.0416666666666667;"/><text fill="#FFFFFF" font-family="&quot;Segoe Print&quot;" font-size="11.4583" lengthAdjust="spacing" textLength="202.0833" x="180.2083" y="473.9415">anotherComputedProperty : String</text><path d="M156.25,486.0189 L156.25,486.3108 L166.5308,485.4434 L176.8116,486.2873 L187.0924,486.574 L197.3732,485.0281 L207.654,485.9109 L217.9348,485.4265 L228.2156,485.4862 L238.4964,485.9242 L248.7772,485.0586 L259.058,486.7878 L269.3388,485.1435 L279.6196,485.7442 L289.9004,486.6188 L300.1812,485.8997 L310.462,486.1137 L320.7428,485.9745 L331.0236,486.2668 L341.3043,486.351 L351.5851,486.8323 L361.8659,486.9509 L372.1467,486.9623 L382.4275,486.3725 L392.7083,486.0189 " fill="#474747" style="stroke:#333333;stroke-width:1.0416666666666667;"/><polygon fill="none" points="163.5417,500.5005,163.5417,500.5735,164.7917,500.3566,166.0417,500.5676,167.2917,500.6393,168.5417,500.2528,169.7917,500.5005,169.7647,500.5005,169.6436,501.7505,169.6585,503.0005,169.768,504.2505,169.5516,505.5005,169.7917,506.7505,169.7917,506.9427,168.5417,506.5316,167.2917,506.6818,166.0417,506.9005,164.7917,506.7207,163.5417,506.7505,163.5654,506.7505,163.5306,505.5005,163.6037,504.2505,163.6247,503.0005,163.745,501.7505,163.5417,500.5005" style="stroke:#2E2E2E;stroke-width:1.0416666666666667;"/><text fill="#FFFFFF" font-family="&quot;Segoe Print&quot;" font-size="11.4583" lengthAdjust="spacing" textLength="103.125" x="180.2083" y="506.0298">anotherFunction()</text></g><!--reverse link aClass to aSublcass--><g id="link_aClass_aSublcass"><path d="M134.526,325.2927 L134.7861,325.4254 L129.3993,334.073 L125.5369,343.4985 L121.178,352.6707 L115.1869,361.0099 L111.3592,370.4532 L106.3135,379.2749 L101.7526,388.3439 L97.5285,397.5849 L92.1434,406.2333 L89.0695,416.0612 L82.9907,424.3557 L79.1563,433.7955 " fill="none" style="stroke:#333333;stroke-width:3.125;"/><polygon fill="none" points="128.1594,321.7271,128.2098,321.7799,131.2529,318.5745,134.5916,315.6785,137.834,312.6818,140.76,309.3538,144.124,306.4844,144.0972,306.4807,143.3824,310.8386,142.8024,315.2148,142.3161,319.6037,141.5069,323.9487,141.15,328.3552,141.2374,328.5264,138.4524,326.8346,135.9225,325.6428,133.4238,324.5119,130.744,323.0262,128.1594,321.7271" style="stroke:#333333;stroke-width:3.125;"/><text fill="#FFFFFF" font-family="&quot;Segoe Print&quot;" font-size="12.5" lengthAdjust="spacing" textLength="45.8333" x="132.8125" y="355.3528">inherits</text></g><!--reverse link aProtocol to aClass--><g id="link_aProtocol_aClass"><path d="M171.3542,130.7417 L171.6461,130.7417 L170.7787,141.9033 L171.6226,153.0649 L171.9093,164.2266 L170.3633,175.3882 L171.2462,186.5498 L171.3542,197.7115 " fill="none" style="stroke:#333333;stroke-width:3.125;stroke-dasharray:7.0,7.0;"/><polygon fill="none" points="164.0625,130.5531,164.1314,130.5772,165.385,126.3389,167.0425,122.242,168.5685,118.099,169.662,113.8046,171.3542,109.7198,171.3287,109.7109,172.6727,113.8375,174.1451,118.0091,175.7068,122.212,176.9609,126.3072,178.6458,130.5531,178.6458,130.7454,175.7292,130.3343,172.8125,130.4845,169.8958,130.7031,166.9792,130.5233,164.0625,130.5531" style="stroke:#333333;stroke-width:3.125;"/><text fill="#FFFFFF" font-family="&quot;Segoe Print&quot;" font-size="12.5" lengthAdjust="spacing" textLength="70.8333" x="177.6042" y="158.4778">conforms to</text></g><!--reverse link aClass to aClass0--><g id="link_aClass_aClass0"><path d="M201.0479,311.3125 L201.3079,311.4452 L205.267,320.3229 L210.7502,329.9785 L215.7372,339.3808 L219.0918,347.9501 L224.6098,357.6234 L228.9099,366.6752 L233.6947,375.9743 L238.8164,385.4454 L243.6323,394.7604 " fill="none" style="stroke:#333333;stroke-width:3.125;stroke-dasharray:7.0,7.0;"/><polygon fill="#333333" points="198.5844,306.4844,198.6572,306.4883,198.5509,308.5255,198.8718,310.5857,199.0535,312.6385,198.7778,314.6666,199.1353,316.7288,199.1097,316.7205,199.3578,315.562,199.7354,314.4456,200.203,313.3582,200.3605,312.1704,200.9522,311.1233,201.0115,311.3062,202.0058,311.2785,203.1732,311.7848,204.3617,312.3562,205.4274,312.5485,206.5577,312.9402,206.5726,312.9586,204.956,311.6404,203.4074,310.4061,201.8259,309.1312,200.307,307.9336,198.5844,306.4844" style="stroke:#333333;stroke-width:3.125;"/><text fill="#FFFFFF" font-family="&quot;Segoe Print&quot;" font-size="12.5" lengthAdjust="spacing" textLength="19.7917" x="231.7708" y="355.3528">ext</text></g><!--SRC=[VL3FQy8m5Bxdh_ZcHGkjU1OHXZelOnFhOJl6zBc6Dab9KZQPsz- -hDfIn_0INdZVh_SDaUvU7rVXlT_kM2up0gdA7w58xSawvWgfAswvWijvPjwbViE1buxOy49TFIqPk_CvAO8ho8lyo9WekNCOy8qrtWXJ3i0TkXzcCumsCTQcp4XlJHQXQbVpEJx1WEy6_L1huQNHemZigrDDwtqfmdXMRN-DwYB6ajiY9RwsH3eww_N9Yx9ZDkCDscyCOLHLUyf2cefiQ6QArDjGGvFn_tn_BIQDnqkCPoj2nn7emvDsWTSxLvlGeLtSi4ikc6lJzefJalIwc4Bg09NUiLxjf_6ulNeAOVH1MkNWJIVIxIS145B-0000]--></g></svg>