<?xml version="1.0" encoding="UTF-8" standalone="no"?><svg xmlns="http://www.w3.org/2000/svg" xmlns:xlink="http://www.w3.org/1999/xlink" contentStyleType="text/css" height="402px" preserveAspectRatio="none" style="width:430px;height:402px;background:#FFFFFF;" version="1.1" viewBox="0 0 430 402" width="430px" zoomAndPan="magnify"><defs/><g><!--class aProtocol--><g id="elem_aProtocol"><rect codeLine="8" fill="#FEFECE" height="64.5625" id="aProtocol" style="stroke:#A80036;stroke-width:1.0;" width="137" x="102" y="7"/><ellipse cx="133.2" cy="27.1328" fill="#DAA520" rx="11" ry="11" style="stroke:#A80036;stroke-width:1.0;"/><path d="M132.7469,28.7266 L134.4188,28.7266 C135.9969,28.7266 136.8406,28.4453 137.5906,27.6172 C138.1375,27.0234 138.45,26.2109 138.45,25.4297 C138.45,23.5547 136.9188,22.2266 134.7469,22.2266 L130.7938,22.2266 C130.3563,22.2266 130.2313,22.2422 130.075,22.3359 C129.825,22.4922 129.6688,22.7891 129.6688,23.0703 C129.6688,23.3203 129.8094,23.6016 130.0281,23.7734 C130.1844,23.8828 130.3719,23.9141 130.7938,23.9141 L131.0438,23.9141 L131.0438,30.4297 L130.7938,30.4297 C130.3875,30.4297 130.2313,30.4453 130.075,30.5547 C129.825,30.7109 129.6688,30.9922 129.6688,31.2891 C129.6688,31.5391 129.8094,31.8047 130.0281,31.9609 C130.1688,32.0859 130.4031,32.1328 130.7938,32.1328 L134.4344,32.1328 C134.7781,32.1328 135.0281,32.0859 135.1375,32.0078 C135.4031,31.8672 135.5594,31.5703 135.5594,31.2891 C135.5594,31.0078 135.4188,30.7578 135.2,30.5859 C135.0281,30.4609 134.8875,30.4297 134.4344,30.4297 L132.7469,30.4297 L132.7469,28.7266 Z M132.7469,23.9141 L134.7469,23.9141 C135.9344,23.9141 136.6375,24.5234 136.6375,25.4922 C136.6375,26.4453 135.9344,27.0391 134.7469,27.0391 L132.7469,27.0391 L132.7469,23.9141 Z " fill="#000000"/><text fill="#000000" font-family="sans-serif" font-size="12" font-style="italic" lengthAdjust="spacing" textLength="63" x="153.8" y="23.1387">«protocol»</text><text fill="#000000" font-family="sans-serif" font-size="14" lengthAdjust="spacing" textLength="69" x="150.8" y="38.9639">aProtocol</text><line style="stroke:#A80036;stroke-width:1.0;" x1="103" x2="238" y1="47.2656" y2="47.2656"/><polygon fill="#4177AF" points="113,56.9141,109,62.9141,117,62.9141" style="stroke:#1963A0;stroke-width:1.0;"/><text fill="#000000" font-family="sans-serif" font-size="14" lengthAdjust="spacing" textLength="111" x="122" y="64.2607">aProtFunction()</text></g><!--class aSublcass--><g id="elem_aSublcass"><rect codeLine="11" fill="#FEFECE" height="32" id="aSublcass" style="stroke:#A80036;stroke-width:1.0;" width="101" x="7" y="335.5"/><ellipse cx="22" cy="351.5" fill="#8FBC8F" rx="11" ry="11" style="stroke:#A80036;stroke-width:1.0;"/><path d="M24.3438,347.1719 C23.4063,346.7344 22.8125,346.5938 21.9375,346.5938 C19.3125,346.5938 17.3125,348.6719 17.3125,351.3906 L17.3125,352.5156 C17.3125,355.0938 19.4219,356.9844 22.3125,356.9844 C23.5313,356.9844 24.6875,356.6875 25.4375,356.1406 C26.0156,355.7344 26.3438,355.2813 26.3438,354.8906 C26.3438,354.4375 25.9531,354.0469 25.4844,354.0469 C25.2656,354.0469 25.0625,354.125 24.875,354.3125 C24.4219,354.7969 24.4219,354.7969 24.2344,354.8906 C23.8125,355.1563 23.125,355.2813 22.3594,355.2813 C20.3125,355.2813 19.0156,354.1875 19.0156,352.4844 L19.0156,351.3906 C19.0156,349.6094 20.2656,348.2969 22,348.2969 C22.5781,348.2969 23.1875,348.4531 23.6563,348.7031 C24.1406,348.9844 24.3125,349.2031 24.4063,349.6094 C24.4688,350.0156 24.5,350.1406 24.6406,350.2656 C24.7813,350.4063 25.0156,350.5156 25.2344,350.5156 C25.5,350.5156 25.7656,350.375 25.9375,350.1563 C26.0469,350 26.0781,349.8125 26.0781,349.3906 L26.0781,347.9688 C26.0781,347.5313 26.0625,347.4063 25.9688,347.25 C25.8125,346.9844 25.5313,346.8438 25.2344,346.8438 C24.9375,346.8438 24.7344,346.9375 24.5156,347.25 L24.3438,347.1719 Z " fill="#000000"/><text fill="#000000" font-family="sans-serif" font-size="14" lengthAdjust="spacing" textLength="69" x="36" y="356.3467">aSublcass</text></g><!--class aClass--><g id="elem_aClass"><rect codeLine="13" fill="#FEFECE" height="80.5938" id="aClass" style="stroke:#A80036;stroke-width:1.0;" width="221" x="60" y="149"/><ellipse cx="144.25" cy="165" fill="#8FBC8F" rx="11" ry="11" style="stroke:#A80036;stroke-width:1.0;"/><path d="M146.5938,160.6719 C145.6563,160.2344 145.0625,160.0938 144.1875,160.0938 C141.5625,160.0938 139.5625,162.1719 139.5625,164.8906 L139.5625,166.0156 C139.5625,168.5938 141.6719,170.4844 144.5625,170.4844 C145.7813,170.4844 146.9375,170.1875 147.6875,169.6406 C148.2656,169.2344 148.5938,168.7813 148.5938,168.3906 C148.5938,167.9375 148.2031,167.5469 147.7344,167.5469 C147.5156,167.5469 147.3125,167.625 147.125,167.8125 C146.6719,168.2969 146.6719,168.2969 146.4844,168.3906 C146.0625,168.6563 145.375,168.7813 144.6094,168.7813 C142.5625,168.7813 141.2656,167.6875 141.2656,165.9844 L141.2656,164.8906 C141.2656,163.1094 142.5156,161.7969 144.25,161.7969 C144.8281,161.7969 145.4375,161.9531 145.9063,162.2031 C146.3906,162.4844 146.5625,162.7031 146.6563,163.1094 C146.7188,163.5156 146.75,163.6406 146.8906,163.7656 C147.0313,163.9063 147.2656,164.0156 147.4844,164.0156 C147.75,164.0156 148.0156,163.875 148.1875,163.6563 C148.2969,163.5 148.3281,163.3125 148.3281,162.8906 L148.3281,161.4688 C148.3281,161.0313 148.3125,160.9063 148.2188,160.75 C148.0625,160.4844 147.7813,160.3438 147.4844,160.3438 C147.1875,160.3438 146.9844,160.4375 146.7656,160.75 L146.5938,160.6719 Z " fill="#000000"/><text fill="#000000" font-family="sans-serif" font-size="14" lengthAdjust="spacing" textLength="44" x="164.75" y="169.8467">aClass</text><line style="stroke:#A80036;stroke-width:1.0;" x1="61" x2="280" y1="181" y2="181"/><polygon fill="none" points="71,190.6484,67,196.6484,75,196.6484" style="stroke:#1963A0;stroke-width:1.0;"/><text fill="#000000" font-family="sans-serif" font-size="14" lengthAdjust="spacing" textLength="195" x="80" y="197.9951">computedProperty : String</text><line style="stroke:#A80036;stroke-width:1.0;" x1="61" x2="280" y1="205.2969" y2="205.2969"/><polygon fill="#4177AF" points="71,214.9453,67,220.9453,75,220.9453" style="stroke:#1963A0;stroke-width:1.0;"/><text fill="#000000" font-family="sans-serif" font-size="14" lengthAdjust="spacing" textLength="80" x="80" y="222.292">aFunction()</text></g><!--class aClass0--><g id="elem_aClass0"><rect codeLine="17" fill="#FEFECE" height="88.8594" id="aClass0" style="stroke:#A80036;stroke-width:1.0;" width="280" x="143.5" y="307"/><ellipse cx="245.25" cy="327.1328" fill="#DA70D6" rx="11" ry="11" style="stroke:#A80036;stroke-width:1.0;"/><path d="M246.4375,327.0859 L249.1094,323.9141 C249.7031,323.8984 250.0781,323.6016 250.0781,323.0703 C250.0781,322.8047 249.9531,322.5391 249.7188,322.3672 C249.5469,322.2578 249.4063,322.2266 248.9531,322.2266 L247.4219,322.2266 C247.0469,322.2266 246.7813,322.2734 246.6406,322.3984 C246.4219,322.5391 246.2813,322.8203 246.2813,323.0703 C246.2813,323.4453 246.4531,323.6641 246.9375,323.8984 L245.3438,325.7578 L243.7344,323.8984 C244.2344,323.6641 244.375,323.4453 244.375,323.0703 C244.375,322.8047 244.25,322.5391 244.0313,322.3672 C243.8594,322.2578 243.7188,322.2266 243.2344,322.2266 L241.6875,322.2266 C241.5781,322.2266 241.5625,322.2266 241.3594,322.2578 C240.8594,322.3047 240.5781,322.6172 240.5781,323.0703 C240.5781,323.5859 240.9375,323.8828 241.5625,323.9141 L244.25,327.0703 L241.4219,330.4297 C240.7969,330.4297 240.4219,330.7578 240.4219,331.2891 C240.4219,331.5547 240.5625,331.8047 240.7813,331.9766 C240.9375,332.0859 241.1406,332.1328 241.5469,332.1328 L243.4219,332.1328 C243.7813,332.1328 244,332.1016 244.1406,332.0078 C244.3906,331.8672 244.5469,331.5703 244.5469,331.2891 C244.5469,330.7734 244.2188,330.4609 243.6406,330.4297 L245.3594,328.3984 L247.0781,330.4297 C246.4844,330.4609 246.1563,330.7734 246.1563,331.2891 C246.1563,331.8516 246.5156,332.1328 247.2656,332.1328 L249.1563,332.1328 C249.5156,332.1328 249.7344,332.1016 249.875,332.0078 C250.125,331.8672 250.2813,331.5703 250.2813,331.2891 C250.2813,330.7578 249.9219,330.4453 249.2813,330.4297 L246.4375,327.0859 Z " fill="#000000"/><text fill="#000000" font-family="sans-serif" font-size="12" font-style="italic" lengthAdjust="spacing" textLength="72" x="263.75" y="323.1387">«extension»</text><text fill="#000000" font-family="sans-serif" font-size="14" lengthAdjust="spacing" textLength="44" x="277.75" y="338.9639">aClass</text><line style="stroke:#A80036;stroke-width:1.0;" x1="144.5" x2="422.5" y1="347.2656" y2="347.2656"/><polygon fill="none" points="154.5,356.9141,150.5,362.9141,158.5,362.9141" style="stroke:#1963A0;stroke-width:1.0;"/><text fill="#000000" font-family="sans-serif" font-size="14" lengthAdjust="spacing" textLength="254" x="163.5" y="364.2607">anotherComputedProperty : String</text><line style="stroke:#A80036;stroke-width:1.0;" x1="144.5" x2="422.5" y1="371.5625" y2="371.5625"/><rect fill="#F24D5C" height="6" style="stroke:#C82930;stroke-width:1.0;" width="6" x="151.5" y="382.2109"/><text fill="#000000" font-family="sans-serif" font-size="14" lengthAdjust="spacing" textLength="129" x="163.5" y="388.5576">anotherFunction()</text></g><!--reverse link aClass to aSublcass--><g id="link_aClass_aSublcass"><path codeLine="21" d="M131.014,246.409 C108.716,277.982 82.5183,315.0758 68.1944,335.3575 " fill="none" id="aClass-backto-aSublcass" style="stroke:#A80036;stroke-width:1.0;"/><polygon fill="none" points="125.312,242.349,142.567,230.051,136.747,250.425,125.312,242.349" style="stroke:#A80036;stroke-width:1.0;"/><text fill="#000000" font-family="sans-serif" font-size="13" lengthAdjust="spacing" textLength="47" x="122.5" y="273.0669">inherits</text></g><!--reverse link aProtocol to aClass--><g id="link_aProtocol_aClass"><path codeLine="22" d="M170.5,92.404 C170.5,110.951 170.5,131.536 170.5,148.881 " fill="none" id="aProtocol-backto-aClass" style="stroke:#A80036;stroke-width:1.0;stroke-dasharray:7.0,7.0;"/><polygon fill="none" points="163.5,92.25,170.5,72.25,177.5,92.25,163.5,92.25" style="stroke:#A80036;stroke-width:1.0;"/><text fill="#000000" font-family="sans-serif" font-size="13" lengthAdjust="spacing" textLength="73" x="171.5" y="115.0669">confirms to</text></g><!--reverse link aClass to aClass0--><g id="link_aClass_aClass0"><path codeLine="23" d="M201.371,234.212 C217.334,256.814 236.76,284.32 252.711,306.9048 " fill="none" id="aClass-backto-aClass0" style="stroke:#A80036;stroke-width:1.0;stroke-dasharray:7.0,7.0;"/><polygon fill="#A80036" points="198.433,230.051,200.3573,239.71,201.3173,234.1352,206.8921,235.0952,198.433,230.051" style="stroke:#A80036;stroke-width:1.0;"/><text fill="#000000" font-family="sans-serif" font-size="13" lengthAdjust="spacing" textLength="21" x="231.5" y="273.0669">ext</text></g><!--SRC=[VL1DJy8m6BxtLppX8aiOuRmG4ZEGYr72EEYnT2-keHzBsqMDw6-t3hTCOhWqR_C-dwy_IWDdFR4R5Bld-rLyRxSxLicIGBeExz2az-Gyyn5QSySrVCLB-ohD2mvS3QYhXoLZJ2ZkFKPyusommgeHk4V_mtoEyMQ2jLKbcQqj4zJTQh701nZmrQBl6YE2j6QSW7tsgaMpLoAEPzNkrwhc4oovEnR4rux896Uz8JbNFRCThz1-OWYhwoPG6TFKvE8fCXJ1nTvjnl_pNLhCMe-d2HwTY4TDG6-1Z8-yGLrZGqKklsAN_cB-cdOjJcawk4K6QI9K1iy6PpzDfrth3CAQWtJQ8zXUfD_F8Y2c_0O0]--></g></svg>