<?xml version="1.0" encoding="UTF-8" standalone="no"?><svg xmlns="http://www.w3.org/2000/svg" xmlns:xlink="http://www.w3.org/1999/xlink" contentStyleType="text/css" height="285px" preserveAspectRatio="none" style="width:307px;height:285px;background:#FFFFFF;" version="1.1" viewBox="0 0 307 285" width="307px" zoomAndPan="magnify"><defs/><g><!--class aProtocol--><g id="elem_aProtocol"><rect codeLine="7" fill="#F1F1F1" height="80.8594" id="aProtocol" rx="2.5" ry="2.5" style="stroke:#181818;stroke-width:0.5;" width="148.3333" x="80.5" y="7"/><ellipse cx="116.8" cy="27.1328" fill="#DAA520" rx="11" ry="11" style="stroke:#181818;stroke-width:1.0;"/><path d="M116.3469,28.7266 L118.0187,28.7266 C119.5969,28.7266 120.4406,28.4453 121.1906,27.6172 C121.7375,27.0234 122.05,26.2109 122.05,25.4297 C122.05,23.5547 120.5187,22.2266 118.3469,22.2266 L114.3937,22.2266 C113.9562,22.2266 113.8312,22.2422 113.675,22.3359 C113.425,22.4922 113.2687,22.7891 113.2687,23.0703 C113.2687,23.3203 113.4094,23.6016 113.6281,23.7734 C113.7844,23.8828 113.9719,23.9141 114.3937,23.9141 L114.6437,23.9141 L114.6437,30.4297 L114.3937,30.4297 C113.9875,30.4297 113.8312,30.4453 113.675,30.5547 C113.425,30.7109 113.2687,30.9922 113.2687,31.2891 C113.2687,31.5391 113.4094,31.8047 113.6281,31.9609 C113.7687,32.0859 114.0031,32.1328 114.3937,32.1328 L118.0344,32.1328 C118.3781,32.1328 118.6281,32.0859 118.7375,32.0078 C119.0031,31.8672 119.1594,31.5703 119.1594,31.2891 C119.1594,31.0078 119.0187,30.7578 118.8,30.5859 C118.6281,30.4609 118.4875,30.4297 118.0344,30.4297 L116.3469,30.4297 L116.3469,28.7266 Z M116.3469,23.9141 L118.3469,23.9141 C119.5344,23.9141 120.2375,24.5234 120.2375,25.4922 C120.2375,26.4453 119.5344,27.0391 118.3469,27.0391 L116.3469,27.0391 L116.3469,23.9141 Z " fill="#000000"/><text fill="#000000" font-family="sans-serif" font-size="12" font-style="italic" lengthAdjust="spacing" textLength="63" x="138.5333" y="23.1387">«protocol»</text><text fill="#000000" font-family="sans-serif" font-size="14" lengthAdjust="spacing" textLength="69" x="135.5333" y="38.9639">aProtocol</text><line style="stroke:#181818;stroke-width:0.5;" x1="81.5" x2="227.8333" y1="47.2656" y2="47.2656"/><polygon fill="#4177AF" points="91.5,56.9141,87.5,62.9141,95.5,62.9141" style="stroke:#1963A0;stroke-width:1.0;"/><text fill="#000000" font-family="sans-serif" font-size="14" lengthAdjust="spacing" textLength="111" x="100.5" y="64.2607">aProtFunction()</text><polygon fill="#4177AF" points="91.5,73.2109,87.5,79.2109,95.5,79.2109" style="stroke:#1963A0;stroke-width:1.0;"/><text fill="#000000" font-family="sans-serif" font-size="14" lengthAdjust="spacing" textLength="111" x="100.5" y="80.5576">aProtFunction()</text><path d="M216,71.026 L212.5,76.8594 L214.8333,76.8594 L214.8333,80.3594 L218.3333,74.526 L216,74.526 L216,71.026 " fill="#000000" style="stroke:;stroke-width:0.0;stroke-dasharray:;"/></g><!--class aClass--><g id="elem_aClass"><rect codeLine="11" fill="#F1F1F1" height="113.1875" id="aClass" rx="2.5" ry="2.5" style="stroke:#181818;stroke-width:0.5;" width="291.3333" x="9" y="165"/><ellipse cx="128.4167" cy="181" fill="#8FBC8F" rx="11" ry="11" style="stroke:#181818;stroke-width:1.0;"/><path d="M130.7604,176.6719 C129.8229,176.2344 129.2292,176.0938 128.3542,176.0938 C125.7292,176.0938 123.7292,178.1719 123.7292,180.8906 L123.7292,182.0156 C123.7292,184.5938 125.8385,186.4844 128.7292,186.4844 C129.9479,186.4844 131.1042,186.1875 131.8542,185.6406 C132.4323,185.2344 132.7604,184.7813 132.7604,184.3906 C132.7604,183.9375 132.3698,183.5469 131.901,183.5469 C131.6823,183.5469 131.4792,183.625 131.2917,183.8125 C130.8385,184.2969 130.8385,184.2969 130.651,184.3906 C130.2292,184.6563 129.5417,184.7813 128.776,184.7813 C126.7292,184.7813 125.4323,183.6875 125.4323,181.9844 L125.4323,180.8906 C125.4323,179.1094 126.6823,177.7969 128.4167,177.7969 C128.9948,177.7969 129.6042,177.9531 130.0729,178.2031 C130.5573,178.4844 130.7292,178.7031 130.8229,179.1094 C130.8854,179.5156 130.9167,179.6406 131.0573,179.7656 C131.1979,179.9063 131.4323,180.0156 131.651,180.0156 C131.9167,180.0156 132.1823,179.875 132.3542,179.6563 C132.4635,179.5 132.4948,179.3125 132.4948,178.8906 L132.4948,177.4688 C132.4948,177.0313 132.4792,176.9063 132.3854,176.75 C132.2292,176.4844 131.9479,176.3438 131.651,176.3438 C131.3542,176.3438 131.151,176.4375 130.9323,176.75 L130.7604,176.6719 Z " fill="#000000"/><text fill="#000000" font-family="sans-serif" font-size="14" lengthAdjust="spacing" textLength="44" x="148.9167" y="185.8467">aClass</text><line style="stroke:#181818;stroke-width:0.5;" x1="10" x2="299.3333" y1="197" y2="197"/><polygon fill="none" points="20,206.6484,16,212.6484,24,212.6484" style="stroke:#1963A0;stroke-width:1.0;"/><text fill="#000000" font-family="sans-serif" font-size="14" lengthAdjust="spacing" textLength="195" x="29" y="213.9951">computedProperty : String</text><polygon fill="none" points="20,222.9453,16,228.9453,24,228.9453" style="stroke:#1963A0;stroke-width:1.0;"/><text fill="#000000" font-family="sans-serif" font-size="14" lengthAdjust="spacing" textLength="254" x="29" y="230.292">anotherComputedProperty : String</text><path d="M287.5,220.7604 L284,226.5938 L286.3333,226.5938 L286.3333,230.0938 L289.8333,224.2604 L287.5,224.2604 L287.5,220.7604 " fill="#000000" style="stroke:;stroke-width:0.0;stroke-dasharray:;"/><line style="stroke:#181818;stroke-width:0.5;" x1="10" x2="299.3333" y1="237.5938" y2="237.5938"/><polygon fill="#4177AF" points="20,247.2422,16,253.2422,24,253.2422" style="stroke:#1963A0;stroke-width:1.0;"/><text fill="#000000" font-family="sans-serif" font-size="14" lengthAdjust="spacing" textLength="80" x="29" y="254.5889">aFunction()</text><polygon fill="#4177AF" points="20,263.5391,16,269.5391,24,269.5391" style="stroke:#1963A0;stroke-width:1.0;"/><text fill="#000000" font-family="sans-serif" font-size="14" lengthAdjust="spacing" textLength="129" x="29" y="270.8857">anotherFunction()</text><path d="M162.5,261.3542 L159,267.1875 L161.3333,267.1875 L161.3333,270.6875 L164.8333,264.8542 L162.5,264.8542 L162.5,261.3542 " fill="#000000" style="stroke:;stroke-width:0.0;stroke-dasharray:;"/></g><!--reverse link aProtocol to aClass--><g id="link_aProtocol_aClass"><path codeLine="17" d="M154.5,108.495 C154.5,126.807 154.5,146.855 154.5,164.864 " fill="none" id="aProtocol-backto-aClass" style="stroke:#181818;stroke-width:1.0;stroke-dasharray:7.0,7.0;"/><polygon fill="none" points="147.5,108.393,154.5,88.393,161.5,108.393,147.5,108.393" style="stroke:#181818;stroke-width:1.0;"/><text fill="#000000" font-family="sans-serif" font-size="13" lengthAdjust="spacing" textLength="73" x="155.5" y="131.0669">confirms to</text></g><!--SRC=[TP3FQW8n4CRlUOeF3-g2-02oB9JLUYaYhfSUOpAwmIGJaaWf_VFitMxLIh6NcMGoNtxVp0ZDzlbfqSM7pLQqHXF8XVmAHsv7CObqD3x8A1rIApM_67_0Njf4OdIMBbPp8OIoCYKCv3foPiLs09bmlQ4iCLvFi6IhoMzO5mYNfwh26mJmsNS_dhpAXlsuk5CgXpkskOBukFBgx_m3wuyzgPvWBkEn8RcCHBxuPIXsuPH9T_y6YjsSCpGvTaFrj3zmpxcbMFydERkvQRthz6O9xzFfnUOCYltUH9UG-Gi0]--></g></svg>