<?xml version="1.0" encoding="UTF-8" standalone="no"?><svg xmlns="http://www.w3.org/2000/svg" xmlns:xlink="http://www.w3.org/1999/xlink" contentStyleType="text/css" height="402px" preserveAspectRatio="none" style="width:438px;height:402px;background:#FFFFFF;" version="1.1" viewBox="0 0 438 402" width="438px" zoomAndPan="magnify"><defs/><g><!--class aProtocol--><g id="elem_aProtocol"><rect codeLine="7" fill="#F1F1F1" height="64.5625" id="aProtocol" rx="2.5" ry="2.5" style="stroke:#181818;stroke-width:0.5;" width="137" x="236.5" y="7"/><ellipse cx="267.7" cy="27.1328" fill="#DAA520" rx="11" ry="11" style="stroke:#181818;stroke-width:1.0;"/><path d="M267.2469,28.7266 L268.9188,28.7266 C270.4969,28.7266 271.3406,28.4453 272.0906,27.6172 C272.6375,27.0234 272.95,26.2109 272.95,25.4297 C272.95,23.5547 271.4188,22.2266 269.2469,22.2266 L265.2938,22.2266 C264.8563,22.2266 264.7313,22.2422 264.575,22.3359 C264.325,22.4922 264.1688,22.7891 264.1688,23.0703 C264.1688,23.3203 264.3094,23.6016 264.5281,23.7734 C264.6844,23.8828 264.8719,23.9141 265.2938,23.9141 L265.5438,23.9141 L265.5438,30.4297 L265.2938,30.4297 C264.8875,30.4297 264.7313,30.4453 264.575,30.5547 C264.325,30.7109 264.1688,30.9922 264.1688,31.2891 C264.1688,31.5391 264.3094,31.8047 264.5281,31.9609 C264.6688,32.0859 264.9031,32.1328 265.2938,32.1328 L268.9344,32.1328 C269.2781,32.1328 269.5281,32.0859 269.6375,32.0078 C269.9031,31.8672 270.0594,31.5703 270.0594,31.2891 C270.0594,31.0078 269.9188,30.7578 269.7,30.5859 C269.5281,30.4609 269.3875,30.4297 268.9344,30.4297 L267.2469,30.4297 L267.2469,28.7266 Z M267.2469,23.9141 L269.2469,23.9141 C270.4344,23.9141 271.1375,24.5234 271.1375,25.4922 C271.1375,26.4453 270.4344,27.0391 269.2469,27.0391 L267.2469,27.0391 L267.2469,23.9141 Z " fill="#000000"/><text fill="#000000" font-family="sans-serif" font-size="12" font-style="italic" lengthAdjust="spacing" textLength="63" x="288.3" y="23.1387">«protocol»</text><text fill="#000000" font-family="sans-serif" font-size="14" lengthAdjust="spacing" textLength="69" x="285.3" y="38.9639">aProtocol</text><line style="stroke:#181818;stroke-width:0.5;" x1="237.5" x2="372.5" y1="47.2656" y2="47.2656"/><polygon fill="#4177AF" points="247.5,56.9141,243.5,62.9141,251.5,62.9141" style="stroke:#1963A0;stroke-width:1.0;"/><text fill="#000000" font-family="sans-serif" font-size="14" lengthAdjust="spacing" textLength="111" x="256.5" y="64.2607">aProtFunction()</text></g><!--class aClass--><g id="elem_aClass"><rect codeLine="10" fill="#F1F1F1" height="80.5938" id="aClass" rx="2.5" ry="2.5" style="stroke:#181818;stroke-width:0.5;" width="221" x="38.5" y="149"/><ellipse cx="122.75" cy="165" fill="#8FBC8F" rx="11" ry="11" style="stroke:#181818;stroke-width:1.0;"/><path d="M125.0938,160.6719 C124.1563,160.2344 123.5625,160.0938 122.6875,160.0938 C120.0625,160.0938 118.0625,162.1719 118.0625,164.8906 L118.0625,166.0156 C118.0625,168.5938 120.1719,170.4844 123.0625,170.4844 C124.2813,170.4844 125.4375,170.1875 126.1875,169.6406 C126.7656,169.2344 127.0938,168.7813 127.0938,168.3906 C127.0938,167.9375 126.7031,167.5469 126.2344,167.5469 C126.0156,167.5469 125.8125,167.625 125.625,167.8125 C125.1719,168.2969 125.1719,168.2969 124.9844,168.3906 C124.5625,168.6563 123.875,168.7813 123.1094,168.7813 C121.0625,168.7813 119.7656,167.6875 119.7656,165.9844 L119.7656,164.8906 C119.7656,163.1094 121.0156,161.7969 122.75,161.7969 C123.3281,161.7969 123.9375,161.9531 124.4063,162.2031 C124.8906,162.4844 125.0625,162.7031 125.1563,163.1094 C125.2188,163.5156 125.25,163.6406 125.3906,163.7656 C125.5313,163.9063 125.7656,164.0156 125.9844,164.0156 C126.25,164.0156 126.5156,163.875 126.6875,163.6563 C126.7969,163.5 126.8281,163.3125 126.8281,162.8906 L126.8281,161.4688 C126.8281,161.0313 126.8125,160.9063 126.7188,160.75 C126.5625,160.4844 126.2813,160.3438 125.9844,160.3438 C125.6875,160.3438 125.4844,160.4375 125.2656,160.75 L125.0938,160.6719 Z " fill="#000000"/><text fill="#000000" font-family="sans-serif" font-size="14" lengthAdjust="spacing" textLength="44" x="143.25" y="169.8467">aClass</text><line style="stroke:#181818;stroke-width:0.5;" x1="39.5" x2="258.5" y1="181" y2="181"/><polygon fill="none" points="49.5,190.6484,45.5,196.6484,53.5,196.6484" style="stroke:#1963A0;stroke-width:1.0;"/><text fill="#000000" font-family="sans-serif" font-size="14" lengthAdjust="spacing" textLength="195" x="58.5" y="197.9951">computedProperty : String</text><line style="stroke:#181818;stroke-width:0.5;" x1="39.5" x2="258.5" y1="205.2969" y2="205.2969"/><polygon fill="#4177AF" points="49.5,214.9453,45.5,220.9453,53.5,220.9453" style="stroke:#1963A0;stroke-width:1.0;"/><text fill="#000000" font-family="sans-serif" font-size="14" lengthAdjust="spacing" textLength="80" x="58.5" y="222.292">aFunction()</text></g><!--class aProtocol0--><g id="elem_aProtocol0"><rect codeLine="14" fill="#F1F1F1" height="64.5625" id="aProtocol0" rx="2.5" ry="2.5" style="stroke:#181818;stroke-width:0.5;" width="137" x="294.5" y="157"/><ellipse cx="325.7" cy="177.1328" fill="#DA70D6" rx="11" ry="11" style="stroke:#181818;stroke-width:1.0;"/><path d="M326.8875,177.0859 L329.5594,173.9141 C330.1531,173.8984 330.5281,173.6016 330.5281,173.0703 C330.5281,172.8047 330.4031,172.5391 330.1688,172.3672 C329.9969,172.2578 329.8563,172.2266 329.4031,172.2266 L327.8719,172.2266 C327.4969,172.2266 327.2313,172.2734 327.0906,172.3984 C326.8719,172.5391 326.7313,172.8203 326.7313,173.0703 C326.7313,173.4453 326.9031,173.6641 327.3875,173.8984 L325.7938,175.7578 L324.1844,173.8984 C324.6844,173.6641 324.825,173.4453 324.825,173.0703 C324.825,172.8047 324.7,172.5391 324.4813,172.3672 C324.3094,172.2578 324.1688,172.2266 323.6844,172.2266 L322.1375,172.2266 C322.0281,172.2266 322.0125,172.2266 321.8094,172.2578 C321.3094,172.3047 321.0281,172.6172 321.0281,173.0703 C321.0281,173.5859 321.3875,173.8828 322.0125,173.9141 L324.7,177.0703 L321.8719,180.4297 C321.2469,180.4297 320.8719,180.7578 320.8719,181.2891 C320.8719,181.5547 321.0125,181.8047 321.2313,181.9766 C321.3875,182.0859 321.5906,182.1328 321.9969,182.1328 L323.8719,182.1328 C324.2313,182.1328 324.45,182.1016 324.5906,182.0078 C324.8406,181.8672 324.9969,181.5703 324.9969,181.2891 C324.9969,180.7734 324.6688,180.4609 324.0906,180.4297 L325.8094,178.3984 L327.5281,180.4297 C326.9344,180.4609 326.6063,180.7734 326.6063,181.2891 C326.6063,181.8516 326.9656,182.1328 327.7156,182.1328 L329.6063,182.1328 C329.9656,182.1328 330.1844,182.1016 330.325,182.0078 C330.575,181.8672 330.7313,181.5703 330.7313,181.2891 C330.7313,180.7578 330.3719,180.4453 329.7313,180.4297 L326.8875,177.0859 Z " fill="#000000"/><text fill="#000000" font-family="sans-serif" font-size="12" font-style="italic" lengthAdjust="spacing" textLength="72" x="341.8" y="173.1387">«extension»</text><text fill="#000000" font-family="sans-serif" font-size="14" lengthAdjust="spacing" textLength="69" x="343.3" y="188.9639">aProtocol</text><line style="stroke:#181818;stroke-width:0.5;" x1="295.5" x2="430.5" y1="197.2656" y2="197.2656"/><polygon fill="#4177AF" points="305.5,206.9141,301.5,212.9141,309.5,212.9141" style="stroke:#1963A0;stroke-width:1.0;"/><text fill="#000000" font-family="sans-serif" font-size="14" lengthAdjust="spacing" textLength="111" x="314.5" y="214.2607">aProtFunction()</text></g><!--class aClass1--><g id="elem_aClass1"><rect codeLine="17" fill="#F1F1F1" height="88.8594" id="aClass1" rx="2.5" ry="2.5" style="stroke:#181818;stroke-width:0.5;" width="280" x="9" y="307"/><ellipse cx="110.75" cy="327.1328" fill="#DA70D6" rx="11" ry="11" style="stroke:#181818;stroke-width:1.0;"/><path d="M111.9375,327.0859 L114.6094,323.9141 C115.2031,323.8984 115.5781,323.6016 115.5781,323.0703 C115.5781,322.8047 115.4531,322.5391 115.2188,322.3672 C115.0469,322.2578 114.9063,322.2266 114.4531,322.2266 L112.9219,322.2266 C112.5469,322.2266 112.2813,322.2734 112.1406,322.3984 C111.9219,322.5391 111.7813,322.8203 111.7813,323.0703 C111.7813,323.4453 111.9531,323.6641 112.4375,323.8984 L110.8438,325.7578 L109.2344,323.8984 C109.7344,323.6641 109.875,323.4453 109.875,323.0703 C109.875,322.8047 109.75,322.5391 109.5313,322.3672 C109.3594,322.2578 109.2188,322.2266 108.7344,322.2266 L107.1875,322.2266 C107.0781,322.2266 107.0625,322.2266 106.8594,322.2578 C106.3594,322.3047 106.0781,322.6172 106.0781,323.0703 C106.0781,323.5859 106.4375,323.8828 107.0625,323.9141 L109.75,327.0703 L106.9219,330.4297 C106.2969,330.4297 105.9219,330.7578 105.9219,331.2891 C105.9219,331.5547 106.0625,331.8047 106.2813,331.9766 C106.4375,332.0859 106.6406,332.1328 107.0469,332.1328 L108.9219,332.1328 C109.2813,332.1328 109.5,332.1016 109.6406,332.0078 C109.8906,331.8672 110.0469,331.5703 110.0469,331.2891 C110.0469,330.7734 109.7188,330.4609 109.1406,330.4297 L110.8594,328.3984 L112.5781,330.4297 C111.9844,330.4609 111.6563,330.7734 111.6563,331.2891 C111.6563,331.8516 112.0156,332.1328 112.7656,332.1328 L114.6563,332.1328 C115.0156,332.1328 115.2344,332.1016 115.375,332.0078 C115.625,331.8672 115.7813,331.5703 115.7813,331.2891 C115.7813,330.7578 115.4219,330.4453 114.7813,330.4297 L111.9375,327.0859 Z " fill="#000000"/><text fill="#000000" font-family="sans-serif" font-size="12" font-style="italic" lengthAdjust="spacing" textLength="72" x="129.25" y="323.1387">«extension»</text><text fill="#000000" font-family="sans-serif" font-size="14" lengthAdjust="spacing" textLength="44" x="143.25" y="338.9639">aClass</text><line style="stroke:#181818;stroke-width:0.5;" x1="10" x2="288" y1="347.2656" y2="347.2656"/><polygon fill="none" points="20,356.9141,16,362.9141,24,362.9141" style="stroke:#1963A0;stroke-width:1.0;"/><text fill="#000000" font-family="sans-serif" font-size="14" lengthAdjust="spacing" textLength="254" x="29" y="364.2607">anotherComputedProperty : String</text><line style="stroke:#181818;stroke-width:0.5;" x1="10" x2="288" y1="371.5625" y2="371.5625"/><polygon fill="#4177AF" points="20,381.2109,16,387.2109,24,387.2109" style="stroke:#1963A0;stroke-width:1.0;"/><text fill="#000000" font-family="sans-serif" font-size="14" lengthAdjust="spacing" textLength="129" x="29" y="388.5576">anotherFunction()</text></g><!--reverse link aProtocol to aClass--><g id="link_aProtocol_aClass"><path codeLine="21" d="M256.856,86.175 C235.711,106.236 211.118,129.567 190.76,148.881 " fill="none" id="aProtocol-backto-aClass" style="stroke:#181818;stroke-width:1.0;stroke-dasharray:7.0,7.0;"/><polygon fill="none" points="252.207,80.937,271.534,72.25,261.843,91.093,252.207,80.937" style="stroke:#181818;stroke-width:1.0;"/><text fill="#000000" font-family="sans-serif" font-size="13" lengthAdjust="spacing" textLength="73" x="238" y="115.0669">confirms to</text></g><!--reverse link aProtocol to aProtocol0--><g id="link_aProtocol_aProtocol0"><path codeLine="22" d="M319.32,77.04 C328.91,101.511 341.409,133.405 350.578,156.803 " fill="none" id="aProtocol-backto-aProtocol0" style="stroke:#181818;stroke-width:1.0;stroke-dasharray:7.0,7.0;"/><polygon fill="#181818" points="317.442,72.25,317.0048,82.0891,319.2679,76.9047,324.4523,79.1678,317.442,72.25" style="stroke:#181818;stroke-width:1.0;"/><text fill="#000000" font-family="sans-serif" font-size="13" lengthAdjust="spacing" textLength="21" x="336" y="115.0669">ext</text></g><!--reverse link aClass to aClass1--><g id="link_aClass_aClass1"><path codeLine="23" d="M149,235.058 C149,257.498 149,284.601 149,306.9048 " fill="none" id="aClass-backto-aClass1" style="stroke:#181818;stroke-width:1.0;stroke-dasharray:7.0,7.0;"/><polygon fill="#181818" points="149,230.051,145,239.051,149,235.051,153,239.051,149,230.051" style="stroke:#181818;stroke-width:1.0;"/><text fill="#000000" font-family="sans-serif" font-size="13" lengthAdjust="spacing" textLength="21" x="150" y="273.0669">ext</text></g><!--SRC=[dL3BQi905DtFLnpSQ42aReC89LetfHNZebrE9zScc9aRPaRQqiUtTv8qKK5AwMOUt7FFQuXq-tYx3EVrPYlo8YEGhlmRDEadiawuVM4gQQM6osN6BuLvnawMZiJmPtLvjn12g58wXu5SM_Qik1n0ElG_p6OOhSTOSPcHsN0MeUf6ypdU8O2l1drpCCeNR4OHn6VFcjHtIzay6xvaZ8Mq-vJaoXAPwCYaM5S7JraWhCY6D35IRuFrHkQon6NZLutImnZtLeLs8j2h9-F2zhzyJ_z2PzZdP9DVCxIOSz6JjZycawwf68hDhh3QmVCffeOSOyQr5T6rswzFsy4t]--></g></svg>