<?xml version="1.0" encoding="UTF-8" standalone="no"?><svg xmlns="http://www.w3.org/2000/svg" xmlns:xlink="http://www.w3.org/1999/xlink" contentStyleType="text/css" height="403px" preserveAspectRatio="none" style="width:417px;height:403px;background:#FFFFFF;" version="1.1" viewBox="0 0 417 403" width="417px" zoomAndPan="magnify"><defs/><g><!--class aProtocol--><g id="elem_aProtocol"><rect codeLine="7" fill="#F1F1F1" height="65.1094" id="aProtocol" rx="2.5" ry="2.5" style="stroke:#181818;stroke-width:0.5;" width="132" x="220.5" y="7"/><ellipse cx="251.25" cy="27.3105" fill="#DAA520" rx="11" ry="11" style="stroke:#181818;stroke-width:1.0;"/><path d="M250.0435,23.4761 L250.0435,27.1118 L251.0479,27.1118 Q252.2515,27.1118 252.7371,26.7051 Q253.2227,26.2983 253.2227,25.2939 Q253.2227,24.2896 252.7371,23.8828 Q252.2515,23.4761 251.0479,23.4761 Z M247.5947,21.4175 L250.9565,21.4175 Q253.5215,21.4175 254.6462,22.3306 Q255.771,23.2437 255.771,25.2939 Q255.771,27.3442 254.6462,28.2573 Q253.5215,29.1704 250.9565,29.1704 L250.0435,29.1704 L250.0435,33.8105 L247.5947,33.8105 Z " fill="#000000"/><text fill="#000000" font-family="sans-serif" font-size="12" font-style="italic" lengthAdjust="spacing" textLength="59" x="271.75" y="23.6016">«protocol»</text><text fill="#000000" font-family="sans-serif" font-size="14" lengthAdjust="spacing" textLength="65" x="268.75" y="39.668">aProtocol</text><line style="stroke:#181818;stroke-width:0.5;" x1="221.5" x2="351.5" y1="47.6211" y2="47.6211"/><polygon fill="#4177AF" points="231.5,57.3652,227.5,63.3652,235.5,63.3652" style="stroke:#1963A0;stroke-width:1.0;"/><text fill="#000000" font-family="sans-serif" font-size="14" lengthAdjust="spacing" textLength="106" x="240.5" y="65.1563">aProtFunction()</text></g><!--class aClass--><g id="elem_aClass"><rect codeLine="10" fill="#F1F1F1" height="80.9766" id="aClass" rx="2.5" ry="2.5" style="stroke:#181818;stroke-width:0.5;" width="206" x="37.5" y="149"/><ellipse cx="114.25" cy="165" fill="#8FBC8F" rx="11" ry="11" style="stroke:#181818;stroke-width:1.0;"/><path d="M116.7231,171.1431 Q116.1421,171.4419 115.5029,171.5913 Q114.8638,171.7407 114.1582,171.7407 Q111.6514,171.7407 110.3315,170.0889 Q109.0117,168.437 109.0117,165.3159 Q109.0117,162.1865 110.3315,160.5347 Q111.6514,158.8828 114.1582,158.8828 Q114.8638,158.8828 115.5112,159.0322 Q116.1587,159.1816 116.7231,159.4805 L116.7231,162.2031 Q116.0923,161.6221 115.4988,161.3523 Q114.9053,161.0825 114.2744,161.0825 Q112.9297,161.0825 112.2449,162.1492 Q111.5601,163.2158 111.5601,165.3159 Q111.5601,167.4077 112.2449,168.4744 Q112.9297,169.541 114.2744,169.541 Q114.9053,169.541 115.4988,169.2712 Q116.0923,169.0015 116.7231,168.4204 Z " fill="#000000"/><text fill="#000000" font-family="sans-serif" font-size="14" lengthAdjust="spacing" textLength="44" x="134.75" y="170.291">aClass</text><line style="stroke:#181818;stroke-width:0.5;" x1="38.5" x2="242.5" y1="181" y2="181"/><polygon fill="none" points="48.5,190.7441,44.5,196.7441,52.5,196.7441" style="stroke:#1963A0;stroke-width:1.0;"/><text fill="#000000" font-family="sans-serif" font-size="14" lengthAdjust="spacing" textLength="180" x="57.5" y="198.5352">computedProperty : String</text><line style="stroke:#181818;stroke-width:0.5;" x1="38.5" x2="242.5" y1="205.4883" y2="205.4883"/><polygon fill="#4177AF" points="48.5,215.2324,44.5,221.2324,52.5,221.2324" style="stroke:#1963A0;stroke-width:1.0;"/><text fill="#000000" font-family="sans-serif" font-size="14" lengthAdjust="spacing" textLength="78" x="57.5" y="223.0234">aFunction()</text></g><!--class aProtocol0--><g id="elem_aProtocol0"><rect codeLine="14" fill="#F1F1F1" height="65.1094" id="aProtocol0" rx="2.5" ry="2.5" style="stroke:#181818;stroke-width:0.5;" width="132" x="278.5" y="157"/><ellipse cx="309.25" cy="177.3105" fill="#DA70D6" rx="11" ry="11" style="stroke:#181818;stroke-width:1.0;"/><path d="M313.7607,183.8105 L311.229,183.8105 L308.8633,179.71 L306.5059,183.8105 L303.9741,183.8105 L307.6099,177.5186 L304.0737,171.4175 L306.6055,171.4175 L308.8633,175.3604 L311.1294,171.4175 L313.6611,171.4175 L310.1416,177.5186 Z " fill="#000000"/><text fill="#000000" font-family="sans-serif" font-size="12" font-style="italic" lengthAdjust="spacing" textLength="67" x="325.75" y="173.6016">«extension»</text><text fill="#000000" font-family="sans-serif" font-size="14" lengthAdjust="spacing" textLength="65" x="326.75" y="189.668">aProtocol</text><line style="stroke:#181818;stroke-width:0.5;" x1="279.5" x2="409.5" y1="197.6211" y2="197.6211"/><polygon fill="#4177AF" points="289.5,207.3652,285.5,213.3652,293.5,213.3652" style="stroke:#1963A0;stroke-width:1.0;"/><text fill="#000000" font-family="sans-serif" font-size="14" lengthAdjust="spacing" textLength="106" x="298.5" y="215.1563">aProtFunction()</text></g><!--class aClass1--><g id="elem_aClass1"><rect codeLine="17" fill="#F1F1F1" height="89.5977" id="aClass1" rx="2.5" ry="2.5" style="stroke:#181818;stroke-width:0.5;" width="263" x="9" y="307"/><ellipse cx="104.75" cy="327.3105" fill="#DA70D6" rx="11" ry="11" style="stroke:#181818;stroke-width:1.0;"/><path d="M109.2607,333.8105 L106.729,333.8105 L104.3633,329.71 L102.0059,333.8105 L99.4741,333.8105 L103.1099,327.5186 L99.5737,321.4175 L102.1055,321.4175 L104.3633,325.3604 L106.6294,321.4175 L109.1611,321.4175 L105.6416,327.5186 Z " fill="#000000"/><text fill="#000000" font-family="sans-serif" font-size="12" font-style="italic" lengthAdjust="spacing" textLength="67" x="123.25" y="323.6016">«extension»</text><text fill="#000000" font-family="sans-serif" font-size="14" lengthAdjust="spacing" textLength="44" x="134.75" y="339.668">aClass</text><line style="stroke:#181818;stroke-width:0.5;" x1="10" x2="271" y1="347.6211" y2="347.6211"/><polygon fill="none" points="20,357.3652,16,363.3652,24,363.3652" style="stroke:#1963A0;stroke-width:1.0;"/><text fill="#000000" font-family="sans-serif" font-size="14" lengthAdjust="spacing" textLength="237" x="29" y="365.1563">anotherComputedProperty : String</text><line style="stroke:#181818;stroke-width:0.5;" x1="10" x2="271" y1="372.1094" y2="372.1094"/><polygon fill="#4177AF" points="20,381.8535,16,387.8535,24,387.8535" style="stroke:#1963A0;stroke-width:1.0;"/><text fill="#000000" font-family="sans-serif" font-size="14" lengthAdjust="spacing" textLength="124" x="29" y="389.6445">anotherFunction()</text></g><!--reverse link aProtocol to aClass--><g id="link_aProtocol_aClass"><path codeLine="21" d="M240.35,87.29 C220.9,107 198.5,129.7 179.85,148.61 " fill="none" id="aProtocol-backto-aClass" style="stroke:#181818;stroke-width:1.0;stroke-dasharray:7.0,7.0;"/><polygon fill="none" points="235.09,82.65,254.12,73.33,245.05,92.48,235.09,82.65" style="stroke:#181818;stroke-width:1.0;"/><text fill="#000000" font-family="sans-serif" font-size="13" lengthAdjust="spacing" textLength="73" x="223.5" y="115.5684">conforms to</text></g><!--reverse link aProtocol to aProtocol0--><g id="link_aProtocol_aProtocol0"><path codeLine="22" d="M301.29,78.25 C310.78,102.46 322.97,133.56 331.98,156.55 " fill="none" id="aProtocol-backto-aProtocol0" style="stroke:#181818;stroke-width:1.0;stroke-dasharray:7.0,7.0;"/><polygon fill="#181818" points="299.49,73.66,299.0298,83.4981,301.305,78.3189,306.4841,80.5941,299.49,73.66" style="stroke:#181818;stroke-width:1.0;"/><text fill="#000000" font-family="sans-serif" font-size="13" lengthAdjust="spacing" textLength="20" x="317.5" y="115.5684">ext</text></g><!--reverse link aClass to aClass1--><g id="link_aClass_aClass1"><path codeLine="23" d="M140.5,236.57 C140.5,258.61 140.5,284.89 140.5,306.69 " fill="none" id="aClass-backto-aClass1" style="stroke:#181818;stroke-width:1.0;stroke-dasharray:7.0,7.0;"/><polygon fill="#181818" points="140.5,231.69,136.5,240.69,140.5,236.69,144.5,240.69,140.5,231.69" style="stroke:#181818;stroke-width:1.0;"/><text fill="#000000" font-family="sans-serif" font-size="13" lengthAdjust="spacing" textLength="20" x="141.5" y="273.5684">ext</text></g><!--SRC=[dL3BQi905DtFLnpSQ42aReC89LetfHNZebrE9zScc9aRPaRQqiUtTv8qKK5AwMOUt7FFQuXq-tYx3EVrPYlo8YEGhlmRDEadiawuVM4gQQM6osN6BuLvnawMZiJmPtLvjn12g58wXu5SM_Qik1n0ElG_p6OOhSTOSPcHsN0MeUf6ypdU8O2l1drpCCeNR4OHn6VFcjHtIzay6xvaZ8Mq-vJaoXAPwCYaM5S7JraWhCY6D35IRuFrHkQon6NZLutImnZtLeLs8j2h9-F2zhzyJ_z2PzZdP9DVCxIOSz6JjZycawwf68hDhh3QmVCffeOSOyQr5T6rswzFsy4t]--></g></svg>